G04*
G04 #@! TF.GenerationSoftware,Altium Limited,Altium Designer,18.0.7 (293)*
G04*
G04 Layer_Physical_Order=2*
G04 Layer_Color=16711680*
%FSLAX25Y25*%
%MOIN*%
G70*
G01*
G75*
%ADD10R,0.07087X0.12992*%
%ADD11R,0.06500X0.05000*%
%ADD12R,0.08000X0.09055*%
%ADD13R,0.03937X0.05500*%
%ADD14R,0.05500X0.03937*%
%ADD15R,0.09055X0.08000*%
%ADD16R,0.02362X0.06102*%
%ADD17R,0.03937X0.03937*%
%ADD18R,0.11221X0.03937*%
%ADD19R,0.25591X0.21850*%
%ADD20C,0.03500*%
%ADD21C,0.02000*%
%ADD22C,0.06000*%
%ADD23C,0.04000*%
%ADD24C,0.05000*%
%ADD25C,0.09843*%
%ADD26C,0.07087*%
%ADD27R,0.07087X0.07087*%
%ADD28R,0.09843X0.09843*%
%ADD29R,0.09843X0.09843*%
%ADD30C,0.13780*%
%ADD31O,0.04724X0.07087*%
%ADD32R,0.06000X0.09000*%
%ADD33O,0.06000X0.09000*%
%ADD34O,0.06299X0.07874*%
%ADD35R,0.06299X0.07874*%
%ADD36C,0.07000*%
%ADD37R,0.10000X0.07000*%
%ADD38O,0.10000X0.07000*%
%ADD39R,0.06142X0.09843*%
%ADD40O,0.06142X0.09843*%
%ADD41O,0.07000X0.10000*%
%ADD42R,0.07000X0.10000*%
%ADD43R,0.06339X0.07874*%
%ADD44O,0.06339X0.07874*%
%ADD45O,0.07087X0.08661*%
%ADD46O,0.09000X0.07500*%
%ADD47R,0.09000X0.07500*%
%ADD48R,0.07500X0.09000*%
%ADD49O,0.07500X0.09000*%
%ADD50O,0.08661X0.11811*%
%ADD51C,0.23622*%
G36*
X413107Y-293319D02*
X-16905D01*
Y57953D01*
X112314D01*
X112364Y57453D01*
X112077Y57396D01*
X111415Y56954D01*
X108848Y54386D01*
X103935D01*
X103155Y54231D01*
X102493Y53789D01*
X100090Y51386D01*
X95178D01*
X94397Y51231D01*
X93736Y50789D01*
X91333Y48386D01*
X86420D01*
X85640Y48231D01*
X84978Y47789D01*
X82576Y45386D01*
X77663D01*
X76882Y45231D01*
X76221Y44789D01*
X73818Y42386D01*
X68906D01*
X68125Y42231D01*
X67463Y41789D01*
X65061Y39386D01*
X60148D01*
X59368Y39231D01*
X58706Y38789D01*
X57243Y37325D01*
X56801Y36664D01*
X56652Y35913D01*
X56592Y35889D01*
X55725Y35224D01*
X55060Y34357D01*
X54642Y33347D01*
X54499Y32264D01*
Y30689D01*
X54642Y29606D01*
X55060Y28597D01*
X55725Y27730D01*
X56592Y27065D01*
X57358Y26747D01*
Y26206D01*
X56592Y25889D01*
X55725Y25224D01*
X55060Y24357D01*
X54642Y23347D01*
X54499Y22264D01*
Y20689D01*
X54642Y19606D01*
X55060Y18597D01*
X55725Y17730D01*
X56144Y17408D01*
X56177Y16909D01*
X47243Y7975D01*
X46801Y7313D01*
X46646Y6533D01*
Y5412D01*
X46632Y5407D01*
X45781Y4754D01*
X45129Y3904D01*
X44719Y2913D01*
X44579Y1851D01*
Y-1850D01*
X44719Y-2913D01*
X45129Y-3903D01*
X45781Y-4753D01*
X46632Y-5406D01*
X47622Y-5816D01*
X48685Y-5956D01*
X49747Y-5816D01*
X50738Y-5406D01*
X51588Y-4753D01*
X52241Y-3903D01*
X52651Y-2913D01*
X52791Y-1850D01*
Y1851D01*
X52651Y2913D01*
X52241Y3904D01*
X51588Y4754D01*
X50918Y5268D01*
X50885Y5805D01*
X50910Y5874D01*
X60127Y15091D01*
X60127Y15091D01*
X60569Y15752D01*
X60724Y16533D01*
X60724Y16533D01*
Y17042D01*
X60777Y17065D01*
X61644Y17730D01*
X62309Y18597D01*
X62727Y19606D01*
X62870Y20689D01*
Y22264D01*
X62727Y23347D01*
X62309Y24357D01*
X61644Y25224D01*
X60777Y25889D01*
X60011Y26206D01*
Y26747D01*
X60777Y27065D01*
X61644Y27730D01*
X62309Y28597D01*
X62727Y29606D01*
X62870Y30689D01*
Y32264D01*
X62727Y33347D01*
X62309Y34357D01*
X61963Y34808D01*
X62210Y35308D01*
X65159D01*
X65406Y34808D01*
X65060Y34357D01*
X64642Y33347D01*
X64499Y32264D01*
Y30689D01*
X64642Y29606D01*
X65060Y28597D01*
X65725Y27730D01*
X66592Y27065D01*
X67358Y26747D01*
Y26206D01*
X66592Y25889D01*
X65725Y25224D01*
X65060Y24357D01*
X64642Y23347D01*
X64499Y22264D01*
Y20689D01*
X64642Y19606D01*
X65060Y18597D01*
X65725Y17730D01*
X66145Y17408D01*
X66177Y16909D01*
X57243Y7975D01*
X56801Y7313D01*
X56646Y6533D01*
Y5412D01*
X56632Y5407D01*
X55781Y4754D01*
X55129Y3904D01*
X54719Y2913D01*
X54579Y1851D01*
Y-1850D01*
X54719Y-2913D01*
X55129Y-3903D01*
X55781Y-4753D01*
X56632Y-5406D01*
X57622Y-5816D01*
X58685Y-5956D01*
X59747Y-5816D01*
X60738Y-5406D01*
X61588Y-4753D01*
X62241Y-3903D01*
X62651Y-2913D01*
X62791Y-1850D01*
Y1851D01*
X62651Y2913D01*
X62241Y3904D01*
X61588Y4754D01*
X60918Y5268D01*
X60885Y5805D01*
X60910Y5874D01*
X70127Y15091D01*
X70127Y15091D01*
X70569Y15752D01*
X70724Y16533D01*
X70724Y16533D01*
Y17042D01*
X70777Y17065D01*
X71644Y17730D01*
X72309Y18597D01*
X72728Y19606D01*
X72870Y20689D01*
Y22264D01*
X72728Y23347D01*
X72309Y24357D01*
X71644Y25224D01*
X70777Y25889D01*
X70011Y26206D01*
Y26747D01*
X70777Y27065D01*
X71644Y27730D01*
X72309Y28597D01*
X72728Y29606D01*
X72870Y30689D01*
Y32264D01*
X72728Y33347D01*
X72309Y34357D01*
X71964Y34808D01*
X72210Y35308D01*
X75159D01*
X75406Y34808D01*
X75060Y34357D01*
X74642Y33347D01*
X74499Y32264D01*
Y30689D01*
X74642Y29606D01*
X75060Y28597D01*
X75725Y27730D01*
X76592Y27065D01*
X77358Y26747D01*
Y26206D01*
X76592Y25889D01*
X75725Y25224D01*
X75060Y24357D01*
X74642Y23347D01*
X74499Y22264D01*
Y20689D01*
X74642Y19606D01*
X75060Y18597D01*
X75725Y17730D01*
X76144Y17408D01*
X76177Y16909D01*
X67243Y7975D01*
X66801Y7313D01*
X66645Y6533D01*
Y5412D01*
X66632Y5407D01*
X65781Y4754D01*
X65129Y3904D01*
X64719Y2913D01*
X64579Y1851D01*
Y-1850D01*
X64719Y-2913D01*
X65129Y-3903D01*
X65781Y-4753D01*
X66632Y-5406D01*
X67622Y-5816D01*
X68685Y-5956D01*
X69747Y-5816D01*
X70738Y-5406D01*
X71588Y-4753D01*
X72241Y-3903D01*
X72651Y-2913D01*
X72791Y-1850D01*
Y1851D01*
X72651Y2913D01*
X72241Y3904D01*
X71588Y4754D01*
X70918Y5268D01*
X70885Y5805D01*
X70910Y5874D01*
X80127Y15091D01*
X80127Y15091D01*
X80569Y15752D01*
X80724Y16533D01*
X80724Y16533D01*
Y17042D01*
X80777Y17065D01*
X81644Y17730D01*
X82309Y18597D01*
X82727Y19606D01*
X82870Y20689D01*
Y22264D01*
X82727Y23347D01*
X82309Y24357D01*
X81644Y25224D01*
X80777Y25889D01*
X80011Y26206D01*
Y26747D01*
X80777Y27065D01*
X81644Y27730D01*
X82309Y28597D01*
X82727Y29606D01*
X82870Y30689D01*
Y32264D01*
X82727Y33347D01*
X82309Y34357D01*
X81963Y34808D01*
X82210Y35308D01*
X85159D01*
X85406Y34808D01*
X85060Y34357D01*
X84642Y33347D01*
X84499Y32264D01*
Y30689D01*
X84642Y29606D01*
X85060Y28597D01*
X85725Y27730D01*
X86592Y27065D01*
X87358Y26747D01*
Y26206D01*
X86592Y25889D01*
X85725Y25224D01*
X85060Y24357D01*
X84642Y23347D01*
X84499Y22264D01*
Y20689D01*
X84642Y19606D01*
X85060Y18597D01*
X85725Y17730D01*
X86145Y17408D01*
X86177Y16909D01*
X77243Y7975D01*
X76801Y7313D01*
X76645Y6533D01*
Y5412D01*
X76632Y5407D01*
X75781Y4754D01*
X75129Y3904D01*
X74719Y2913D01*
X74579Y1851D01*
Y-1850D01*
X74719Y-2913D01*
X75129Y-3903D01*
X75781Y-4753D01*
X76632Y-5406D01*
X77622Y-5816D01*
X78685Y-5956D01*
X79747Y-5816D01*
X80738Y-5406D01*
X81588Y-4753D01*
X82241Y-3903D01*
X82651Y-2913D01*
X82791Y-1850D01*
Y1851D01*
X82651Y2913D01*
X82241Y3904D01*
X81588Y4754D01*
X80918Y5268D01*
X80885Y5805D01*
X80910Y5874D01*
X90127Y15091D01*
X90127Y15091D01*
X90569Y15752D01*
X90724Y16533D01*
X90724Y16533D01*
Y17042D01*
X90777Y17065D01*
X91644Y17730D01*
X92309Y18597D01*
X92728Y19606D01*
X92870Y20689D01*
Y22264D01*
X92728Y23347D01*
X92309Y24357D01*
X91644Y25224D01*
X90777Y25889D01*
X90011Y26206D01*
Y26747D01*
X90777Y27065D01*
X91644Y27730D01*
X92309Y28597D01*
X92728Y29606D01*
X92870Y30689D01*
Y32264D01*
X92728Y33347D01*
X92309Y34357D01*
X91963Y34808D01*
X92210Y35308D01*
X95159D01*
X95406Y34808D01*
X95060Y34357D01*
X94642Y33347D01*
X94499Y32264D01*
Y30689D01*
X94642Y29606D01*
X95060Y28597D01*
X95725Y27730D01*
X96592Y27065D01*
X97358Y26747D01*
Y26206D01*
X96592Y25889D01*
X95725Y25224D01*
X95060Y24357D01*
X94642Y23347D01*
X94499Y22264D01*
Y20689D01*
X94642Y19606D01*
X95060Y18597D01*
X95725Y17730D01*
X96144Y17408D01*
X96177Y16909D01*
X87243Y7975D01*
X86801Y7313D01*
X86646Y6533D01*
Y5412D01*
X86632Y5407D01*
X85781Y4754D01*
X85129Y3904D01*
X84719Y2913D01*
X84579Y1851D01*
Y-1850D01*
X84719Y-2913D01*
X85129Y-3903D01*
X85781Y-4753D01*
X86632Y-5406D01*
X87622Y-5816D01*
X88685Y-5956D01*
X89747Y-5816D01*
X90738Y-5406D01*
X91588Y-4753D01*
X92241Y-3903D01*
X92651Y-2913D01*
X92791Y-1850D01*
Y1851D01*
X92651Y2913D01*
X92241Y3904D01*
X91588Y4754D01*
X90918Y5268D01*
X90885Y5805D01*
X90910Y5874D01*
X100127Y15091D01*
X100127Y15091D01*
X100569Y15752D01*
X100724Y16533D01*
X100724Y16533D01*
Y17042D01*
X100777Y17065D01*
X101644Y17730D01*
X102309Y18597D01*
X102727Y19606D01*
X102870Y20689D01*
Y22264D01*
X102727Y23347D01*
X102309Y24357D01*
X101644Y25224D01*
X100777Y25889D01*
X100011Y26206D01*
Y26747D01*
X100777Y27065D01*
X101644Y27730D01*
X102309Y28597D01*
X102727Y29606D01*
X102870Y30689D01*
Y32264D01*
X102727Y33347D01*
X102309Y34357D01*
X101963Y34808D01*
X102210Y35308D01*
X105159D01*
X105406Y34808D01*
X105060Y34357D01*
X104642Y33347D01*
X104499Y32264D01*
Y30689D01*
X104642Y29606D01*
X105060Y28597D01*
X105725Y27730D01*
X106592Y27065D01*
X107358Y26747D01*
Y26206D01*
X106592Y25889D01*
X105725Y25224D01*
X105060Y24357D01*
X104642Y23347D01*
X104499Y22264D01*
Y20689D01*
X104642Y19606D01*
X105060Y18597D01*
X105725Y17730D01*
X106144Y17408D01*
X106177Y16909D01*
X97243Y7975D01*
X96801Y7313D01*
X96645Y6533D01*
Y5412D01*
X96632Y5407D01*
X95781Y4754D01*
X95129Y3904D01*
X94719Y2913D01*
X94579Y1851D01*
Y-1850D01*
X94719Y-2913D01*
X95129Y-3903D01*
X95781Y-4753D01*
X96632Y-5406D01*
X97622Y-5816D01*
X98685Y-5956D01*
X99747Y-5816D01*
X100738Y-5406D01*
X101588Y-4753D01*
X102241Y-3903D01*
X102651Y-2913D01*
X102791Y-1850D01*
Y1851D01*
X102651Y2913D01*
X102241Y3904D01*
X101588Y4754D01*
X100918Y5268D01*
X100885Y5805D01*
X100910Y5874D01*
X110127Y15091D01*
X110127Y15091D01*
X110569Y15752D01*
X110724Y16533D01*
X110724Y16533D01*
Y17042D01*
X110777Y17065D01*
X111644Y17730D01*
X112309Y18597D01*
X112727Y19606D01*
X112870Y20689D01*
Y22264D01*
X112727Y23347D01*
X112309Y24357D01*
X111644Y25224D01*
X110777Y25889D01*
X110011Y26206D01*
Y26747D01*
X110777Y27065D01*
X111644Y27730D01*
X112309Y28597D01*
X112727Y29606D01*
X112870Y30689D01*
Y32264D01*
X112727Y33347D01*
X112309Y34357D01*
X111963Y34808D01*
X112210Y35308D01*
X115159D01*
X115406Y34808D01*
X115060Y34357D01*
X114642Y33347D01*
X114499Y32264D01*
Y30689D01*
X114642Y29606D01*
X115060Y28597D01*
X115725Y27730D01*
X116592Y27065D01*
X117358Y26747D01*
Y26206D01*
X116592Y25889D01*
X115725Y25224D01*
X115060Y24357D01*
X114642Y23347D01*
X114499Y22264D01*
Y20689D01*
X114642Y19606D01*
X115060Y18597D01*
X115725Y17730D01*
X116145Y17408D01*
X116177Y16909D01*
X107243Y7975D01*
X106801Y7313D01*
X106646Y6533D01*
Y5412D01*
X106632Y5407D01*
X105781Y4754D01*
X105129Y3904D01*
X104719Y2913D01*
X104579Y1851D01*
Y-1850D01*
X104719Y-2913D01*
X105129Y-3903D01*
X105781Y-4753D01*
X106632Y-5406D01*
X107622Y-5816D01*
X108685Y-5956D01*
X109747Y-5816D01*
X110738Y-5406D01*
X111588Y-4753D01*
X112241Y-3903D01*
X112651Y-2913D01*
X112791Y-1850D01*
Y1851D01*
X112651Y2913D01*
X112241Y3904D01*
X111588Y4754D01*
X110918Y5268D01*
X110885Y5805D01*
X110910Y5874D01*
X120127Y15091D01*
X120127Y15091D01*
X120569Y15752D01*
X120724Y16533D01*
X120724Y16533D01*
Y17042D01*
X120777Y17065D01*
X121644Y17730D01*
X122309Y18597D01*
X122728Y19606D01*
X122870Y20689D01*
Y22264D01*
X122728Y23347D01*
X122309Y24357D01*
X121644Y25224D01*
X120777Y25889D01*
X120011Y26206D01*
Y26747D01*
X120777Y27065D01*
X121644Y27730D01*
X122309Y28597D01*
X122728Y29606D01*
X122870Y30689D01*
Y32264D01*
X122728Y33347D01*
X122309Y34357D01*
X121837Y34973D01*
X122083Y35473D01*
X125286D01*
X125533Y34973D01*
X125060Y34357D01*
X124642Y33347D01*
X124499Y32264D01*
Y30689D01*
X124642Y29606D01*
X125060Y28597D01*
X125725Y27730D01*
X126592Y27065D01*
X127358Y26747D01*
Y26206D01*
X126592Y25889D01*
X125725Y25224D01*
X125060Y24357D01*
X124642Y23347D01*
X124499Y22264D01*
Y20689D01*
X124642Y19606D01*
X125060Y18597D01*
X125725Y17730D01*
X126592Y17065D01*
X127602Y16646D01*
X128685Y16504D01*
X129760Y16645D01*
X129777Y16633D01*
X130039Y16218D01*
X126918Y13096D01*
X122510D01*
X121730Y12941D01*
X121068Y12499D01*
X117243Y8673D01*
X116801Y8012D01*
X116646Y7231D01*
Y5412D01*
X116632Y5407D01*
X115781Y4754D01*
X115129Y3904D01*
X114719Y2913D01*
X114579Y1851D01*
Y-1850D01*
X114719Y-2913D01*
X115129Y-3903D01*
X115781Y-4753D01*
X116632Y-5406D01*
X117622Y-5816D01*
X118685Y-5956D01*
X119747Y-5816D01*
X120738Y-5406D01*
X121588Y-4753D01*
X122241Y-3903D01*
X122651Y-2913D01*
X122791Y-1850D01*
Y1851D01*
X122651Y2913D01*
X122241Y3904D01*
X121588Y4754D01*
X120738Y5407D01*
X120724Y5412D01*
Y6387D01*
X123355Y9018D01*
X127261D01*
X127468Y8518D01*
X127243Y8292D01*
X126801Y7631D01*
X126646Y6850D01*
Y5412D01*
X126632Y5407D01*
X125781Y4754D01*
X125129Y3904D01*
X124719Y2913D01*
X124579Y1851D01*
Y-1850D01*
X124719Y-2913D01*
X125129Y-3903D01*
X125781Y-4753D01*
X126632Y-5406D01*
X127622Y-5816D01*
X128685Y-5956D01*
X129747Y-5816D01*
X130738Y-5406D01*
X131588Y-4753D01*
X132241Y-3903D01*
X132651Y-2913D01*
X132791Y-1850D01*
Y1851D01*
X132651Y2913D01*
X132241Y3904D01*
X131588Y4754D01*
X130738Y5407D01*
X130724Y5412D01*
Y6006D01*
X136145Y11427D01*
X136645Y11220D01*
Y5412D01*
X136632Y5407D01*
X135781Y4754D01*
X135129Y3904D01*
X134719Y2913D01*
X134579Y1851D01*
Y-1850D01*
X134719Y-2913D01*
X135129Y-3903D01*
X135781Y-4753D01*
X136632Y-5406D01*
X137622Y-5816D01*
X138685Y-5956D01*
X139747Y-5816D01*
X140738Y-5406D01*
X141588Y-4753D01*
X142241Y-3903D01*
X142651Y-2913D01*
X142791Y-1850D01*
Y1851D01*
X142651Y2913D01*
X142241Y3904D01*
X141588Y4754D01*
X140738Y5407D01*
X140724Y5412D01*
Y11068D01*
X141529Y11874D01*
X141777Y12100D01*
X142205Y11869D01*
X146645Y7429D01*
Y5412D01*
X146632Y5407D01*
X145781Y4754D01*
X145129Y3904D01*
X144719Y2913D01*
X144579Y1851D01*
Y-1850D01*
X144719Y-2913D01*
X145129Y-3903D01*
X145781Y-4753D01*
X146632Y-5406D01*
X147622Y-5816D01*
X148685Y-5956D01*
X149747Y-5816D01*
X150738Y-5406D01*
X151588Y-4753D01*
X152241Y-3903D01*
X152651Y-2913D01*
X152791Y-1850D01*
Y1851D01*
X152651Y2913D01*
X152241Y3904D01*
X151588Y4754D01*
X150738Y5407D01*
X150724Y5412D01*
Y8273D01*
X150569Y9054D01*
X150127Y9715D01*
X145361Y14481D01*
Y22145D01*
X145823Y22336D01*
X156669Y11489D01*
X157331Y11047D01*
X158111Y10892D01*
X171366D01*
X174951Y7307D01*
Y-4966D01*
X172785Y-7132D01*
X63000D01*
X62220Y-7287D01*
X61558Y-7729D01*
X54243Y-15045D01*
X53801Y-15706D01*
X53645Y-16487D01*
Y-84263D01*
X47243Y-90666D01*
X46801Y-91328D01*
X46646Y-92108D01*
Y-94588D01*
X46632Y-94593D01*
X45781Y-95246D01*
X45129Y-96096D01*
X44719Y-97087D01*
X44579Y-98149D01*
Y-101850D01*
X44719Y-102913D01*
X45129Y-103903D01*
X45781Y-104753D01*
X46558Y-105349D01*
X46526Y-105629D01*
X46422Y-105849D01*
X40948D01*
X40843Y-105629D01*
X40812Y-105349D01*
X41588Y-104753D01*
X42241Y-103903D01*
X42651Y-102913D01*
X42791Y-101850D01*
Y-101000D01*
X38685D01*
X34579D01*
Y-101850D01*
X34719Y-102913D01*
X35129Y-103903D01*
X35781Y-104753D01*
X36558Y-105349D01*
X36526Y-105629D01*
X36422Y-105849D01*
X32793D01*
X31635Y-104692D01*
X32241Y-103903D01*
X32651Y-102913D01*
X32791Y-101850D01*
Y-98149D01*
X32651Y-97087D01*
X32241Y-96096D01*
X31588Y-95246D01*
X31458Y-95146D01*
Y-90252D01*
X33185D01*
Y-78252D01*
X31458D01*
Y-72047D01*
X31894Y-71713D01*
X32228Y-71277D01*
X40637D01*
X41354Y-71183D01*
X42023Y-70906D01*
X42598Y-70465D01*
X48048Y-65014D01*
X48489Y-64440D01*
X48766Y-63771D01*
X48861Y-63053D01*
Y-57951D01*
X50630D01*
Y-42959D01*
X41544D01*
Y-57951D01*
X43313D01*
Y-61904D01*
X39488Y-65730D01*
X32228D01*
X31894Y-65294D01*
X31458Y-64960D01*
Y-56884D01*
X31364Y-56166D01*
X31087Y-55497D01*
X30646Y-54923D01*
X25438Y-49715D01*
X24864Y-49274D01*
X24195Y-48997D01*
X23477Y-48902D01*
X14783D01*
X11823Y-45943D01*
Y5278D01*
X13653Y7107D01*
X33967D01*
X34685Y7202D01*
X35354Y7479D01*
X35928Y7920D01*
X39646Y11637D01*
X40087Y12212D01*
X40364Y12881D01*
X40458Y13599D01*
Y15483D01*
X40653D01*
Y16459D01*
X41744D01*
X42462Y16554D01*
X43131Y16831D01*
X43705Y17272D01*
X44073Y17639D01*
X44535Y17448D01*
Y16540D01*
X52834D01*
Y26414D01*
X50513D01*
X50413Y26914D01*
X50777Y27065D01*
X51644Y27730D01*
X52309Y28597D01*
X52728Y29606D01*
X52842Y30477D01*
X44527D01*
X44642Y29606D01*
X45060Y28597D01*
X45725Y27730D01*
X46592Y27065D01*
X46956Y26914D01*
X46857Y26414D01*
X44535D01*
Y24250D01*
X43988D01*
X43270Y24156D01*
X42601Y23879D01*
X42026Y23438D01*
X41115Y22527D01*
X40653Y22718D01*
Y22983D01*
X34716D01*
Y15483D01*
X34911D01*
Y14748D01*
X32818Y12655D01*
X12504D01*
X11786Y12560D01*
X11117Y12283D01*
X10542Y11842D01*
X7088Y8388D01*
X6648Y7814D01*
X6370Y7145D01*
X6276Y6427D01*
Y-47091D01*
X6370Y-47809D01*
X6648Y-48478D01*
X7088Y-49053D01*
X11673Y-53637D01*
X12247Y-54078D01*
X12916Y-54355D01*
X13634Y-54450D01*
X22328D01*
X25911Y-58033D01*
Y-64960D01*
X25475Y-65294D01*
X24754Y-66234D01*
X24301Y-67329D01*
X24146Y-68504D01*
X24301Y-69678D01*
X24754Y-70773D01*
X25475Y-71713D01*
X25911Y-72047D01*
Y-78252D01*
X24185D01*
Y-90252D01*
X25911D01*
Y-95146D01*
X25781Y-95246D01*
X25129Y-96096D01*
X24719Y-97087D01*
X24604Y-97961D01*
X10512D01*
Y-96500D01*
X2012D01*
Y-103474D01*
X-4452D01*
X-7385Y-100541D01*
Y11175D01*
X-3213Y15346D01*
X-2740Y15113D01*
X-2774Y14851D01*
Y5528D01*
X-5000D01*
Y-5527D01*
X-2774D01*
Y-7268D01*
X-4891D01*
Y-18323D01*
X-2665D01*
Y-19364D01*
X-3750D01*
Y-25301D01*
X3750D01*
Y-19364D01*
X2882D01*
Y-18323D01*
X5109D01*
Y-7268D01*
X2773D01*
Y-5527D01*
X5000D01*
Y5528D01*
X2773D01*
Y13702D01*
X4053Y14981D01*
X13534D01*
X14252Y15076D01*
X14921Y15353D01*
X15495Y15794D01*
X23344Y23643D01*
X28849D01*
X29567Y23737D01*
X30236Y24014D01*
X30810Y24455D01*
X35259Y28904D01*
X35700Y29478D01*
X35735Y29564D01*
X36234Y30215D01*
X36573Y31032D01*
X36689Y31910D01*
Y34272D01*
X36573Y35150D01*
X36234Y35968D01*
X35695Y36670D01*
X34993Y37209D01*
X34175Y37548D01*
X33298Y37664D01*
X32420Y37548D01*
X31602Y37209D01*
X30900Y36670D01*
X30361Y35968D01*
X30022Y35150D01*
X29906Y34272D01*
Y31910D01*
X29966Y31456D01*
X27700Y29190D01*
X26219D01*
X25989Y29690D01*
X26392Y30215D01*
X26731Y31032D01*
X26846Y31910D01*
Y32132D01*
X26865Y32178D01*
X26985Y33091D01*
X26865Y34005D01*
X26846Y34050D01*
Y34272D01*
X26731Y35150D01*
X26392Y35968D01*
X25853Y36670D01*
X25151Y37209D01*
X24333Y37548D01*
X23455Y37664D01*
X22577Y37548D01*
X21759Y37209D01*
X21057Y36670D01*
X21020Y36621D01*
X19966D01*
X19052Y36501D01*
X18201Y36149D01*
X17470Y35587D01*
X9073Y27191D01*
X5599D01*
X5500Y27691D01*
X7085Y28347D01*
X8804Y29401D01*
X10337Y30710D01*
X11647Y32244D01*
X12700Y33963D01*
X13472Y35826D01*
X13943Y37787D01*
X14022Y38797D01*
X-11522D01*
X-11442Y37787D01*
X-10971Y35826D01*
X-10199Y33963D01*
X-9146Y32244D01*
X-7836Y30710D01*
X-6303Y29401D01*
X-4584Y28347D01*
X-2721Y27575D01*
X-1563Y27298D01*
X-1522Y26774D01*
X-1656Y26718D01*
X-2387Y26157D01*
X-13411Y15133D01*
X-13972Y14402D01*
X-14325Y13551D01*
X-14445Y12637D01*
Y-101290D01*
X-14325Y-102204D01*
X-13972Y-103055D01*
X-13411Y-103786D01*
X-12680Y-104347D01*
X-11829Y-104700D01*
X-11778Y-104707D01*
X-7845Y-108639D01*
X-7218Y-109120D01*
X-6488Y-109422D01*
X-5705Y-109525D01*
X-1252D01*
Y-117826D01*
X-1097Y-118606D01*
X-654Y-119268D01*
X2709Y-122632D01*
Y-123299D01*
X2209Y-123469D01*
X1971Y-123158D01*
X1031Y-122437D01*
X-64Y-121984D01*
X-238Y-121960D01*
Y-126368D01*
X-1238D01*
D01*
X-238D01*
Y-130775D01*
X-64Y-130752D01*
X1031Y-130298D01*
X1971Y-129577D01*
X2209Y-129267D01*
X2709Y-129436D01*
Y-133919D01*
X2864Y-134700D01*
X3306Y-135361D01*
X6062Y-138117D01*
X6724Y-138559D01*
X7504Y-138715D01*
X12233D01*
X13640Y-140122D01*
X13433Y-140622D01*
X8522D01*
Y-141137D01*
X8133Y-141403D01*
X2196D01*
Y-147340D01*
X8133D01*
X8522Y-147607D01*
Y-148122D01*
X14127D01*
Y-150589D01*
X14282Y-151370D01*
X14724Y-152031D01*
X18452Y-155759D01*
Y-156370D01*
X17522D01*
Y-163870D01*
X23459D01*
Y-156370D01*
X22530D01*
Y-154914D01*
X22375Y-154134D01*
X21933Y-153473D01*
X18205Y-149745D01*
Y-148122D01*
X23459D01*
Y-142475D01*
X23959Y-142376D01*
X24047Y-142588D01*
X24688Y-143423D01*
X35857Y-154591D01*
Y-173828D01*
X23459D01*
Y-172118D01*
X17522D01*
Y-179618D01*
X23459D01*
Y-177907D01*
X35857D01*
Y-214596D01*
X33891D01*
Y-223596D01*
X45891D01*
Y-223130D01*
X64679D01*
Y-223596D01*
X76679D01*
Y-223130D01*
X95468D01*
Y-223596D01*
X107468D01*
Y-223130D01*
X122112D01*
X129036Y-230055D01*
Y-246943D01*
X129036Y-246943D01*
X129174Y-247987D01*
X129577Y-248960D01*
X130218Y-249796D01*
X141935Y-261512D01*
Y-269801D01*
X141313Y-270611D01*
X141218Y-270840D01*
X130720D01*
X130626Y-270611D01*
X129771Y-269498D01*
X128743Y-268709D01*
Y-267739D01*
X128649Y-267021D01*
X128372Y-266352D01*
X127931Y-265777D01*
X124866Y-262713D01*
X124292Y-262272D01*
X123623Y-261995D01*
X122905Y-261901D01*
X117906D01*
Y-259147D01*
X107906D01*
Y-270202D01*
X117906D01*
Y-267448D01*
X121756D01*
X122826Y-268518D01*
X122794Y-269017D01*
X122168Y-269498D01*
X121313Y-270611D01*
X120776Y-271908D01*
X120593Y-273300D01*
Y-276449D01*
X120776Y-277841D01*
X121313Y-279138D01*
X122168Y-280251D01*
X122810Y-280744D01*
X122843Y-281243D01*
X121795Y-282291D01*
X117906D01*
Y-279547D01*
X107906D01*
Y-290602D01*
X117906D01*
Y-287838D01*
X122944D01*
X123662Y-287743D01*
X124331Y-287466D01*
X124905Y-287026D01*
X127970Y-283961D01*
X128410Y-283387D01*
X128687Y-282718D01*
X128782Y-282000D01*
Y-281010D01*
X129771Y-280251D01*
X130626Y-279138D01*
X130720Y-278909D01*
X141218D01*
X141313Y-279138D01*
X142167Y-280251D01*
X143281Y-281106D01*
X144578Y-281643D01*
X145969Y-281826D01*
X147361Y-281643D01*
X148658Y-281106D01*
X149771Y-280251D01*
X150626Y-279138D01*
X151163Y-277841D01*
X151346Y-276449D01*
Y-273300D01*
X151163Y-271908D01*
X150626Y-270611D01*
X150004Y-269801D01*
Y-259841D01*
X149866Y-258797D01*
X149463Y-257824D01*
X148822Y-256988D01*
X137105Y-245271D01*
Y-228384D01*
X137105Y-228384D01*
X136968Y-227339D01*
X136565Y-226366D01*
X135924Y-225531D01*
X135924Y-225531D01*
X126636Y-216243D01*
X125800Y-215602D01*
X124827Y-215199D01*
X123783Y-215061D01*
X123783Y-215061D01*
X107468D01*
Y-214596D01*
X106003D01*
Y-212695D01*
X109545Y-209153D01*
X128528D01*
X143603Y-224228D01*
Y-239764D01*
X143603Y-239764D01*
X143741Y-240808D01*
X144144Y-241781D01*
X144785Y-242617D01*
X163683Y-261514D01*
X163683Y-261514D01*
X164518Y-262155D01*
X165491Y-262559D01*
X166535Y-262696D01*
X220186D01*
X228918Y-271428D01*
Y-277565D01*
X240761D01*
Y-265722D01*
X234624D01*
X224710Y-255809D01*
X223875Y-255167D01*
X222902Y-254764D01*
X221858Y-254627D01*
X221858Y-254627D01*
X168207D01*
X151672Y-238093D01*
Y-222557D01*
X151535Y-221513D01*
X151132Y-220540D01*
X150491Y-219704D01*
X133052Y-202265D01*
X132216Y-201624D01*
X131243Y-201221D01*
X130199Y-201084D01*
X130199Y-201084D01*
X107874D01*
X106830Y-201221D01*
X105857Y-201624D01*
X105021Y-202265D01*
X105021Y-202265D01*
X99116Y-208171D01*
X98475Y-209006D01*
X98071Y-209979D01*
X97934Y-211024D01*
X97934Y-211024D01*
Y-214596D01*
X95468D01*
Y-215061D01*
X76679D01*
Y-214596D01*
X64679D01*
Y-215061D01*
X45891D01*
Y-214596D01*
X43925D01*
Y-175868D01*
Y-152920D01*
X43925Y-152920D01*
X43788Y-151876D01*
X43385Y-150903D01*
X42744Y-150067D01*
X42744Y-150067D01*
X31576Y-138899D01*
Y-131868D01*
X32291D01*
Y-120868D01*
X22791D01*
Y-122333D01*
X15780D01*
X14936Y-121984D01*
X13761Y-121829D01*
X12587Y-121984D01*
X11492Y-122437D01*
X10552Y-123158D01*
X10288Y-123503D01*
X9788Y-123333D01*
Y-120544D01*
X9632Y-119764D01*
X9190Y-119102D01*
X8301Y-118213D01*
Y-116500D01*
X10512D01*
Y-109525D01*
X11693D01*
X21236Y-119069D01*
X21236Y-119069D01*
X21863Y-119550D01*
X22592Y-119852D01*
X23376Y-119955D01*
X23376Y-119955D01*
X52083D01*
X59358Y-127230D01*
X59365Y-127281D01*
X59718Y-128133D01*
X60278Y-128864D01*
X61010Y-129425D01*
X61861Y-129778D01*
X62775Y-129898D01*
X179183D01*
X179649Y-130505D01*
X180642Y-131267D01*
X181797Y-131745D01*
X183037Y-131909D01*
X184277Y-131745D01*
X185433Y-131267D01*
X186425Y-130505D01*
X186891Y-129898D01*
X193425D01*
X193947Y-130298D01*
X195042Y-130752D01*
X196217Y-130906D01*
X197391Y-130752D01*
X198486Y-130298D01*
X199426Y-129577D01*
X200148Y-128637D01*
X200601Y-127542D01*
X200756Y-126368D01*
X200601Y-125193D01*
X200148Y-124098D01*
X199426Y-123158D01*
X198486Y-122437D01*
X197391Y-121984D01*
X196217Y-121829D01*
X195042Y-121984D01*
X193947Y-122437D01*
X193425Y-122837D01*
X186891D01*
X186425Y-122230D01*
X185433Y-121469D01*
X184277Y-120990D01*
X183037Y-120827D01*
X181797Y-120990D01*
X180642Y-121469D01*
X179649Y-122230D01*
X179183Y-122837D01*
X63524D01*
X55476Y-114789D01*
X54849Y-114309D01*
X54119Y-114006D01*
X53336Y-113903D01*
X24629D01*
X15086Y-104360D01*
X14459Y-103879D01*
X13729Y-103577D01*
X12946Y-103474D01*
X10512D01*
Y-102039D01*
X24604D01*
X24719Y-102913D01*
X25129Y-103903D01*
X25781Y-104753D01*
X25911Y-104853D01*
Y-105664D01*
X26006Y-106381D01*
X26283Y-107050D01*
X26723Y-107625D01*
X29683Y-110584D01*
X30257Y-111025D01*
X30926Y-111302D01*
X31644Y-111397D01*
X56687D01*
X63393Y-118103D01*
X63968Y-118544D01*
X64636Y-118821D01*
X65354Y-118915D01*
X170582D01*
X171300Y-118821D01*
X171969Y-118544D01*
X172543Y-118103D01*
X183566Y-107080D01*
X184007Y-106506D01*
X184284Y-105837D01*
X184379Y-105119D01*
Y-97173D01*
X191779Y-89773D01*
X192673D01*
X193007Y-90209D01*
X193947Y-90930D01*
X195042Y-91384D01*
X196217Y-91539D01*
X197391Y-91384D01*
X198486Y-90930D01*
X199426Y-90209D01*
X199761Y-89773D01*
X213304D01*
X213422Y-90059D01*
X214090Y-90930D01*
X214961Y-91598D01*
X215332Y-91751D01*
X215232Y-92251D01*
X212895D01*
Y-96188D01*
X221233D01*
Y-92251D01*
X218896D01*
X218796Y-91751D01*
X219167Y-91598D01*
X220038Y-90930D01*
X220706Y-90059D01*
X221126Y-89044D01*
X221269Y-87956D01*
Y-86421D01*
X221126Y-85332D01*
X220706Y-84318D01*
X220038Y-83447D01*
X219167Y-82779D01*
X218152Y-82359D01*
X217064Y-82215D01*
X215976Y-82359D01*
X214961Y-82779D01*
X214090Y-83447D01*
X213493Y-84226D01*
X199761D01*
X199426Y-83790D01*
X198486Y-83069D01*
X197391Y-82616D01*
X196217Y-82461D01*
X195042Y-82616D01*
X193947Y-83069D01*
X193007Y-83790D01*
X192673Y-84226D01*
X190630D01*
X189912Y-84320D01*
X189243Y-84598D01*
X188668Y-85038D01*
X179643Y-94063D01*
X179203Y-94638D01*
X178926Y-95307D01*
X178831Y-96025D01*
Y-103970D01*
X169433Y-113368D01*
X66503D01*
X59797Y-106662D01*
X59410Y-106365D01*
X59550Y-105842D01*
X59747Y-105816D01*
X60738Y-105406D01*
X61588Y-104753D01*
X62241Y-103903D01*
X62651Y-102913D01*
X62791Y-101850D01*
Y-98149D01*
X62651Y-97087D01*
X62241Y-96096D01*
X61588Y-95246D01*
X60738Y-94593D01*
X60724Y-94588D01*
Y-87684D01*
X61186Y-87493D01*
X66645Y-92953D01*
Y-94588D01*
X66632Y-94593D01*
X65781Y-95246D01*
X65129Y-96096D01*
X64719Y-97087D01*
X64579Y-98149D01*
Y-101850D01*
X64719Y-102913D01*
X65129Y-103903D01*
X65781Y-104753D01*
X66632Y-105406D01*
X67622Y-105816D01*
X68685Y-105956D01*
X69747Y-105816D01*
X70738Y-105406D01*
X71588Y-104753D01*
X72241Y-103903D01*
X72651Y-102913D01*
X72791Y-101850D01*
Y-98149D01*
X72651Y-97087D01*
X72241Y-96096D01*
X71588Y-95246D01*
X70738Y-94593D01*
X70724Y-94588D01*
Y-92108D01*
X70569Y-91328D01*
X70127Y-90666D01*
X70127Y-90666D01*
X63724Y-84263D01*
Y-19816D01*
X66330Y-17210D01*
X176115D01*
X176895Y-17055D01*
X177557Y-16613D01*
X184432Y-9738D01*
X184875Y-9076D01*
X185030Y-8296D01*
Y10637D01*
X184875Y11417D01*
X184432Y12079D01*
X176138Y20373D01*
X175477Y20815D01*
X174696Y20970D01*
X161441D01*
X154360Y28051D01*
Y42954D01*
X154205Y43735D01*
X153763Y44396D01*
X141206Y56954D01*
X140544Y57396D01*
X140257Y57453D01*
X140307Y57953D01*
X413107D01*
Y-293319D01*
D02*
G37*
%LPC*%
G36*
X286278Y49485D02*
X280668D01*
Y47516D01*
X286278D01*
Y49485D01*
D02*
G37*
G36*
X278668D02*
X273058D01*
Y47516D01*
X278668D01*
Y49485D01*
D02*
G37*
G36*
X361565Y56749D02*
X233194D01*
X232476Y56655D01*
X231807Y56378D01*
X231233Y55937D01*
X207636Y32339D01*
X207195Y31765D01*
X206918Y31096D01*
X206823Y30378D01*
Y-1938D01*
X184702Y-24059D01*
X75827D01*
Y-19337D01*
X66741D01*
Y-34329D01*
X75827D01*
Y-29607D01*
X185851D01*
X186569Y-29512D01*
X187238Y-29235D01*
X187812Y-28794D01*
X211558Y-5048D01*
X211999Y-4473D01*
X212276Y-3804D01*
X212371Y-3087D01*
Y29229D01*
X234343Y51202D01*
X360417D01*
X362847Y48772D01*
Y48058D01*
X360871D01*
Y43652D01*
X360370Y43619D01*
X360248Y44548D01*
X359770Y45704D01*
X359008Y46696D01*
X358016Y47457D01*
X356860Y47936D01*
X355621Y48099D01*
X354380Y47936D01*
X353225Y47457D01*
X352233Y46696D01*
X351471Y45704D01*
X351317Y45332D01*
X332786D01*
X332068Y45237D01*
X331399Y44960D01*
X330825Y44519D01*
X326619Y40313D01*
X318857D01*
Y49465D01*
X291266D01*
Y25615D01*
X318857D01*
Y34766D01*
X327767D01*
X328485Y34861D01*
X329154Y35138D01*
X329729Y35578D01*
X333935Y39785D01*
X351317D01*
X351471Y39413D01*
X352233Y38420D01*
X353225Y37659D01*
X354380Y37181D01*
X355621Y37017D01*
X356860Y37181D01*
X358016Y37659D01*
X359008Y38420D01*
X359770Y39413D01*
X360248Y40568D01*
X360370Y41497D01*
X360871Y41464D01*
Y37058D01*
X362847D01*
Y35747D01*
X362941Y35029D01*
X363218Y34360D01*
X363659Y33786D01*
X365116Y32329D01*
X365690Y31888D01*
X366359Y31611D01*
X367077Y31517D01*
X368684D01*
X368777Y31424D01*
Y30922D01*
X365620D01*
X364903Y30828D01*
X364234Y30551D01*
X363659Y30110D01*
X358659Y25110D01*
X358218Y24536D01*
X357941Y23867D01*
X357847Y23149D01*
Y18598D01*
X357380Y18239D01*
X356652Y17290D01*
X356194Y16185D01*
X356038Y14999D01*
X356194Y13813D01*
X356652Y12708D01*
X357380Y11759D01*
X358329Y11031D01*
X359435Y10573D01*
X360620Y10417D01*
X361807Y10573D01*
X362912Y11031D01*
X363861Y11759D01*
X364589Y12708D01*
X365047Y13813D01*
X365203Y14999D01*
X365047Y16185D01*
X364589Y17290D01*
X363861Y18239D01*
X363394Y18598D01*
Y22000D01*
X366770Y25375D01*
X376331D01*
X376932Y24775D01*
Y18336D01*
Y11249D01*
X382869D01*
Y18336D01*
Y25836D01*
X382660D01*
X382579Y26447D01*
X382302Y27116D01*
X381861Y27690D01*
X379441Y30110D01*
X378867Y30551D01*
X378198Y30828D01*
X377480Y30922D01*
X374324D01*
Y32573D01*
X374230Y33291D01*
X373953Y33960D01*
X373512Y34535D01*
X371795Y36252D01*
X371220Y36693D01*
X370793Y36870D01*
X370371Y37058D01*
Y48058D01*
X368394D01*
Y49920D01*
X368300Y50638D01*
X368023Y51307D01*
X367582Y51882D01*
X363527Y55937D01*
X362952Y56378D01*
X362283Y56655D01*
X361565Y56749D01*
D02*
G37*
G36*
X286278Y45516D02*
X280668D01*
Y43548D01*
X286278D01*
Y45516D01*
D02*
G37*
G36*
X278668D02*
X273058D01*
Y43548D01*
X278668D01*
Y45516D01*
D02*
G37*
G36*
X395951Y52569D02*
Y40797D01*
X407723D01*
X407644Y41807D01*
X407173Y43768D01*
X406401Y45631D01*
X405348Y47351D01*
X404038Y48884D01*
X402505Y50194D01*
X400785Y51247D01*
X398922Y52019D01*
X396961Y52490D01*
X395951Y52569D01*
D02*
G37*
G36*
X393951D02*
X392941Y52490D01*
X390980Y52019D01*
X389117Y51247D01*
X387398Y50194D01*
X385864Y48884D01*
X384555Y47351D01*
X383501Y45631D01*
X382730Y43768D01*
X382259Y41807D01*
X382179Y40797D01*
X393951D01*
Y52569D01*
D02*
G37*
G36*
X2251D02*
Y40797D01*
X14022D01*
X13943Y41807D01*
X13472Y43768D01*
X12700Y45631D01*
X11647Y47351D01*
X10337Y48884D01*
X8804Y50194D01*
X7085Y51247D01*
X5221Y52019D01*
X3261Y52490D01*
X2251Y52569D01*
D02*
G37*
G36*
X250D02*
X-760Y52490D01*
X-2721Y52019D01*
X-4584Y51247D01*
X-6303Y50194D01*
X-7836Y48884D01*
X-9146Y47351D01*
X-10199Y45631D01*
X-10971Y43768D01*
X-11442Y41807D01*
X-11522Y40797D01*
X250D01*
Y52569D01*
D02*
G37*
G36*
X272373Y39400D02*
X270404D01*
Y36650D01*
X272373D01*
Y39400D01*
D02*
G37*
G36*
X268404D02*
X266436D01*
Y36650D01*
X268404D01*
Y39400D01*
D02*
G37*
G36*
X49685Y36318D02*
Y32477D01*
X52842D01*
X52728Y33347D01*
X52309Y34357D01*
X51644Y35224D01*
X50777Y35889D01*
X49768Y36307D01*
X49685Y36318D01*
D02*
G37*
G36*
X47685D02*
X47602Y36307D01*
X46592Y35889D01*
X45725Y35224D01*
X45060Y34357D01*
X44642Y33347D01*
X44527Y32477D01*
X47685D01*
Y36318D01*
D02*
G37*
G36*
X407723Y38797D02*
X395951D01*
Y27025D01*
X396961Y27105D01*
X398922Y27575D01*
X400785Y28347D01*
X402505Y29401D01*
X404038Y30710D01*
X405348Y32244D01*
X406401Y33963D01*
X407173Y35826D01*
X407644Y37787D01*
X407723Y38797D01*
D02*
G37*
G36*
X393951D02*
X382179D01*
X382259Y37787D01*
X382730Y35826D01*
X383501Y33963D01*
X384555Y32244D01*
X385864Y30710D01*
X387398Y29401D01*
X389117Y28347D01*
X390980Y27575D01*
X392941Y27105D01*
X393951Y27025D01*
Y38797D01*
D02*
G37*
G36*
X272373Y34650D02*
X269404D01*
X266436D01*
Y32313D01*
X266435D01*
Y24813D01*
X272372D01*
Y26524D01*
X273058D01*
Y25595D01*
X286278D01*
Y31532D01*
X273058D01*
Y30602D01*
X272372D01*
Y31900D01*
X272373D01*
Y34650D01*
D02*
G37*
G36*
X391869Y25836D02*
X389900D01*
Y23086D01*
X391869D01*
Y25836D01*
D02*
G37*
G36*
X387900D02*
X385932D01*
Y23086D01*
X387900D01*
Y25836D01*
D02*
G37*
G36*
X31653Y22983D02*
X29685D01*
Y20233D01*
X31653D01*
Y22983D01*
D02*
G37*
G36*
X27685D02*
X25716D01*
Y20233D01*
X27685D01*
Y22983D01*
D02*
G37*
G36*
X391869Y21086D02*
X388900D01*
X385932D01*
Y18336D01*
Y15999D01*
X388900D01*
X391869D01*
Y18336D01*
Y21086D01*
D02*
G37*
G36*
X371620Y19450D02*
Y15999D01*
X375071D01*
X375047Y16185D01*
X374589Y17290D01*
X373861Y18239D01*
X372912Y18968D01*
X371807Y19425D01*
X371620Y19450D01*
D02*
G37*
G36*
X369620D02*
X369434Y19425D01*
X368329Y18968D01*
X367380Y18239D01*
X366652Y17290D01*
X366194Y16185D01*
X366170Y15999D01*
X369620D01*
Y19450D01*
D02*
G37*
G36*
X31653Y18233D02*
X29685D01*
Y15483D01*
X31653D01*
Y18233D01*
D02*
G37*
G36*
X27685D02*
X25716D01*
Y15483D01*
X27685D01*
Y18233D01*
D02*
G37*
G36*
X391869Y13999D02*
X389900D01*
Y11249D01*
X391869D01*
Y13999D01*
D02*
G37*
G36*
X387900D02*
X385932D01*
Y11249D01*
X387900D01*
Y13999D01*
D02*
G37*
G36*
X375071Y13999D02*
X371620D01*
Y10548D01*
X371807Y10573D01*
X372912Y11031D01*
X373861Y11759D01*
X374589Y12708D01*
X375047Y13813D01*
X375071Y13999D01*
D02*
G37*
G36*
X369620D02*
X366170D01*
X366194Y13813D01*
X366652Y12708D01*
X367380Y11759D01*
X368329Y11031D01*
X369434Y10573D01*
X369620Y10548D01*
Y13999D01*
D02*
G37*
G36*
X28685Y5957D02*
X27622Y5817D01*
X26632Y5407D01*
X25781Y4754D01*
X25229Y4035D01*
X23000D01*
Y5528D01*
X13000D01*
Y-5527D01*
X23000D01*
Y-4034D01*
X25229D01*
X25781Y-4753D01*
X26632Y-5406D01*
X27622Y-5816D01*
X28685Y-5956D01*
X29747Y-5816D01*
X30738Y-5406D01*
X31588Y-4753D01*
X32241Y-3903D01*
X32651Y-2913D01*
X32791Y-1850D01*
Y1851D01*
X32651Y2913D01*
X32241Y3904D01*
X31588Y4754D01*
X30738Y5407D01*
X29747Y5817D01*
X28685Y5957D01*
D02*
G37*
G36*
X39685Y5825D02*
Y1000D01*
X42791D01*
Y1851D01*
X42651Y2913D01*
X42241Y3904D01*
X41588Y4754D01*
X40738Y5407D01*
X39747Y5817D01*
X39685Y5825D01*
D02*
G37*
G36*
X37685Y5825D02*
X37622Y5817D01*
X36632Y5407D01*
X35781Y4754D01*
X35129Y3904D01*
X34719Y2913D01*
X34579Y1851D01*
Y1000D01*
X37685D01*
Y5825D01*
D02*
G37*
G36*
X42791Y-1000D02*
X39685D01*
Y-5824D01*
X39747Y-5816D01*
X40738Y-5406D01*
X41588Y-4753D01*
X42241Y-3903D01*
X42651Y-2913D01*
X42791Y-1850D01*
Y-1000D01*
D02*
G37*
G36*
X37685D02*
X34579D01*
Y-1850D01*
X34719Y-2913D01*
X35129Y-3903D01*
X35781Y-4753D01*
X36632Y-5406D01*
X37622Y-5816D01*
X37685Y-5824D01*
Y-1000D01*
D02*
G37*
G36*
X172756Y5922D02*
X164614D01*
Y-5921D01*
X172756D01*
Y5922D01*
D02*
G37*
G36*
X158685Y5957D02*
X157622Y5817D01*
X156632Y5407D01*
X155781Y4754D01*
X155129Y3904D01*
X154719Y2913D01*
X154579Y1851D01*
Y-1850D01*
X154719Y-2913D01*
X155129Y-3903D01*
X155781Y-4753D01*
X156632Y-5406D01*
X157622Y-5816D01*
X158685Y-5956D01*
X159747Y-5816D01*
X160738Y-5406D01*
X161588Y-4753D01*
X162241Y-3903D01*
X162651Y-2913D01*
X162791Y-1850D01*
Y1851D01*
X162651Y2913D01*
X162241Y3904D01*
X161588Y4754D01*
X160738Y5407D01*
X159747Y5817D01*
X158685Y5957D01*
D02*
G37*
G36*
X313650Y-12152D02*
X312469D01*
Y-15203D01*
X313650D01*
Y-12152D01*
D02*
G37*
G36*
X370764D02*
X369583D01*
Y-15203D01*
X370764D01*
Y-12152D01*
D02*
G37*
G36*
X367583D02*
X366402D01*
Y-15203D01*
X367583D01*
Y-12152D01*
D02*
G37*
G36*
X310469D02*
X309288D01*
Y-15203D01*
X310469D01*
Y-12152D01*
D02*
G37*
G36*
X370764Y-17203D02*
X369583D01*
Y-20254D01*
X370764D01*
Y-17203D01*
D02*
G37*
G36*
X367583D02*
X366402D01*
Y-20254D01*
X367583D01*
Y-17203D01*
D02*
G37*
G36*
X345764Y-12152D02*
X341402D01*
Y-20254D01*
X345764D01*
Y-12152D01*
D02*
G37*
G36*
X340764D02*
X336402D01*
Y-20254D01*
X340764D01*
Y-12152D01*
D02*
G37*
G36*
X335764D02*
X331401D01*
Y-20254D01*
X335764D01*
Y-12152D01*
D02*
G37*
G36*
X313650Y-17203D02*
X312469D01*
Y-20254D01*
X313650D01*
Y-17203D01*
D02*
G37*
G36*
X310469D02*
X309288D01*
Y-20254D01*
X310469D01*
Y-17203D01*
D02*
G37*
G36*
X308650Y-12152D02*
X304288D01*
Y-20254D01*
X308650D01*
Y-12152D01*
D02*
G37*
G36*
X303650D02*
X299288D01*
Y-20254D01*
X303650D01*
Y-12152D01*
D02*
G37*
G36*
X298650D02*
X294288D01*
Y-20254D01*
X298650D01*
Y-12152D01*
D02*
G37*
G36*
X293650D02*
X289288D01*
Y-20254D01*
X293650D01*
Y-12152D01*
D02*
G37*
G36*
X288650D02*
X284288D01*
Y-20254D01*
X288650D01*
Y-12152D01*
D02*
G37*
G36*
X283650D02*
X279288D01*
Y-20254D01*
X283650D01*
Y-12152D01*
D02*
G37*
G36*
X3750Y-28364D02*
X1000D01*
Y-30333D01*
X3750D01*
Y-28364D01*
D02*
G37*
G36*
X-1000D02*
X-3750D01*
Y-30333D01*
X-1000D01*
Y-28364D01*
D02*
G37*
G36*
X3750Y-32333D02*
X1000D01*
Y-34301D01*
X3750D01*
Y-32333D01*
D02*
G37*
G36*
X-1000D02*
X-3750D01*
Y-34301D01*
X-1000D01*
Y-32333D01*
D02*
G37*
G36*
X23109Y-7268D02*
X13109D01*
Y-18323D01*
X23109D01*
Y-15569D01*
X27001D01*
X29510Y-18078D01*
Y-22835D01*
X29604Y-23552D01*
X29881Y-24221D01*
X30322Y-24796D01*
X34320Y-28794D01*
X34895Y-29235D01*
X35564Y-29512D01*
X36282Y-29607D01*
X41544D01*
Y-34329D01*
X50630D01*
Y-19337D01*
X41544D01*
Y-24059D01*
X37431D01*
X35057Y-21686D01*
Y-16929D01*
X34963Y-16211D01*
X34686Y-15542D01*
X34245Y-14968D01*
X30111Y-10834D01*
X29537Y-10393D01*
X28868Y-10116D01*
X28150Y-10022D01*
X23109D01*
Y-7268D01*
D02*
G37*
G36*
X386878Y-33713D02*
X384909D01*
Y-36463D01*
X386878D01*
Y-33713D01*
D02*
G37*
G36*
Y-38463D02*
X384909D01*
Y-41213D01*
X386878D01*
Y-38463D01*
D02*
G37*
G36*
X263373Y39400D02*
X257436D01*
Y32313D01*
X257435D01*
Y24813D01*
X258365D01*
Y7369D01*
X258520Y6589D01*
X258962Y5928D01*
X263637Y1253D01*
X264298Y811D01*
X265079Y656D01*
X309510D01*
X314221Y-4055D01*
Y-22028D01*
X310668Y-25581D01*
X294606D01*
X293826Y-25736D01*
X293164Y-26178D01*
X290027Y-29315D01*
X289585Y-29977D01*
X289430Y-30757D01*
Y-33411D01*
X289288D01*
Y-41073D01*
X289237Y-41115D01*
X288973Y-41265D01*
X288650Y-41073D01*
Y-33411D01*
X284288D01*
Y-41073D01*
X283947Y-41275D01*
X283915Y-41262D01*
X283650Y-41073D01*
Y-33411D01*
X279288D01*
Y-35423D01*
X279252D01*
X278471Y-35579D01*
X277810Y-36021D01*
X276027Y-37804D01*
X275585Y-38465D01*
X275430Y-39246D01*
Y-41587D01*
X274501D01*
Y-49650D01*
X272133D01*
X259953Y-37470D01*
X259379Y-37029D01*
X258710Y-36752D01*
X257992Y-36658D01*
X169315D01*
X168597Y-36752D01*
X167928Y-37029D01*
X167354Y-37470D01*
X157143Y-47681D01*
X75827D01*
Y-42959D01*
X66741D01*
Y-57951D01*
X75827D01*
Y-53228D01*
X158292D01*
X159010Y-53134D01*
X159678Y-52857D01*
X160253Y-52416D01*
X170464Y-42205D01*
X256843D01*
X268210Y-53572D01*
Y-74377D01*
X268305Y-75094D01*
X268582Y-75763D01*
X268642Y-75842D01*
X268265Y-76172D01*
X267523Y-75429D01*
Y-63982D01*
X267367Y-63202D01*
X266925Y-62540D01*
X266925Y-62540D01*
X251905Y-47520D01*
X251243Y-47078D01*
X250463Y-46922D01*
X174590Y-46922D01*
X173810Y-47078D01*
X173148Y-47520D01*
X158541Y-62127D01*
X106030D01*
X105250Y-62282D01*
X104588Y-62724D01*
X77243Y-90070D01*
X76801Y-90731D01*
X76645Y-91512D01*
Y-94588D01*
X76632Y-94593D01*
X75781Y-95246D01*
X75129Y-96096D01*
X74719Y-97087D01*
X74579Y-98149D01*
Y-101850D01*
X74719Y-102913D01*
X75129Y-103903D01*
X75781Y-104753D01*
X76632Y-105406D01*
X77622Y-105816D01*
X78685Y-105956D01*
X79747Y-105816D01*
X80738Y-105406D01*
X81588Y-104753D01*
X82241Y-103903D01*
X82651Y-102913D01*
X82791Y-101850D01*
Y-98149D01*
X82651Y-97087D01*
X82241Y-96096D01*
X81588Y-95246D01*
X80738Y-94593D01*
X80724Y-94588D01*
Y-92356D01*
X106875Y-66205D01*
X110454D01*
X110645Y-66667D01*
X87243Y-90070D01*
X86801Y-90731D01*
X86646Y-91512D01*
Y-94588D01*
X86632Y-94593D01*
X85781Y-95246D01*
X85129Y-96096D01*
X84719Y-97087D01*
X84579Y-98149D01*
Y-101850D01*
X84719Y-102913D01*
X85129Y-103903D01*
X85781Y-104753D01*
X86632Y-105406D01*
X87622Y-105816D01*
X88685Y-105956D01*
X89747Y-105816D01*
X90738Y-105406D01*
X91588Y-104753D01*
X92241Y-103903D01*
X92651Y-102913D01*
X92791Y-101850D01*
Y-98149D01*
X92651Y-97087D01*
X92241Y-96096D01*
X91588Y-95246D01*
X90738Y-94593D01*
X90724Y-94588D01*
Y-92356D01*
X113875Y-69205D01*
X117454D01*
X117645Y-69667D01*
X97243Y-90070D01*
X96801Y-90731D01*
X96645Y-91512D01*
Y-94588D01*
X96632Y-94593D01*
X95781Y-95246D01*
X95129Y-96096D01*
X94719Y-97087D01*
X94579Y-98149D01*
Y-101850D01*
X94719Y-102913D01*
X95129Y-103903D01*
X95781Y-104753D01*
X96632Y-105406D01*
X97622Y-105816D01*
X98685Y-105956D01*
X99747Y-105816D01*
X100738Y-105406D01*
X101588Y-104753D01*
X102241Y-103903D01*
X102651Y-102913D01*
X102791Y-101850D01*
Y-98149D01*
X102651Y-97087D01*
X102241Y-96096D01*
X101588Y-95246D01*
X100738Y-94593D01*
X100724Y-94588D01*
Y-92356D01*
X120875Y-72205D01*
X124454D01*
X124645Y-72667D01*
X107243Y-90070D01*
X106801Y-90731D01*
X106646Y-91512D01*
Y-94588D01*
X106632Y-94593D01*
X105781Y-95246D01*
X105129Y-96096D01*
X104719Y-97087D01*
X104579Y-98149D01*
Y-101850D01*
X104719Y-102913D01*
X105129Y-103903D01*
X105781Y-104753D01*
X106632Y-105406D01*
X107622Y-105816D01*
X108685Y-105956D01*
X109747Y-105816D01*
X110738Y-105406D01*
X111588Y-104753D01*
X112241Y-103903D01*
X112651Y-102913D01*
X112791Y-101850D01*
Y-98149D01*
X112651Y-97087D01*
X112241Y-96096D01*
X111588Y-95246D01*
X110738Y-94593D01*
X110724Y-94588D01*
Y-92356D01*
X127697Y-75384D01*
X131276D01*
X131467Y-75846D01*
X117243Y-90070D01*
X116801Y-90731D01*
X116646Y-91512D01*
Y-94588D01*
X116632Y-94593D01*
X115781Y-95246D01*
X115129Y-96096D01*
X114719Y-97087D01*
X114579Y-98149D01*
Y-101850D01*
X114719Y-102913D01*
X115129Y-103903D01*
X115781Y-104753D01*
X116632Y-105406D01*
X117622Y-105816D01*
X118685Y-105956D01*
X119747Y-105816D01*
X120738Y-105406D01*
X121588Y-104753D01*
X122241Y-103903D01*
X122651Y-102913D01*
X122791Y-101850D01*
Y-98149D01*
X122651Y-97087D01*
X122241Y-96096D01*
X121588Y-95246D01*
X120738Y-94593D01*
X120724Y-94588D01*
Y-92356D01*
X134696Y-78384D01*
X138276D01*
X138467Y-78846D01*
X127243Y-90070D01*
X126801Y-90731D01*
X126646Y-91512D01*
Y-94588D01*
X126632Y-94593D01*
X125781Y-95246D01*
X125129Y-96096D01*
X124719Y-97087D01*
X124579Y-98149D01*
Y-101850D01*
X124719Y-102913D01*
X125129Y-103903D01*
X125781Y-104753D01*
X126632Y-105406D01*
X127622Y-105816D01*
X128685Y-105956D01*
X129747Y-105816D01*
X130738Y-105406D01*
X131588Y-104753D01*
X132241Y-103903D01*
X132651Y-102913D01*
X132791Y-101850D01*
Y-98149D01*
X132651Y-97087D01*
X132241Y-96096D01*
X131588Y-95246D01*
X130738Y-94593D01*
X130724Y-94588D01*
Y-92356D01*
X141493Y-81587D01*
X160331D01*
X160522Y-82049D01*
X157243Y-85328D01*
X156801Y-85990D01*
X156646Y-86770D01*
Y-94588D01*
X156632Y-94593D01*
X155781Y-95246D01*
X155129Y-96096D01*
X154719Y-97087D01*
X154579Y-98149D01*
Y-101850D01*
X154719Y-102913D01*
X155129Y-103903D01*
X155781Y-104753D01*
X156632Y-105406D01*
X157622Y-105816D01*
X158685Y-105956D01*
X159747Y-105816D01*
X160738Y-105406D01*
X161588Y-104753D01*
X162241Y-103903D01*
X162651Y-102913D01*
X162791Y-101850D01*
Y-98149D01*
X162651Y-97087D01*
X162241Y-96096D01*
X161588Y-95246D01*
X160738Y-94593D01*
X160724Y-94588D01*
Y-87615D01*
X163752Y-84587D01*
X166456D01*
X166646Y-84817D01*
Y-94588D01*
X166632Y-94593D01*
X165781Y-95246D01*
X165129Y-96096D01*
X164719Y-97087D01*
X164579Y-98149D01*
Y-101850D01*
X164719Y-102913D01*
X165129Y-103903D01*
X165781Y-104753D01*
X166632Y-105406D01*
X167622Y-105816D01*
X168685Y-105956D01*
X169747Y-105816D01*
X170738Y-105406D01*
X171588Y-104753D01*
X172241Y-103903D01*
X172651Y-102913D01*
X172791Y-101850D01*
Y-98149D01*
X172651Y-97087D01*
X172241Y-96096D01*
X171588Y-95246D01*
X170738Y-94593D01*
X170724Y-94588D01*
Y-85662D01*
X184207Y-72179D01*
X240846Y-72179D01*
X242149Y-73482D01*
Y-75045D01*
X240713Y-76481D01*
X236673D01*
X235893Y-76637D01*
X235231Y-77079D01*
X232829Y-79482D01*
X228745D01*
X227965Y-79637D01*
X227304Y-80079D01*
X225622Y-81760D01*
X225326Y-82203D01*
X224773Y-82432D01*
X223824Y-83161D01*
X223095Y-84110D01*
X222638Y-85215D01*
X222481Y-86401D01*
Y-87976D01*
X222638Y-89162D01*
X223095Y-90267D01*
X223824Y-91216D01*
X224728Y-91910D01*
X224760Y-92188D01*
X224728Y-92467D01*
X223824Y-93160D01*
X223095Y-94110D01*
X222638Y-95215D01*
X222481Y-96401D01*
Y-97976D01*
X222638Y-99162D01*
X223095Y-100267D01*
X223824Y-101216D01*
X224773Y-101944D01*
X225326Y-102173D01*
X225622Y-102616D01*
X227304Y-104298D01*
X227965Y-104740D01*
X228745Y-104895D01*
X232720D01*
X235392Y-107567D01*
X235392Y-107567D01*
X236054Y-108009D01*
X236834Y-108165D01*
X250800D01*
X251581Y-108009D01*
X252242Y-107567D01*
X261497Y-98313D01*
X261497Y-98313D01*
X261939Y-97651D01*
X262094Y-96871D01*
X262094Y-96871D01*
Y-84907D01*
X262556Y-84716D01*
X268808Y-90968D01*
X269469Y-91410D01*
X270250Y-91565D01*
X322559D01*
X323339Y-91410D01*
X324001Y-90968D01*
X330940Y-84029D01*
X331401Y-84220D01*
Y-84963D01*
X335764D01*
Y-81911D01*
X333710D01*
X333519Y-81450D01*
X335459Y-79510D01*
X344491D01*
X345271Y-79355D01*
X345933Y-78913D01*
X348335Y-76510D01*
X353248D01*
X354028Y-76354D01*
X354690Y-75912D01*
X360024Y-70578D01*
X360467Y-69916D01*
X360622Y-69136D01*
Y-68754D01*
X360764D01*
Y-60652D01*
X356401D01*
Y-68087D01*
X356264Y-68179D01*
X355764Y-67912D01*
Y-65703D01*
X353583D01*
Y-64703D01*
X352583D01*
Y-60652D01*
X352474D01*
X352283Y-60190D01*
X355025Y-57448D01*
X355467Y-56786D01*
X355622Y-56006D01*
Y-49087D01*
X361551D01*
Y-43722D01*
X362051Y-43571D01*
X362141Y-43705D01*
X364033Y-45597D01*
X364695Y-46040D01*
X365475Y-46195D01*
X368124D01*
X368316Y-46657D01*
X367141Y-47832D01*
X366699Y-48493D01*
X366543Y-49274D01*
Y-60652D01*
X366402D01*
Y-67813D01*
X365901Y-68081D01*
X365764Y-67988D01*
Y-60652D01*
X361402D01*
Y-68754D01*
X361543D01*
Y-69037D01*
X361699Y-69818D01*
X362141Y-70479D01*
X367574Y-75912D01*
X368235Y-76354D01*
X369016Y-76510D01*
X370927D01*
X371543Y-77126D01*
Y-140209D01*
X369450Y-142303D01*
X365615D01*
Y-149803D01*
X371552D01*
Y-145969D01*
X375025Y-142496D01*
X375025Y-142496D01*
X375467Y-141834D01*
X375622Y-141054D01*
Y-76282D01*
X375467Y-75501D01*
X375025Y-74840D01*
X373214Y-73029D01*
X372552Y-72587D01*
X371772Y-72431D01*
X369860D01*
X366683Y-69254D01*
X366890Y-68754D01*
X370764D01*
Y-60652D01*
X370622D01*
Y-50118D01*
X372839Y-47901D01*
X372839Y-47901D01*
X373282Y-47239D01*
X373437Y-46459D01*
Y-46195D01*
X377320D01*
X378100Y-46040D01*
X378762Y-45597D01*
X380654Y-43705D01*
X381097Y-43043D01*
X381252Y-42263D01*
Y-41213D01*
X382909D01*
Y-37463D01*
Y-33713D01*
X381252D01*
Y-32662D01*
X381252Y-32662D01*
X381097Y-31882D01*
X380654Y-31220D01*
X380654Y-31220D01*
X377187Y-27753D01*
X376525Y-27311D01*
X375745Y-27156D01*
X337050D01*
X337050Y-27156D01*
X336270Y-27311D01*
X335608Y-27753D01*
X335608Y-27753D01*
X332141Y-31220D01*
X331699Y-31882D01*
X331543Y-32662D01*
Y-33411D01*
X331401D01*
Y-41514D01*
X331543D01*
Y-48673D01*
X330614D01*
Y-50384D01*
X329240D01*
Y-49087D01*
Y-41587D01*
X323303D01*
Y-49087D01*
Y-56173D01*
X323498D01*
Y-68428D01*
X316179Y-75747D01*
X276277D01*
X273758Y-73228D01*
Y-70873D01*
X274258Y-70840D01*
X274314Y-71267D01*
X274717Y-72241D01*
X275358Y-73076D01*
X276194Y-73717D01*
X277167Y-74120D01*
X278211Y-74258D01*
X279255Y-74120D01*
X280228Y-73717D01*
X281064Y-73076D01*
X281705Y-72241D01*
X282108Y-71267D01*
X282246Y-70223D01*
Y-67223D01*
X282108Y-66179D01*
X281705Y-65206D01*
X281064Y-64371D01*
X280250Y-63746D01*
Y-62576D01*
X283411Y-59416D01*
X283853Y-58754D01*
X283964Y-58195D01*
X284474D01*
X284585Y-58754D01*
X285027Y-59416D01*
X286957Y-61345D01*
X287618Y-61788D01*
X288399Y-61943D01*
X301129D01*
X301763Y-62576D01*
Y-63746D01*
X300949Y-64371D01*
X300308Y-65206D01*
X299905Y-66179D01*
X299767Y-67223D01*
Y-70223D01*
X299905Y-71267D01*
X300308Y-72241D01*
X300949Y-73076D01*
X301784Y-73717D01*
X302758Y-74120D01*
X303802Y-74258D01*
X304846Y-74120D01*
X305819Y-73717D01*
X306655Y-73076D01*
X307296Y-72241D01*
X307699Y-71267D01*
X307836Y-70223D01*
Y-67223D01*
X307699Y-66179D01*
X307296Y-65206D01*
X306655Y-64371D01*
X305841Y-63746D01*
Y-61732D01*
X305686Y-60951D01*
X305244Y-60290D01*
X303415Y-58462D01*
X302754Y-58020D01*
X301974Y-57864D01*
X289243D01*
X288508Y-57129D01*
Y-56173D01*
X289438D01*
Y-54462D01*
X294107D01*
X294887Y-54307D01*
X295549Y-53865D01*
X297911Y-51503D01*
X297911Y-51503D01*
X298353Y-50841D01*
X298508Y-50061D01*
X298508Y-50061D01*
Y-41514D01*
X298650D01*
Y-33411D01*
X294288D01*
Y-41514D01*
X294430D01*
Y-49216D01*
X293262Y-50384D01*
X289438D01*
Y-49087D01*
Y-42014D01*
X289438Y-41587D01*
X289907Y-41514D01*
X293650D01*
Y-33411D01*
X293508D01*
Y-31602D01*
X295451Y-29659D01*
X300873D01*
X301065Y-30121D01*
X300027Y-31159D01*
X299585Y-31820D01*
X299430Y-32601D01*
Y-33411D01*
X299288D01*
Y-41514D01*
X303650D01*
Y-33411D01*
X303650Y-33411D01*
X303650D01*
X303919Y-33035D01*
X304294Y-32659D01*
X312755D01*
X313536Y-32504D01*
X314197Y-32062D01*
X320702Y-25558D01*
X321144Y-24896D01*
X321299Y-24116D01*
Y-4055D01*
X326010Y656D01*
X346072D01*
X346852Y811D01*
X347514Y1253D01*
X352063Y5801D01*
X352504Y6463D01*
X352660Y7243D01*
Y10456D01*
X355164D01*
Y19542D01*
X346077D01*
Y10456D01*
X348581D01*
Y8088D01*
X345228Y4734D01*
X325165D01*
X324385Y4579D01*
X323723Y4137D01*
X318104Y-1482D01*
X317760Y-1727D01*
X317415Y-1482D01*
X311796Y4137D01*
X311135Y4579D01*
X310354Y4734D01*
X265923D01*
X262443Y8214D01*
Y24813D01*
X263372D01*
Y31900D01*
X263373D01*
Y39400D01*
D02*
G37*
G36*
X313650Y-33411D02*
X309288D01*
Y-41514D01*
X313650D01*
Y-33411D01*
D02*
G37*
G36*
X308650D02*
X304288D01*
Y-41514D01*
X308650D01*
Y-33411D01*
D02*
G37*
G36*
X320240Y-41587D02*
X318271D01*
Y-44337D01*
X320240D01*
Y-41587D01*
D02*
G37*
G36*
X316271D02*
X314303D01*
Y-44337D01*
X316271D01*
Y-41587D01*
D02*
G37*
G36*
X320240Y-46337D02*
X314303D01*
Y-49087D01*
Y-51423D01*
X320240D01*
Y-49087D01*
Y-46337D01*
D02*
G37*
G36*
Y-53423D02*
X318271D01*
Y-56173D01*
X320240D01*
Y-53423D01*
D02*
G37*
G36*
X316271D02*
X314303D01*
Y-56173D01*
X316271D01*
Y-53423D01*
D02*
G37*
G36*
X355764Y-60652D02*
X354583D01*
Y-63703D01*
X355764D01*
Y-60652D01*
D02*
G37*
G36*
X391949Y3104D02*
X360260D01*
X359479Y2949D01*
X358818Y2507D01*
X347141Y-9170D01*
X346699Y-9832D01*
X346543Y-10612D01*
Y-12152D01*
X346402D01*
Y-20254D01*
X350764D01*
Y-12152D01*
X350622D01*
Y-11457D01*
X351043Y-11035D01*
X351543Y-11242D01*
Y-12152D01*
X351401D01*
Y-20254D01*
X355764D01*
Y-12152D01*
X355622D01*
Y-11457D01*
X356043Y-11035D01*
X356543Y-11242D01*
Y-12152D01*
X356401D01*
Y-20254D01*
X360764D01*
Y-12152D01*
X360622D01*
Y-11457D01*
X361043Y-11035D01*
X361543Y-11242D01*
Y-12152D01*
X361402D01*
Y-20254D01*
X365764D01*
Y-12152D01*
X365622D01*
Y-11457D01*
X366711Y-10368D01*
X387213D01*
X391780Y-14934D01*
Y-18902D01*
X389264Y-21417D01*
X388822Y-22078D01*
X388667Y-22859D01*
Y-34744D01*
X388822Y-35524D01*
X389264Y-36186D01*
X391020Y-37942D01*
X391682Y-38384D01*
X392462Y-38539D01*
X392766D01*
X392913Y-38895D01*
X393674Y-39887D01*
X394667Y-40649D01*
X395822Y-41127D01*
X396734Y-41247D01*
Y-41752D01*
X395822Y-41872D01*
X394667Y-42351D01*
X393674Y-43112D01*
X392913Y-44104D01*
X392435Y-45260D01*
X392271Y-46500D01*
X392435Y-47740D01*
X392913Y-48895D01*
X393674Y-49887D01*
X394667Y-50649D01*
X395822Y-51127D01*
X396734Y-51248D01*
Y-51752D01*
X395822Y-51872D01*
X394667Y-52351D01*
X393674Y-53112D01*
X392913Y-54104D01*
X392435Y-55260D01*
X392271Y-56500D01*
X392435Y-57740D01*
X392913Y-58895D01*
X393674Y-59887D01*
X394667Y-60649D01*
X395822Y-61127D01*
X396734Y-61247D01*
Y-61752D01*
X395822Y-61872D01*
X394667Y-62351D01*
X393674Y-63112D01*
X392913Y-64104D01*
X392435Y-65260D01*
X392403Y-65500D01*
X397812D01*
X403222D01*
X403190Y-65260D01*
X402711Y-64104D01*
X401950Y-63112D01*
X400958Y-62351D01*
X399802Y-61872D01*
X398890Y-61752D01*
Y-61247D01*
X399802Y-61127D01*
X400958Y-60649D01*
X401950Y-59887D01*
X402711Y-58895D01*
X402859Y-58539D01*
X403162D01*
X403943Y-58384D01*
X404604Y-57942D01*
X406360Y-56186D01*
X406802Y-55524D01*
X406957Y-54744D01*
Y-49831D01*
X409360Y-47428D01*
X409802Y-46767D01*
X409958Y-45986D01*
Y-21616D01*
X409802Y-20836D01*
X409360Y-20174D01*
X406845Y-17659D01*
Y-11792D01*
X406845Y-11792D01*
X406690Y-11012D01*
X406248Y-10350D01*
X393391Y2507D01*
X392729Y2949D01*
X391949Y3104D01*
D02*
G37*
G36*
X14685Y-64096D02*
Y-67504D01*
X18092D01*
X18069Y-67329D01*
X17616Y-66234D01*
X16894Y-65294D01*
X15954Y-64573D01*
X14860Y-64119D01*
X14685Y-64096D01*
D02*
G37*
G36*
X12685D02*
X12510Y-64119D01*
X11415Y-64573D01*
X10475Y-65294D01*
X9754Y-66234D01*
X9301Y-67329D01*
X9278Y-67504D01*
X12685D01*
Y-64096D01*
D02*
G37*
G36*
X314802Y-63320D02*
Y-67723D01*
X317836D01*
Y-67223D01*
X317699Y-66179D01*
X317296Y-65206D01*
X316655Y-64371D01*
X315819Y-63729D01*
X314846Y-63326D01*
X314802Y-63320D01*
D02*
G37*
G36*
X289211D02*
Y-67723D01*
X292246D01*
Y-67223D01*
X292108Y-66179D01*
X291705Y-65206D01*
X291064Y-64371D01*
X290228Y-63729D01*
X289255Y-63326D01*
X289211Y-63320D01*
D02*
G37*
G36*
X312802D02*
X312757Y-63326D01*
X311785Y-63729D01*
X310949Y-64371D01*
X310308Y-65206D01*
X309905Y-66179D01*
X309767Y-67223D01*
Y-67723D01*
X312802D01*
Y-63320D01*
D02*
G37*
G36*
X287211D02*
X287167Y-63326D01*
X286194Y-63729D01*
X285358Y-64371D01*
X284717Y-65206D01*
X284314Y-66179D01*
X284177Y-67223D01*
Y-67723D01*
X287211D01*
Y-63320D01*
D02*
G37*
G36*
X18092Y-69504D02*
X14685D01*
Y-72911D01*
X14860Y-72888D01*
X15954Y-72434D01*
X16894Y-71713D01*
X17616Y-70773D01*
X18069Y-69678D01*
X18092Y-69504D01*
D02*
G37*
G36*
X12685D02*
X9278D01*
X9301Y-69678D01*
X9754Y-70773D01*
X10475Y-71713D01*
X11415Y-72434D01*
X12510Y-72888D01*
X12685Y-72911D01*
Y-69504D01*
D02*
G37*
G36*
X317836Y-69723D02*
X314802D01*
Y-74126D01*
X314846Y-74120D01*
X315819Y-73717D01*
X316655Y-73076D01*
X317296Y-72241D01*
X317699Y-71267D01*
X317836Y-70223D01*
Y-69723D01*
D02*
G37*
G36*
X292246D02*
X289211D01*
Y-74126D01*
X289255Y-74120D01*
X290228Y-73717D01*
X291064Y-73076D01*
X291705Y-72241D01*
X292108Y-71267D01*
X292246Y-70223D01*
Y-69723D01*
D02*
G37*
G36*
X312802D02*
X309767D01*
Y-70223D01*
X309905Y-71267D01*
X310308Y-72241D01*
X310949Y-73076D01*
X311785Y-73717D01*
X312757Y-74120D01*
X312802Y-74126D01*
Y-69723D01*
D02*
G37*
G36*
X287211D02*
X284177D01*
Y-70223D01*
X284314Y-71267D01*
X284717Y-72241D01*
X285358Y-73076D01*
X286194Y-73717D01*
X287167Y-74120D01*
X287211Y-74126D01*
Y-69723D01*
D02*
G37*
G36*
X403222Y-67500D02*
X397812D01*
X392403D01*
X392435Y-67740D01*
X392913Y-68895D01*
X393674Y-69887D01*
X394667Y-70649D01*
X395822Y-71127D01*
X396734Y-71248D01*
Y-71752D01*
X395822Y-71872D01*
X394667Y-72351D01*
X393674Y-73112D01*
X392913Y-74104D01*
X392435Y-75260D01*
X392403Y-75500D01*
X397812D01*
X403222D01*
X403190Y-75260D01*
X402711Y-74104D01*
X401950Y-73112D01*
X400958Y-72351D01*
X399802Y-71872D01*
X398890Y-71752D01*
Y-71248D01*
X399802Y-71127D01*
X400958Y-70649D01*
X401950Y-69887D01*
X402711Y-68895D01*
X403190Y-67740D01*
X403222Y-67500D01*
D02*
G37*
G36*
X19685Y-78345D02*
Y-83252D01*
X23224D01*
Y-82752D01*
X23069Y-81577D01*
X22615Y-80482D01*
X21894Y-79542D01*
X20954Y-78821D01*
X19860Y-78368D01*
X19685Y-78345D01*
D02*
G37*
G36*
X17685D02*
X17510Y-78368D01*
X16415Y-78821D01*
X15475Y-79542D01*
X14754Y-80482D01*
X14301Y-81577D01*
X14146Y-82752D01*
Y-83252D01*
X17685D01*
Y-78345D01*
D02*
G37*
G36*
X403222Y-77500D02*
X397812D01*
X392403D01*
X392435Y-77740D01*
X392913Y-78895D01*
X393674Y-79887D01*
X394667Y-80649D01*
X395822Y-81127D01*
X396734Y-81248D01*
Y-81752D01*
X395822Y-81872D01*
X394667Y-82351D01*
X393674Y-83112D01*
X392913Y-84104D01*
X392435Y-85260D01*
X392403Y-85500D01*
X397812D01*
X403222D01*
X403190Y-85260D01*
X402711Y-84104D01*
X401950Y-83112D01*
X400958Y-82351D01*
X399802Y-81872D01*
X398890Y-81752D01*
Y-81248D01*
X399802Y-81127D01*
X400958Y-80649D01*
X401950Y-79887D01*
X402711Y-78895D01*
X403190Y-77740D01*
X403222Y-77500D01*
D02*
G37*
G36*
X335764Y-86963D02*
X334583D01*
Y-90014D01*
X335764D01*
Y-86963D01*
D02*
G37*
G36*
X332583D02*
X331401D01*
Y-90014D01*
X332583D01*
Y-86963D01*
D02*
G37*
G36*
X23224Y-85252D02*
X19685D01*
Y-90159D01*
X19860Y-90136D01*
X20954Y-89682D01*
X21894Y-88961D01*
X22615Y-88021D01*
X23069Y-86926D01*
X23224Y-85752D01*
Y-85252D01*
D02*
G37*
G36*
X17685D02*
X14146D01*
Y-85752D01*
X14301Y-86926D01*
X14754Y-88021D01*
X15475Y-88961D01*
X16415Y-89682D01*
X17510Y-90136D01*
X17685Y-90159D01*
Y-85252D01*
D02*
G37*
G36*
X403222Y-87500D02*
X397812D01*
X392403D01*
X392435Y-87740D01*
X392913Y-88895D01*
X393674Y-89887D01*
X394667Y-90649D01*
X395822Y-91127D01*
X396751Y-91250D01*
X396718Y-91750D01*
X392312D01*
Y-95500D01*
X397812D01*
Y-96500D01*
D01*
Y-95500D01*
X403312D01*
Y-91750D01*
X398906D01*
X398874Y-91250D01*
X399802Y-91127D01*
X400958Y-90649D01*
X401950Y-89887D01*
X402711Y-88895D01*
X403190Y-87740D01*
X403222Y-87500D01*
D02*
G37*
G36*
X314802Y-93320D02*
Y-97723D01*
X317836D01*
Y-97223D01*
X317699Y-96179D01*
X317296Y-95206D01*
X316655Y-94371D01*
X315819Y-93729D01*
X314846Y-93326D01*
X314802Y-93320D01*
D02*
G37*
G36*
X289211D02*
Y-97723D01*
X292246D01*
Y-97223D01*
X292108Y-96179D01*
X291705Y-95206D01*
X291064Y-94371D01*
X290228Y-93729D01*
X289255Y-93326D01*
X289211Y-93320D01*
D02*
G37*
G36*
X312802D02*
X312757Y-93326D01*
X311785Y-93729D01*
X310949Y-94371D01*
X310308Y-95206D01*
X309905Y-96179D01*
X309767Y-97223D01*
Y-97723D01*
X312802D01*
Y-93320D01*
D02*
G37*
G36*
X287211D02*
X287167Y-93326D01*
X286194Y-93729D01*
X285358Y-94371D01*
X284717Y-95206D01*
X284314Y-96179D01*
X284177Y-97223D01*
Y-97723D01*
X287211D01*
Y-93320D01*
D02*
G37*
G36*
X39685Y-94175D02*
Y-99000D01*
X42791D01*
Y-98149D01*
X42651Y-97087D01*
X42241Y-96096D01*
X41588Y-95246D01*
X40738Y-94593D01*
X39747Y-94183D01*
X39685Y-94175D01*
D02*
G37*
G36*
X37685D02*
X37622Y-94183D01*
X36632Y-94593D01*
X35781Y-95246D01*
X35129Y-96096D01*
X34719Y-97087D01*
X34579Y-98149D01*
Y-99000D01*
X37685D01*
Y-94175D01*
D02*
G37*
G36*
X197217Y-97593D02*
Y-101000D01*
X200624D01*
X200601Y-100825D01*
X200148Y-99730D01*
X199426Y-98790D01*
X198486Y-98069D01*
X197391Y-97615D01*
X197217Y-97593D01*
D02*
G37*
G36*
X195217Y-97593D02*
X195042Y-97615D01*
X193947Y-98069D01*
X193007Y-98790D01*
X192286Y-99730D01*
X191833Y-100825D01*
X191810Y-101000D01*
X195217D01*
Y-97593D01*
D02*
G37*
G36*
X403312Y-97500D02*
X398812D01*
Y-101250D01*
X403312D01*
Y-97500D01*
D02*
G37*
G36*
X396812D02*
X392312D01*
Y-101250D01*
X396812D01*
Y-97500D01*
D02*
G37*
G36*
X221233Y-98188D02*
X218064D01*
Y-102125D01*
X221233D01*
Y-98188D01*
D02*
G37*
G36*
X216064D02*
X212895D01*
Y-102125D01*
X216064D01*
Y-98188D01*
D02*
G37*
G36*
X317836Y-99723D02*
X314802D01*
Y-104126D01*
X314846Y-104120D01*
X315819Y-103717D01*
X316655Y-103076D01*
X317296Y-102241D01*
X317699Y-101268D01*
X317836Y-100223D01*
Y-99723D01*
D02*
G37*
G36*
X292246D02*
X289211D01*
Y-104126D01*
X289255Y-104120D01*
X290228Y-103717D01*
X291064Y-103076D01*
X291705Y-102241D01*
X292108Y-101268D01*
X292246Y-100223D01*
Y-99723D01*
D02*
G37*
G36*
X312802D02*
X309767D01*
Y-100223D01*
X309905Y-101268D01*
X310308Y-102241D01*
X310949Y-103076D01*
X311785Y-103717D01*
X312757Y-104120D01*
X312802Y-104126D01*
Y-99723D01*
D02*
G37*
G36*
X287211D02*
X284177D01*
Y-100223D01*
X284314Y-101268D01*
X284717Y-102241D01*
X285358Y-103076D01*
X286194Y-103717D01*
X287167Y-104120D01*
X287211Y-104126D01*
Y-99723D01*
D02*
G37*
G36*
X370764Y-81911D02*
X366402D01*
Y-90014D01*
X366543D01*
Y-104195D01*
X366084Y-104655D01*
X365622Y-104463D01*
Y-90014D01*
X365764D01*
Y-81911D01*
X361402D01*
Y-90014D01*
X361543D01*
Y-104864D01*
X361084Y-105324D01*
X360622Y-105132D01*
Y-90014D01*
X360764D01*
Y-81911D01*
X356401D01*
Y-90014D01*
X356543D01*
Y-105622D01*
X356084Y-106081D01*
X355622Y-105890D01*
Y-90014D01*
X355764D01*
Y-81911D01*
X351401D01*
Y-90014D01*
X351543D01*
Y-106379D01*
X351084Y-106839D01*
X350622Y-106647D01*
Y-90014D01*
X350764D01*
Y-81911D01*
X346402D01*
Y-90014D01*
X346543D01*
Y-107136D01*
X346084Y-107596D01*
X345622Y-107404D01*
Y-90014D01*
X345764D01*
Y-81911D01*
X341402D01*
Y-90014D01*
X341543D01*
Y-107894D01*
X341084Y-108353D01*
X340622Y-108162D01*
Y-90014D01*
X340764D01*
Y-81911D01*
X336402D01*
Y-90014D01*
X336543D01*
Y-108651D01*
X335715Y-109479D01*
X315770D01*
Y-107769D01*
X309833D01*
Y-115269D01*
X315770D01*
Y-113558D01*
X335226D01*
X335417Y-114020D01*
X332707Y-116730D01*
X298805D01*
X292151Y-110077D01*
X291490Y-109635D01*
X290709Y-109479D01*
X290180D01*
Y-107769D01*
X284243D01*
Y-115269D01*
X290180D01*
Y-114526D01*
X290642Y-114335D01*
X296518Y-120211D01*
X297180Y-120653D01*
X297960Y-120808D01*
X332218D01*
X332409Y-121270D01*
X332036Y-121644D01*
X250142D01*
X250142Y-121644D01*
X249361Y-121799D01*
X248700Y-122241D01*
X248700Y-122241D01*
X231354Y-139587D01*
X230912Y-140248D01*
X230757Y-141029D01*
Y-142303D01*
X229828D01*
Y-149803D01*
X235765D01*
Y-142303D01*
X235005D01*
X234905Y-141803D01*
X250986Y-125722D01*
X331547D01*
X331738Y-126184D01*
X331278Y-126644D01*
X272299D01*
X271519Y-126799D01*
X270857Y-127241D01*
X258512Y-139587D01*
X258070Y-140248D01*
X257914Y-141029D01*
Y-142303D01*
X256985D01*
Y-149803D01*
X262922D01*
Y-142303D01*
X262162D01*
X262063Y-141803D01*
X273144Y-130722D01*
X330789D01*
X330981Y-131184D01*
X330521Y-131644D01*
X294457D01*
X293676Y-131799D01*
X293015Y-132241D01*
X285669Y-139587D01*
X285227Y-140248D01*
X285072Y-141029D01*
Y-142303D01*
X284143D01*
Y-149803D01*
X290080D01*
Y-142303D01*
X289319D01*
X289220Y-141803D01*
X295301Y-135722D01*
X330032D01*
X330223Y-136184D01*
X329764Y-136644D01*
X316614D01*
X316614Y-136644D01*
X315834Y-136799D01*
X315172Y-137241D01*
X312827Y-139587D01*
X312385Y-140248D01*
X312229Y-141029D01*
Y-142303D01*
X311300D01*
Y-149803D01*
X317237D01*
Y-142303D01*
X316477D01*
X316378Y-141803D01*
X317459Y-140722D01*
X330608D01*
X331389Y-140567D01*
X332050Y-140125D01*
X344861Y-127314D01*
X345323Y-127506D01*
Y-143311D01*
X344895Y-143739D01*
X344395Y-143532D01*
Y-142303D01*
X338458D01*
Y-149803D01*
X344395D01*
Y-148092D01*
X345464D01*
X346245Y-147937D01*
X346906Y-147495D01*
X348804Y-145598D01*
X349246Y-144936D01*
X349401Y-144156D01*
Y-127105D01*
X370024Y-106481D01*
X370467Y-105820D01*
X370622Y-105040D01*
X370622Y-105039D01*
Y-90014D01*
X370764D01*
Y-81911D01*
D02*
G37*
G36*
X148685Y-94043D02*
X147622Y-94183D01*
X146632Y-94593D01*
X145781Y-95246D01*
X145129Y-96096D01*
X144719Y-97087D01*
X144579Y-98149D01*
Y-101850D01*
X144719Y-102913D01*
X145129Y-103903D01*
X145781Y-104753D01*
X146632Y-105406D01*
X147622Y-105816D01*
X148685Y-105956D01*
X149747Y-105816D01*
X150738Y-105406D01*
X151588Y-104753D01*
X152241Y-103903D01*
X152651Y-102913D01*
X152791Y-101850D01*
Y-98149D01*
X152651Y-97087D01*
X152241Y-96096D01*
X151588Y-95246D01*
X150738Y-94593D01*
X149747Y-94183D01*
X148685Y-94043D01*
D02*
G37*
G36*
X138685D02*
X137622Y-94183D01*
X136632Y-94593D01*
X135781Y-95246D01*
X135129Y-96096D01*
X134719Y-97087D01*
X134579Y-98149D01*
Y-101850D01*
X134719Y-102913D01*
X135129Y-103903D01*
X135781Y-104753D01*
X136632Y-105406D01*
X137622Y-105816D01*
X138685Y-105956D01*
X139747Y-105816D01*
X140738Y-105406D01*
X141588Y-104753D01*
X142241Y-103903D01*
X142651Y-102913D01*
X142791Y-101850D01*
Y-98149D01*
X142651Y-97087D01*
X142241Y-96096D01*
X141588Y-95246D01*
X140738Y-94593D01*
X139747Y-94183D01*
X138685Y-94043D01*
D02*
G37*
G36*
X195217Y-103000D02*
X191810D01*
X191833Y-103174D01*
X192286Y-104269D01*
X193007Y-105209D01*
X193947Y-105930D01*
X195042Y-106384D01*
X195217Y-106407D01*
Y-103000D01*
D02*
G37*
G36*
X200624D02*
X197217D01*
Y-106407D01*
X197391Y-106384D01*
X198486Y-105930D01*
X199426Y-105209D01*
X200148Y-104269D01*
X200601Y-103174D01*
X200624Y-103000D01*
D02*
G37*
G36*
X307802Y-93223D02*
X299802D01*
Y-104223D01*
X301763D01*
Y-107769D01*
X300833D01*
Y-115269D01*
X306770D01*
Y-107769D01*
X305841D01*
Y-104223D01*
X307802D01*
Y-93223D01*
D02*
G37*
G36*
X282211D02*
X274211D01*
Y-104223D01*
X276172D01*
Y-107769D01*
X275243D01*
Y-115269D01*
X281180D01*
Y-107769D01*
X280250D01*
Y-104223D01*
X282211D01*
Y-93223D01*
D02*
G37*
G36*
X-2238Y-121960D02*
X-2413Y-121984D01*
X-3508Y-122437D01*
X-4448Y-123158D01*
X-5169Y-124098D01*
X-5623Y-125193D01*
X-5646Y-125368D01*
X-2238D01*
Y-121960D01*
D02*
G37*
G36*
Y-127368D02*
X-5646D01*
X-5623Y-127542D01*
X-5169Y-128637D01*
X-4448Y-129577D01*
X-3508Y-130298D01*
X-2413Y-130752D01*
X-2238Y-130775D01*
Y-127368D01*
D02*
G37*
G36*
X46289Y-120692D02*
X44742Y-120844D01*
X43255Y-121295D01*
X41884Y-122028D01*
X40683Y-123014D01*
X39697Y-124215D01*
X38965Y-125586D01*
X38513Y-127073D01*
X38361Y-128620D01*
X38513Y-130166D01*
X38965Y-131653D01*
X39697Y-133024D01*
X40683Y-134225D01*
X41884Y-135212D01*
X43255Y-135944D01*
X44742Y-136395D01*
X46289Y-136548D01*
X47836Y-136395D01*
X49323Y-135944D01*
X50694Y-135212D01*
X51895Y-134225D01*
X52881Y-133024D01*
X53614Y-131653D01*
X54065Y-130166D01*
X54217Y-128620D01*
X54065Y-127073D01*
X53614Y-125586D01*
X52881Y-124215D01*
X51895Y-123014D01*
X50694Y-122028D01*
X49323Y-121295D01*
X47836Y-120844D01*
X46289Y-120692D01*
D02*
G37*
G36*
X359524Y-122652D02*
X357978Y-122805D01*
X356491Y-123256D01*
X355120Y-123988D01*
X353919Y-124974D01*
X352933Y-126176D01*
X352200Y-127546D01*
X351749Y-129034D01*
X351596Y-130580D01*
X351749Y-132127D01*
X352200Y-133614D01*
X352933Y-134985D01*
X353919Y-136186D01*
X355120Y-137172D01*
X356491Y-137905D01*
X357978Y-138356D01*
X359524Y-138508D01*
X361071Y-138356D01*
X362558Y-137905D01*
X363929Y-137172D01*
X365130Y-136186D01*
X366116Y-134985D01*
X366849Y-133614D01*
X367300Y-132127D01*
X367452Y-130580D01*
X367300Y-129034D01*
X366849Y-127546D01*
X366116Y-126176D01*
X365130Y-124974D01*
X363929Y-123988D01*
X362558Y-123256D01*
X361071Y-122805D01*
X359524Y-122652D01*
D02*
G37*
G36*
X213855D02*
X212309Y-122805D01*
X210821Y-123256D01*
X209451Y-123988D01*
X208249Y-124974D01*
X207263Y-126176D01*
X206531Y-127546D01*
X206080Y-129034D01*
X205927Y-130580D01*
X206080Y-132127D01*
X206531Y-133614D01*
X207263Y-134985D01*
X208249Y-136186D01*
X209451Y-137172D01*
X210821Y-137905D01*
X212309Y-138356D01*
X213855Y-138508D01*
X215402Y-138356D01*
X216889Y-137905D01*
X218260Y-137172D01*
X219461Y-136186D01*
X220447Y-134985D01*
X221180Y-133614D01*
X221631Y-132127D01*
X221783Y-130580D01*
X221631Y-129034D01*
X221180Y-127546D01*
X220447Y-126176D01*
X219461Y-124974D01*
X218260Y-123988D01*
X216889Y-123256D01*
X215402Y-122805D01*
X213855Y-122652D01*
D02*
G37*
G36*
X197217Y-136960D02*
Y-140368D01*
X200624D01*
X200601Y-140193D01*
X200148Y-139098D01*
X199426Y-138158D01*
X198486Y-137437D01*
X197391Y-136984D01*
X197217Y-136960D01*
D02*
G37*
G36*
X195217D02*
X195042Y-136984D01*
X193947Y-137437D01*
X193007Y-138158D01*
X192286Y-139098D01*
X191833Y-140193D01*
X191810Y-140368D01*
X195217D01*
Y-136960D01*
D02*
G37*
G36*
X259Y-141403D02*
X-1710D01*
Y-143372D01*
X259D01*
Y-141403D01*
D02*
G37*
G36*
X-3710D02*
X-5678D01*
Y-143372D01*
X-3710D01*
Y-141403D01*
D02*
G37*
G36*
X200624Y-142368D02*
X197217D01*
Y-145775D01*
X197391Y-145752D01*
X198486Y-145298D01*
X199426Y-144577D01*
X200148Y-143637D01*
X200601Y-142542D01*
X200624Y-142368D01*
D02*
G37*
G36*
X195217D02*
X191810D01*
X191833Y-142542D01*
X192286Y-143637D01*
X193007Y-144577D01*
X193947Y-145298D01*
X195042Y-145752D01*
X195217Y-145775D01*
Y-142368D01*
D02*
G37*
G36*
X259Y-145372D02*
X-1710D01*
Y-147340D01*
X259D01*
Y-145372D01*
D02*
G37*
G36*
X-3710D02*
X-5678D01*
Y-147340D01*
X-3710D01*
Y-145372D01*
D02*
G37*
G36*
X214796Y-153446D02*
Y-157849D01*
X217831D01*
Y-157349D01*
X217693Y-156304D01*
X217290Y-155331D01*
X216649Y-154496D01*
X215813Y-153855D01*
X214840Y-153451D01*
X214796Y-153446D01*
D02*
G37*
G36*
X212796D02*
X212752Y-153451D01*
X211779Y-153855D01*
X210943Y-154496D01*
X210302Y-155331D01*
X209899Y-156304D01*
X209762Y-157349D01*
Y-157849D01*
X212796D01*
Y-153446D01*
D02*
G37*
G36*
X350584D02*
Y-157849D01*
X353618D01*
Y-157349D01*
X353481Y-156304D01*
X353078Y-155331D01*
X352436Y-154496D01*
X351601Y-153855D01*
X350628Y-153451D01*
X350584Y-153446D01*
D02*
G37*
G36*
X323426D02*
Y-157849D01*
X326461D01*
Y-157349D01*
X326323Y-156304D01*
X325920Y-155331D01*
X325279Y-154496D01*
X324443Y-153855D01*
X323470Y-153451D01*
X323426Y-153446D01*
D02*
G37*
G36*
X269111D02*
Y-157849D01*
X272146D01*
Y-157349D01*
X272008Y-156304D01*
X271605Y-155331D01*
X270964Y-154496D01*
X270128Y-153855D01*
X269155Y-153451D01*
X269111Y-153446D01*
D02*
G37*
G36*
X241954D02*
Y-157849D01*
X244988D01*
Y-157349D01*
X244851Y-156304D01*
X244448Y-155331D01*
X243807Y-154496D01*
X242971Y-153855D01*
X241998Y-153451D01*
X241954Y-153446D01*
D02*
G37*
G36*
X348584D02*
X348539Y-153451D01*
X347566Y-153855D01*
X346731Y-154496D01*
X346090Y-155331D01*
X345687Y-156304D01*
X345549Y-157349D01*
Y-157849D01*
X348584D01*
Y-153446D01*
D02*
G37*
G36*
X321426D02*
X321382Y-153451D01*
X320409Y-153855D01*
X319573Y-154496D01*
X318932Y-155331D01*
X318529Y-156304D01*
X318391Y-157349D01*
Y-157849D01*
X321426D01*
Y-153446D01*
D02*
G37*
G36*
X267111D02*
X267067Y-153451D01*
X266094Y-153855D01*
X265258Y-154496D01*
X264617Y-155331D01*
X264214Y-156304D01*
X264077Y-157349D01*
Y-157849D01*
X267111D01*
Y-153446D01*
D02*
G37*
G36*
X239954D02*
X239909Y-153451D01*
X238936Y-153855D01*
X238101Y-154496D01*
X237460Y-155331D01*
X237057Y-156304D01*
X236919Y-157349D01*
Y-157849D01*
X239954D01*
Y-153446D01*
D02*
G37*
G36*
X296269D02*
Y-157849D01*
X299303D01*
Y-157349D01*
X299166Y-156304D01*
X298763Y-155331D01*
X298121Y-154496D01*
X297286Y-153855D01*
X296313Y-153451D01*
X296269Y-153446D01*
D02*
G37*
G36*
X294268D02*
X294224Y-153451D01*
X293251Y-153855D01*
X292416Y-154496D01*
X291775Y-155331D01*
X291371Y-156304D01*
X291234Y-157349D01*
Y-157849D01*
X294268D01*
Y-153446D01*
D02*
G37*
G36*
X259Y-157151D02*
X-1710D01*
Y-159120D01*
X259D01*
Y-157151D01*
D02*
G37*
G36*
X-3710D02*
X-5678D01*
Y-159120D01*
X-3710D01*
Y-157151D01*
D02*
G37*
G36*
X259Y-161120D02*
X-1710D01*
Y-163088D01*
X259D01*
Y-161120D01*
D02*
G37*
G36*
X-3710D02*
X-5678D01*
Y-163088D01*
X-3710D01*
Y-161120D01*
D02*
G37*
G36*
X14459Y-156370D02*
X8522D01*
Y-156885D01*
X8133Y-157151D01*
X2196D01*
Y-163088D01*
X8133D01*
X8522Y-163355D01*
Y-163870D01*
X14459D01*
Y-156370D01*
D02*
G37*
G36*
X294268Y-159848D02*
X291234D01*
Y-160348D01*
X291371Y-161393D01*
X291775Y-162366D01*
X292416Y-163201D01*
X293251Y-163842D01*
X294224Y-164246D01*
X294268Y-164251D01*
Y-159848D01*
D02*
G37*
G36*
X217831Y-159848D02*
X214796D01*
Y-164251D01*
X214840Y-164246D01*
X215813Y-163842D01*
X216649Y-163201D01*
X217290Y-162366D01*
X217693Y-161393D01*
X217831Y-160348D01*
Y-159848D01*
D02*
G37*
G36*
X353618Y-159848D02*
X350584D01*
Y-164251D01*
X350628Y-164246D01*
X351601Y-163842D01*
X352436Y-163201D01*
X353078Y-162366D01*
X353481Y-161393D01*
X353618Y-160348D01*
Y-159848D01*
D02*
G37*
G36*
X326461D02*
X323426D01*
Y-164251D01*
X323470Y-164246D01*
X324443Y-163842D01*
X325279Y-163201D01*
X325920Y-162366D01*
X326323Y-161393D01*
X326461Y-160348D01*
Y-159848D01*
D02*
G37*
G36*
X272146D02*
X269111D01*
Y-164251D01*
X269155Y-164246D01*
X270128Y-163842D01*
X270964Y-163201D01*
X271605Y-162366D01*
X272008Y-161393D01*
X272146Y-160348D01*
Y-159848D01*
D02*
G37*
G36*
X244988D02*
X241954D01*
Y-164251D01*
X241998Y-164246D01*
X242971Y-163842D01*
X243807Y-163201D01*
X244448Y-162366D01*
X244851Y-161393D01*
X244988Y-160348D01*
Y-159848D01*
D02*
G37*
G36*
X348584D02*
X345549D01*
Y-160348D01*
X345687Y-161393D01*
X346090Y-162366D01*
X346731Y-163201D01*
X347566Y-163842D01*
X348539Y-164246D01*
X348584Y-164251D01*
Y-159848D01*
D02*
G37*
G36*
X321426D02*
X318391D01*
Y-160348D01*
X318529Y-161393D01*
X318932Y-162366D01*
X319573Y-163201D01*
X320409Y-163842D01*
X321382Y-164246D01*
X321426Y-164251D01*
Y-159848D01*
D02*
G37*
G36*
X267111D02*
X264077D01*
Y-160348D01*
X264214Y-161393D01*
X264617Y-162366D01*
X265258Y-163201D01*
X266094Y-163842D01*
X267067Y-164246D01*
X267111Y-164251D01*
Y-159848D01*
D02*
G37*
G36*
X239954D02*
X236919D01*
Y-160348D01*
X237057Y-161393D01*
X237460Y-162366D01*
X238101Y-163201D01*
X238936Y-163842D01*
X239909Y-164246D01*
X239954Y-164251D01*
Y-159848D01*
D02*
G37*
G36*
X212796Y-159848D02*
X209762D01*
Y-160348D01*
X209899Y-161393D01*
X210302Y-162366D01*
X210943Y-163201D01*
X211779Y-163842D01*
X212752Y-164246D01*
X212796Y-164251D01*
Y-159848D01*
D02*
G37*
G36*
X299303Y-159848D02*
X296269D01*
Y-164251D01*
X296313Y-164246D01*
X297286Y-163842D01*
X298121Y-163201D01*
X298763Y-162366D01*
X299166Y-161393D01*
X299303Y-160348D01*
Y-159848D01*
D02*
G37*
G36*
X335395Y-142303D02*
X329458D01*
Y-149803D01*
X330387D01*
Y-153349D01*
X328426D01*
Y-164348D01*
X336426D01*
Y-153349D01*
X334465D01*
Y-149803D01*
X335395D01*
Y-142303D01*
D02*
G37*
G36*
X308237D02*
X302300D01*
Y-149803D01*
X303229D01*
Y-153349D01*
X301269D01*
Y-164348D01*
X309269D01*
Y-153349D01*
X307308D01*
Y-149803D01*
X308237D01*
Y-142303D01*
D02*
G37*
G36*
X281080D02*
X275143D01*
Y-149803D01*
X276072D01*
Y-153349D01*
X274111D01*
Y-164348D01*
X282111D01*
Y-153349D01*
X280150D01*
Y-149803D01*
X281080D01*
Y-142303D01*
D02*
G37*
G36*
X253922D02*
X247985D01*
Y-149803D01*
X248914D01*
Y-153349D01*
X246954D01*
Y-164348D01*
X254954D01*
Y-153349D01*
X252993D01*
Y-149803D01*
X253922D01*
Y-142303D01*
D02*
G37*
G36*
X226765D02*
X220828D01*
Y-149803D01*
X221757D01*
Y-153349D01*
X219796D01*
Y-164348D01*
X227796D01*
Y-153349D01*
X225835D01*
Y-149803D01*
X226765D01*
Y-142303D01*
D02*
G37*
G36*
X259Y-172899D02*
X-1710D01*
Y-174868D01*
X259D01*
Y-172899D01*
D02*
G37*
G36*
X-3710D02*
X-5678D01*
Y-174868D01*
X-3710D01*
Y-172899D01*
D02*
G37*
G36*
X259Y-176868D02*
X-1710D01*
Y-178836D01*
X259D01*
Y-176868D01*
D02*
G37*
G36*
X-3710D02*
X-5678D01*
Y-178836D01*
X-3710D01*
Y-176868D01*
D02*
G37*
G36*
X14459Y-172118D02*
X8522D01*
Y-172633D01*
X8133Y-172899D01*
X2196D01*
Y-178836D01*
X8133D01*
X8522Y-179103D01*
Y-179618D01*
X14459D01*
Y-172118D01*
D02*
G37*
G36*
X214796Y-183446D02*
Y-187848D01*
X217831D01*
Y-187348D01*
X217693Y-186304D01*
X217290Y-185331D01*
X216649Y-184496D01*
X215813Y-183854D01*
X214840Y-183451D01*
X214796Y-183446D01*
D02*
G37*
G36*
X212796D02*
X212752Y-183451D01*
X211779Y-183854D01*
X210943Y-184496D01*
X210302Y-185331D01*
X209899Y-186304D01*
X209762Y-187348D01*
Y-187848D01*
X212796D01*
Y-183446D01*
D02*
G37*
G36*
X350584D02*
Y-187848D01*
X353618D01*
Y-187348D01*
X353481Y-186304D01*
X353078Y-185331D01*
X352436Y-184496D01*
X351601Y-183854D01*
X350628Y-183451D01*
X350584Y-183446D01*
D02*
G37*
G36*
X323426D02*
Y-187848D01*
X326461D01*
Y-187348D01*
X326323Y-186304D01*
X325920Y-185331D01*
X325279Y-184496D01*
X324443Y-183854D01*
X323470Y-183451D01*
X323426Y-183446D01*
D02*
G37*
G36*
X269111D02*
Y-187848D01*
X272146D01*
Y-187348D01*
X272008Y-186304D01*
X271605Y-185331D01*
X270964Y-184496D01*
X270128Y-183854D01*
X269155Y-183451D01*
X269111Y-183446D01*
D02*
G37*
G36*
X241954D02*
Y-187848D01*
X244988D01*
Y-187348D01*
X244851Y-186304D01*
X244448Y-185331D01*
X243807Y-184496D01*
X242971Y-183854D01*
X241998Y-183451D01*
X241954Y-183446D01*
D02*
G37*
G36*
X348584D02*
X348539Y-183451D01*
X347566Y-183854D01*
X346731Y-184496D01*
X346090Y-185331D01*
X345687Y-186304D01*
X345549Y-187348D01*
Y-187848D01*
X348584D01*
Y-183446D01*
D02*
G37*
G36*
X321426D02*
X321382Y-183451D01*
X320409Y-183854D01*
X319573Y-184496D01*
X318932Y-185331D01*
X318529Y-186304D01*
X318391Y-187348D01*
Y-187848D01*
X321426D01*
Y-183446D01*
D02*
G37*
G36*
X267111D02*
X267067Y-183451D01*
X266094Y-183854D01*
X265258Y-184496D01*
X264617Y-185331D01*
X264214Y-186304D01*
X264077Y-187348D01*
Y-187848D01*
X267111D01*
Y-183446D01*
D02*
G37*
G36*
X239954D02*
X239909Y-183451D01*
X238936Y-183854D01*
X238101Y-184496D01*
X237460Y-185331D01*
X237057Y-186304D01*
X236919Y-187348D01*
Y-187848D01*
X239954D01*
Y-183446D01*
D02*
G37*
G36*
X296269D02*
Y-187848D01*
X299303D01*
Y-187348D01*
X299166Y-186304D01*
X298763Y-185331D01*
X298121Y-184496D01*
X297286Y-183854D01*
X296313Y-183451D01*
X296269Y-183446D01*
D02*
G37*
G36*
X294268D02*
X294224Y-183451D01*
X293251Y-183854D01*
X292416Y-184496D01*
X291775Y-185331D01*
X291371Y-186304D01*
X291234Y-187348D01*
Y-187848D01*
X294268D01*
Y-183446D01*
D02*
G37*
G36*
X184037Y-188462D02*
Y-192872D01*
X187795D01*
X187665Y-191882D01*
X187186Y-190726D01*
X186425Y-189734D01*
X185433Y-188972D01*
X184277Y-188494D01*
X184037Y-188462D01*
D02*
G37*
G36*
X182037D02*
X181797Y-188494D01*
X180642Y-188972D01*
X179649Y-189734D01*
X178888Y-190726D01*
X178409Y-191882D01*
X178279Y-192872D01*
X182037D01*
Y-188462D01*
D02*
G37*
G36*
X28541D02*
Y-192872D01*
X32299D01*
X32169Y-191882D01*
X31690Y-190726D01*
X30929Y-189734D01*
X29937Y-188972D01*
X28781Y-188494D01*
X28541Y-188462D01*
D02*
G37*
G36*
X26541D02*
X26301Y-188494D01*
X25146Y-188972D01*
X24153Y-189734D01*
X23392Y-190726D01*
X22913Y-191882D01*
X22783Y-192872D01*
X26541D01*
Y-188462D01*
D02*
G37*
G36*
X294268Y-189848D02*
X291234D01*
Y-190348D01*
X291371Y-191393D01*
X291775Y-192366D01*
X292416Y-193201D01*
X293251Y-193842D01*
X294224Y-194246D01*
X294268Y-194251D01*
Y-189848D01*
D02*
G37*
G36*
X217831Y-189848D02*
X214796D01*
Y-194251D01*
X214840Y-194246D01*
X215813Y-193842D01*
X216649Y-193201D01*
X217290Y-192366D01*
X217693Y-191393D01*
X217831Y-190348D01*
Y-189848D01*
D02*
G37*
G36*
X353618Y-189848D02*
X350584D01*
Y-194251D01*
X350628Y-194246D01*
X351601Y-193842D01*
X352436Y-193201D01*
X353078Y-192366D01*
X353481Y-191393D01*
X353618Y-190348D01*
Y-189848D01*
D02*
G37*
G36*
X326461D02*
X323426D01*
Y-194251D01*
X323470Y-194246D01*
X324443Y-193842D01*
X325279Y-193201D01*
X325920Y-192366D01*
X326323Y-191393D01*
X326461Y-190348D01*
Y-189848D01*
D02*
G37*
G36*
X272146D02*
X269111D01*
Y-194251D01*
X269155Y-194246D01*
X270128Y-193842D01*
X270964Y-193201D01*
X271605Y-192366D01*
X272008Y-191393D01*
X272146Y-190348D01*
Y-189848D01*
D02*
G37*
G36*
X244988D02*
X241954D01*
Y-194251D01*
X241998Y-194246D01*
X242971Y-193842D01*
X243807Y-193201D01*
X244448Y-192366D01*
X244851Y-191393D01*
X244988Y-190348D01*
Y-189848D01*
D02*
G37*
G36*
X348584D02*
X345549D01*
Y-190348D01*
X345687Y-191393D01*
X346090Y-192366D01*
X346731Y-193201D01*
X347566Y-193842D01*
X348539Y-194246D01*
X348584Y-194251D01*
Y-189848D01*
D02*
G37*
G36*
X321426D02*
X318391D01*
Y-190348D01*
X318529Y-191393D01*
X318932Y-192366D01*
X319573Y-193201D01*
X320409Y-193842D01*
X321382Y-194246D01*
X321426Y-194251D01*
Y-189848D01*
D02*
G37*
G36*
X267111D02*
X264077D01*
Y-190348D01*
X264214Y-191393D01*
X264617Y-192366D01*
X265258Y-193201D01*
X266094Y-193842D01*
X267067Y-194246D01*
X267111Y-194251D01*
Y-189848D01*
D02*
G37*
G36*
X239954D02*
X236919D01*
Y-190348D01*
X237057Y-191393D01*
X237460Y-192366D01*
X238101Y-193201D01*
X238936Y-193842D01*
X239909Y-194246D01*
X239954Y-194251D01*
Y-189848D01*
D02*
G37*
G36*
X212796Y-189848D02*
X209762D01*
Y-190348D01*
X209899Y-191393D01*
X210302Y-192366D01*
X210943Y-193201D01*
X211779Y-193842D01*
X212752Y-194246D01*
X212796Y-194251D01*
Y-189848D01*
D02*
G37*
G36*
X299303Y-189848D02*
X296269D01*
Y-194251D01*
X296313Y-194246D01*
X297286Y-193842D01*
X298121Y-193201D01*
X298763Y-192366D01*
X299166Y-191393D01*
X299303Y-190348D01*
Y-189848D01*
D02*
G37*
G36*
X187795Y-194872D02*
X184037D01*
Y-199281D01*
X184277Y-199249D01*
X185433Y-198771D01*
X186425Y-198009D01*
X187186Y-197017D01*
X187665Y-195862D01*
X187795Y-194872D01*
D02*
G37*
G36*
X182037D02*
X178279D01*
X178409Y-195862D01*
X178888Y-197017D01*
X179649Y-198009D01*
X180642Y-198771D01*
X181797Y-199249D01*
X182037Y-199281D01*
Y-194872D01*
D02*
G37*
G36*
X32299D02*
X28541D01*
Y-199281D01*
X28781Y-199249D01*
X29937Y-198771D01*
X30929Y-198009D01*
X31690Y-197017D01*
X32169Y-195862D01*
X32299Y-194872D01*
D02*
G37*
G36*
X26541D02*
X22783D01*
X22913Y-195862D01*
X23392Y-197017D01*
X24153Y-198009D01*
X25146Y-198771D01*
X26301Y-199249D01*
X26541Y-199281D01*
Y-194872D01*
D02*
G37*
G36*
X164289Y-183692D02*
X162742Y-183844D01*
X161255Y-184295D01*
X159885Y-185028D01*
X158683Y-186014D01*
X157697Y-187215D01*
X156965Y-188586D01*
X156513Y-190073D01*
X156361Y-191620D01*
X156513Y-193166D01*
X156965Y-194653D01*
X157697Y-196024D01*
X158683Y-197225D01*
X159885Y-198212D01*
X161255Y-198944D01*
X162742Y-199395D01*
X164289Y-199548D01*
X165836Y-199395D01*
X167323Y-198944D01*
X168694Y-198212D01*
X169895Y-197225D01*
X170881Y-196024D01*
X171614Y-194653D01*
X172065Y-193166D01*
X172217Y-191620D01*
X172065Y-190073D01*
X171614Y-188586D01*
X170881Y-187215D01*
X169895Y-186014D01*
X168694Y-185028D01*
X167323Y-184295D01*
X165836Y-183844D01*
X164289Y-183692D01*
D02*
G37*
G36*
X394269Y-205355D02*
X393108Y-205469D01*
X391992Y-205808D01*
X390963Y-206358D01*
X390061Y-207098D01*
X389321Y-207999D01*
X388772Y-209028D01*
X388433Y-210144D01*
X388319Y-211305D01*
X388404Y-212176D01*
X386479Y-214101D01*
X370769D01*
X369855Y-214222D01*
X369004Y-214574D01*
X368273Y-215135D01*
X366122Y-217286D01*
X360839D01*
Y-214895D01*
X348997D01*
Y-226738D01*
X360839D01*
Y-224347D01*
X367584D01*
X368498Y-224226D01*
X369349Y-223874D01*
X370080Y-223313D01*
X372231Y-221162D01*
X387942D01*
X388855Y-221041D01*
X389707Y-220689D01*
X390438Y-220128D01*
X393397Y-217169D01*
X394269Y-217255D01*
X395429Y-217140D01*
X396546Y-216802D01*
X397574Y-216252D01*
X398476Y-215512D01*
X399216Y-214610D01*
X399766Y-213582D01*
X400104Y-212466D01*
X400218Y-211305D01*
X400104Y-210144D01*
X399766Y-209028D01*
X399216Y-207999D01*
X398476Y-207098D01*
X397574Y-206358D01*
X396546Y-205808D01*
X395429Y-205469D01*
X394269Y-205355D01*
D02*
G37*
G36*
X8433Y-218288D02*
Y-223140D01*
X13285D01*
X13269Y-222979D01*
X12930Y-221863D01*
X12380Y-220834D01*
X11640Y-219932D01*
X10739Y-219192D01*
X9710Y-218643D01*
X8594Y-218304D01*
X8433Y-218288D01*
D02*
G37*
G36*
X6433Y-218288D02*
X6272Y-218304D01*
X5156Y-218643D01*
X4128Y-219192D01*
X3226Y-219932D01*
X2486Y-220834D01*
X1936Y-221863D01*
X1598Y-222979D01*
X1582Y-223140D01*
X6433D01*
Y-218288D01*
D02*
G37*
G36*
Y-225140D02*
X1582D01*
X1598Y-225300D01*
X1936Y-226416D01*
X2486Y-227445D01*
X3226Y-228347D01*
X4128Y-229087D01*
X5156Y-229637D01*
X6272Y-229975D01*
X6433Y-229991D01*
Y-225140D01*
D02*
G37*
G36*
X13284D02*
X8433D01*
Y-229991D01*
X8594Y-229975D01*
X9710Y-229637D01*
X10739Y-229087D01*
X11640Y-228347D01*
X12380Y-227445D01*
X12930Y-226416D01*
X13269Y-225300D01*
X13284Y-225140D01*
D02*
G37*
G36*
X331310Y-227167D02*
X330129D01*
Y-230219D01*
X331310D01*
Y-227167D01*
D02*
G37*
G36*
X102968Y-229557D02*
X102468D01*
Y-233096D01*
X107375D01*
X107352Y-232921D01*
X106899Y-231826D01*
X106177Y-230887D01*
X105237Y-230165D01*
X104143Y-229712D01*
X102968Y-229557D01*
D02*
G37*
G36*
X72180D02*
X71680D01*
Y-233096D01*
X76587D01*
X76564Y-232921D01*
X76110Y-231826D01*
X75389Y-230887D01*
X74449Y-230165D01*
X73354Y-229712D01*
X72180Y-229557D01*
D02*
G37*
G36*
X41391D02*
X40891D01*
Y-233096D01*
X45798D01*
X45775Y-232921D01*
X45322Y-231826D01*
X44600Y-230887D01*
X43660Y-230165D01*
X42566Y-229712D01*
X41391Y-229557D01*
D02*
G37*
G36*
X100468D02*
X99968D01*
X98793Y-229712D01*
X97698Y-230165D01*
X96759Y-230887D01*
X96037Y-231826D01*
X95584Y-232921D01*
X95561Y-233096D01*
X100468D01*
Y-229557D01*
D02*
G37*
G36*
X69679D02*
X69179D01*
X68005Y-229712D01*
X66910Y-230165D01*
X65970Y-230887D01*
X65249Y-231826D01*
X64795Y-232921D01*
X64772Y-233096D01*
X69679D01*
Y-229557D01*
D02*
G37*
G36*
X38891D02*
X38391D01*
X37216Y-229712D01*
X36122Y-230165D01*
X35182Y-230887D01*
X34460Y-231826D01*
X34007Y-232921D01*
X33984Y-233096D01*
X38891D01*
Y-229557D01*
D02*
G37*
G36*
X334491Y-232219D02*
X333310D01*
Y-235270D01*
X334491D01*
Y-232219D01*
D02*
G37*
G36*
X331310D02*
X330129D01*
Y-235270D01*
X331310D01*
Y-232219D01*
D02*
G37*
G36*
X389595Y-223101D02*
X376976D01*
X376062Y-223222D01*
X375211Y-223574D01*
X374479Y-224135D01*
X370680Y-227935D01*
X370119Y-228666D01*
X369766Y-229518D01*
X369646Y-230431D01*
Y-235469D01*
X367829Y-237286D01*
X359681D01*
X359125Y-236609D01*
X358224Y-235869D01*
X357195Y-235319D01*
X356079Y-234981D01*
X354918Y-234867D01*
X353757Y-234981D01*
X352641Y-235319D01*
X351613Y-235869D01*
X350711Y-236609D01*
X349971Y-237511D01*
X349421Y-238540D01*
X349083Y-239656D01*
X348968Y-240816D01*
X349083Y-241977D01*
X349421Y-243093D01*
X349971Y-244122D01*
X350711Y-245024D01*
X351613Y-245764D01*
X352641Y-246314D01*
X353757Y-246652D01*
X354918Y-246766D01*
X356079Y-246652D01*
X357195Y-246314D01*
X358224Y-245764D01*
X359125Y-245024D01*
X359681Y-244347D01*
X369291D01*
X370205Y-244226D01*
X371056Y-243874D01*
X371787Y-243313D01*
X375672Y-239428D01*
X376233Y-238697D01*
X376586Y-237845D01*
X376706Y-236932D01*
Y-231893D01*
X378438Y-230162D01*
X388133D01*
X388347Y-230376D01*
Y-237226D01*
X400190D01*
Y-225383D01*
X393340D01*
X392092Y-224135D01*
X391360Y-223574D01*
X390509Y-223222D01*
X389595Y-223101D01*
D02*
G37*
G36*
X107375Y-235096D02*
X102468D01*
Y-238635D01*
X102968D01*
X104143Y-238480D01*
X105237Y-238027D01*
X106177Y-237305D01*
X106899Y-236365D01*
X107352Y-235271D01*
X107375Y-235096D01*
D02*
G37*
G36*
X100468D02*
X95561D01*
X95584Y-235271D01*
X96037Y-236365D01*
X96759Y-237305D01*
X97698Y-238027D01*
X98793Y-238480D01*
X99968Y-238635D01*
X100468D01*
Y-235096D01*
D02*
G37*
G36*
X76587D02*
X71680D01*
Y-238635D01*
X72180D01*
X73354Y-238480D01*
X74449Y-238027D01*
X75389Y-237305D01*
X76110Y-236365D01*
X76564Y-235271D01*
X76587Y-235096D01*
D02*
G37*
G36*
X69679D02*
X64772D01*
X64795Y-235271D01*
X65249Y-236365D01*
X65970Y-237305D01*
X66910Y-238027D01*
X68005Y-238480D01*
X69179Y-238635D01*
X69679D01*
Y-235096D01*
D02*
G37*
G36*
X45798D02*
X40891D01*
Y-238635D01*
X41391D01*
X42566Y-238480D01*
X43660Y-238027D01*
X44600Y-237305D01*
X45322Y-236365D01*
X45775Y-235271D01*
X45798Y-235096D01*
D02*
G37*
G36*
X38891D02*
X33984D01*
X34007Y-235271D01*
X34460Y-236365D01*
X35182Y-237305D01*
X36122Y-238027D01*
X37216Y-238480D01*
X38391Y-238635D01*
X38891D01*
Y-235096D01*
D02*
G37*
G36*
X258314Y-241642D02*
X256345D01*
Y-244392D01*
X258314D01*
Y-241642D01*
D02*
G37*
G36*
X254345D02*
X252377D01*
Y-244392D01*
X254345D01*
Y-241642D01*
D02*
G37*
G36*
X258314Y-246392D02*
X252377D01*
Y-249142D01*
Y-251478D01*
X258314D01*
Y-249142D01*
Y-246392D01*
D02*
G37*
G36*
Y-253478D02*
X256345D01*
Y-256228D01*
X258314D01*
Y-253478D01*
D02*
G37*
G36*
X254345D02*
X252377D01*
Y-256228D01*
X254345D01*
Y-253478D01*
D02*
G37*
G36*
X99906Y-259147D02*
X95906D01*
Y-263674D01*
X99906D01*
Y-259147D01*
D02*
G37*
G36*
X93906D02*
X89906D01*
Y-263674D01*
X93906D01*
Y-259147D01*
D02*
G37*
G36*
X99906Y-265674D02*
X95906D01*
Y-270202D01*
X99906D01*
Y-265674D01*
D02*
G37*
G36*
X93906D02*
X89906D01*
Y-270202D01*
X93906D01*
Y-265674D01*
D02*
G37*
G36*
X255839Y-265792D02*
Y-270643D01*
X260691D01*
X260675Y-270482D01*
X260336Y-269366D01*
X259787Y-268338D01*
X259047Y-267436D01*
X258145Y-266696D01*
X257116Y-266146D01*
X256000Y-265808D01*
X255839Y-265792D01*
D02*
G37*
G36*
X253839D02*
X253679Y-265808D01*
X252562Y-266146D01*
X251534Y-266696D01*
X250632Y-267436D01*
X249892Y-268338D01*
X249342Y-269366D01*
X249004Y-270482D01*
X248988Y-270643D01*
X253839D01*
Y-265792D01*
D02*
G37*
G36*
X395951Y-262391D02*
Y-274164D01*
X407723D01*
X407644Y-273153D01*
X407173Y-271192D01*
X406401Y-269329D01*
X405348Y-267610D01*
X404038Y-266077D01*
X402505Y-264767D01*
X400785Y-263714D01*
X398922Y-262942D01*
X396961Y-262471D01*
X395951Y-262391D01*
D02*
G37*
G36*
X393951D02*
X392941Y-262471D01*
X390980Y-262942D01*
X389117Y-263714D01*
X387398Y-264767D01*
X385864Y-266077D01*
X384555Y-267610D01*
X383501Y-269329D01*
X382730Y-271192D01*
X382259Y-273153D01*
X382179Y-274164D01*
X393951D01*
Y-262391D01*
D02*
G37*
G36*
X2251D02*
Y-274164D01*
X14022D01*
X13943Y-273153D01*
X13472Y-271192D01*
X12700Y-269329D01*
X11647Y-267610D01*
X10337Y-266077D01*
X8804Y-264767D01*
X7085Y-263714D01*
X5221Y-262942D01*
X3261Y-262471D01*
X2251Y-262391D01*
D02*
G37*
G36*
X250D02*
X-760Y-262471D01*
X-2721Y-262942D01*
X-4584Y-263714D01*
X-6303Y-264767D01*
X-7836Y-266077D01*
X-9146Y-267610D01*
X-10199Y-269329D01*
X-10971Y-271192D01*
X-11442Y-273153D01*
X-11522Y-274164D01*
X250D01*
Y-262391D01*
D02*
G37*
G36*
X260691Y-272643D02*
X255839D01*
Y-277495D01*
X256000Y-277479D01*
X257116Y-277140D01*
X258145Y-276590D01*
X259047Y-275851D01*
X259787Y-274949D01*
X260336Y-273920D01*
X260675Y-272804D01*
X260691Y-272643D01*
D02*
G37*
G36*
X253839D02*
X248988D01*
X249004Y-272804D01*
X249342Y-273920D01*
X249892Y-274949D01*
X250632Y-275851D01*
X251534Y-276590D01*
X252562Y-277140D01*
X253679Y-277479D01*
X253839Y-277495D01*
Y-272643D01*
D02*
G37*
G36*
X13354Y-238218D02*
X1512D01*
Y-250061D01*
X13354D01*
Y-248174D01*
X17665D01*
X24706Y-255215D01*
Y-265354D01*
X24706Y-265354D01*
X24843Y-266399D01*
X25246Y-267372D01*
X25887Y-268207D01*
X35730Y-278050D01*
X36565Y-278691D01*
X37538Y-279094D01*
X38583Y-279231D01*
X57359D01*
X58141Y-280251D01*
X59255Y-281106D01*
X60552Y-281643D01*
X61943Y-281826D01*
X63335Y-281643D01*
X64632Y-281106D01*
X65745Y-280251D01*
X66600Y-279138D01*
X66694Y-278909D01*
X77192D01*
X77287Y-279138D01*
X78141Y-280251D01*
X79255Y-281106D01*
X80552Y-281643D01*
X81943Y-281826D01*
X83335Y-281643D01*
X84632Y-281106D01*
X85745Y-280251D01*
X86600Y-279138D01*
X87137Y-277841D01*
X87320Y-276449D01*
Y-273300D01*
X87137Y-271908D01*
X86600Y-270611D01*
X85745Y-269498D01*
X84632Y-268643D01*
X83335Y-268106D01*
X81943Y-267923D01*
X80552Y-268106D01*
X79255Y-268643D01*
X78141Y-269498D01*
X77287Y-270611D01*
X77192Y-270840D01*
X66694D01*
X66600Y-270611D01*
X65745Y-269498D01*
X64632Y-268643D01*
X63335Y-268106D01*
X61943Y-267923D01*
X60552Y-268106D01*
X59255Y-268643D01*
X58141Y-269498D01*
X57287Y-270611D01*
X57059Y-271162D01*
X40254D01*
X32775Y-263683D01*
Y-253543D01*
X32637Y-252499D01*
X32234Y-251526D01*
X31593Y-250691D01*
X22189Y-241287D01*
X21354Y-240646D01*
X20381Y-240243D01*
X19336Y-240105D01*
X19336Y-240105D01*
X13354D01*
Y-238218D01*
D02*
G37*
G36*
X99906Y-279547D02*
X95906D01*
Y-284074D01*
X99906D01*
Y-279547D01*
D02*
G37*
G36*
X93906D02*
X89906D01*
Y-284074D01*
X93906D01*
Y-279547D01*
D02*
G37*
G36*
X359524Y-268322D02*
X357978Y-268474D01*
X356491Y-268925D01*
X355120Y-269658D01*
X353919Y-270644D01*
X352933Y-271845D01*
X352200Y-273216D01*
X351749Y-274703D01*
X351596Y-276250D01*
X351749Y-277796D01*
X352200Y-279283D01*
X352933Y-280654D01*
X353919Y-281856D01*
X355120Y-282841D01*
X356491Y-283574D01*
X357978Y-284025D01*
X359524Y-284177D01*
X361071Y-284025D01*
X362558Y-283574D01*
X363929Y-282841D01*
X365130Y-281856D01*
X366116Y-280654D01*
X366849Y-279283D01*
X367300Y-277796D01*
X367452Y-276250D01*
X367300Y-274703D01*
X366849Y-273216D01*
X366116Y-271845D01*
X365130Y-270644D01*
X363929Y-269658D01*
X362558Y-268925D01*
X361071Y-268474D01*
X359524Y-268322D01*
D02*
G37*
G36*
X213855D02*
X212309Y-268474D01*
X210821Y-268925D01*
X209451Y-269658D01*
X208249Y-270644D01*
X207263Y-271845D01*
X206531Y-273216D01*
X206080Y-274703D01*
X205927Y-276250D01*
X206080Y-277796D01*
X206531Y-279283D01*
X207263Y-280654D01*
X208249Y-281856D01*
X209451Y-282841D01*
X210821Y-283574D01*
X212309Y-284025D01*
X213855Y-284177D01*
X215402Y-284025D01*
X216889Y-283574D01*
X218260Y-282841D01*
X219461Y-281856D01*
X220447Y-280654D01*
X221180Y-279283D01*
X221631Y-277796D01*
X221783Y-276250D01*
X221631Y-274703D01*
X221180Y-273216D01*
X220447Y-271845D01*
X219461Y-270644D01*
X218260Y-269658D01*
X216889Y-268925D01*
X215402Y-268474D01*
X213855Y-268322D01*
D02*
G37*
G36*
X384252Y-137331D02*
X383472Y-137486D01*
X382810Y-137928D01*
X377298Y-143440D01*
X376856Y-144102D01*
X376701Y-144882D01*
Y-152623D01*
X376368Y-152667D01*
X375638Y-152970D01*
X375011Y-153451D01*
X364062Y-164399D01*
X363584Y-164171D01*
X363583Y-163922D01*
Y-153349D01*
X361623D01*
Y-149803D01*
X362552D01*
Y-142303D01*
X356615D01*
Y-149803D01*
X357544D01*
Y-153349D01*
X355584D01*
Y-164348D01*
X363122D01*
X363406Y-164348D01*
X363634Y-164827D01*
X362868Y-165594D01*
X209790Y-165594D01*
X209007Y-165697D01*
X208277Y-166000D01*
X207651Y-166481D01*
X207651Y-166481D01*
X196092Y-178040D01*
X195611Y-178666D01*
X195308Y-179396D01*
X195205Y-180179D01*
Y-180422D01*
X194966Y-180780D01*
X194811Y-181560D01*
Y-238099D01*
X194966Y-238879D01*
X195408Y-239541D01*
X196070Y-239983D01*
X196850Y-240138D01*
X197631Y-239983D01*
X198292Y-239541D01*
X198734Y-238879D01*
X198890Y-238099D01*
Y-227105D01*
X199352Y-226914D01*
X202827Y-230389D01*
Y-236258D01*
X202930Y-237041D01*
X203233Y-237771D01*
X203714Y-238398D01*
X208272Y-242956D01*
X208899Y-243437D01*
X209629Y-243739D01*
X210412Y-243842D01*
X210412Y-243842D01*
X213365D01*
X213514Y-244122D01*
X214254Y-245024D01*
X215156Y-245764D01*
X216184Y-246314D01*
X217301Y-246652D01*
X218461Y-246766D01*
X219622Y-246652D01*
X220738Y-246314D01*
X221767Y-245764D01*
X222669Y-245024D01*
X223409Y-244122D01*
X223958Y-243093D01*
X224297Y-241977D01*
X224411Y-240816D01*
X224297Y-239656D01*
X223958Y-238540D01*
X223409Y-237511D01*
X222669Y-236609D01*
X221767Y-235869D01*
X220738Y-235319D01*
X219622Y-234981D01*
X218461Y-234867D01*
X217301Y-234981D01*
X216184Y-235319D01*
X215156Y-235869D01*
X214254Y-236609D01*
X213514Y-237511D01*
X213365Y-237791D01*
X211665D01*
X208879Y-235005D01*
Y-229136D01*
X208879Y-229136D01*
X208776Y-228353D01*
X208474Y-227623D01*
X207993Y-226996D01*
X207993Y-226996D01*
X201257Y-220261D01*
Y-215931D01*
X201749Y-215860D01*
X202052Y-216590D01*
X202533Y-217216D01*
X208272Y-222956D01*
X208899Y-223437D01*
X209629Y-223739D01*
X210412Y-223842D01*
X212540D01*
Y-226738D01*
X224383D01*
Y-214895D01*
X212540D01*
Y-217791D01*
X211665D01*
X207698Y-213824D01*
Y-184441D01*
X214025Y-178113D01*
X236551D01*
X236638Y-178613D01*
X236075Y-178989D01*
X231354Y-183710D01*
X230912Y-184372D01*
X230757Y-185152D01*
Y-194351D01*
X229828D01*
Y-201851D01*
X235765D01*
Y-194351D01*
X234835D01*
Y-185997D01*
X238362Y-182470D01*
X257914D01*
Y-194351D01*
X256985D01*
Y-201851D01*
X262922D01*
Y-194351D01*
X261993D01*
Y-182470D01*
X285072D01*
Y-194351D01*
X284143D01*
Y-201851D01*
X285072D01*
Y-206990D01*
X281961Y-210100D01*
X280137D01*
Y-207140D01*
X277994D01*
X277840Y-206795D01*
X277824Y-206640D01*
X279553Y-204910D01*
X279995Y-204249D01*
X280150Y-203469D01*
X280150Y-203468D01*
Y-201851D01*
X281080D01*
Y-194351D01*
X280150D01*
Y-193826D01*
X280964Y-193201D01*
X281605Y-192366D01*
X282008Y-191393D01*
X282146Y-190348D01*
Y-187348D01*
X282008Y-186304D01*
X281605Y-185331D01*
X280964Y-184496D01*
X280128Y-183854D01*
X279155Y-183451D01*
X278111Y-183314D01*
X277067Y-183451D01*
X276094Y-183854D01*
X275258Y-184496D01*
X274617Y-185331D01*
X274214Y-186304D01*
X274077Y-187348D01*
Y-190348D01*
X274214Y-191393D01*
X274617Y-192366D01*
X275258Y-193201D01*
X276072Y-193826D01*
Y-194351D01*
X275143D01*
Y-201851D01*
X276072D01*
Y-202624D01*
X275501Y-203195D01*
X257452D01*
X256671Y-203350D01*
X256010Y-203792D01*
X253455Y-206347D01*
X252993Y-206156D01*
Y-201851D01*
X253922D01*
Y-194351D01*
X252993D01*
Y-193826D01*
X253806Y-193201D01*
X254448Y-192366D01*
X254851Y-191393D01*
X254988Y-190348D01*
Y-187348D01*
X254851Y-186304D01*
X254448Y-185331D01*
X253806Y-184496D01*
X252971Y-183854D01*
X251998Y-183451D01*
X250954Y-183314D01*
X249909Y-183451D01*
X248936Y-183854D01*
X248101Y-184496D01*
X247460Y-185331D01*
X247057Y-186304D01*
X246919Y-187348D01*
Y-190348D01*
X247057Y-191393D01*
X247460Y-192366D01*
X248101Y-193201D01*
X248914Y-193826D01*
Y-194351D01*
X247985D01*
Y-201851D01*
X248914D01*
Y-206349D01*
X248452Y-206540D01*
X245705Y-203792D01*
X245043Y-203350D01*
X244263Y-203195D01*
X226407D01*
X225835Y-202624D01*
Y-201851D01*
X226765D01*
Y-194351D01*
X225835D01*
Y-193826D01*
X226649Y-193201D01*
X227290Y-192366D01*
X227693Y-191393D01*
X227831Y-190348D01*
Y-187348D01*
X227693Y-186304D01*
X227290Y-185331D01*
X226649Y-184496D01*
X225813Y-183854D01*
X224840Y-183451D01*
X223796Y-183314D01*
X222752Y-183451D01*
X221779Y-183854D01*
X220943Y-184496D01*
X220302Y-185331D01*
X219899Y-186304D01*
X219762Y-187348D01*
Y-190348D01*
X219899Y-191393D01*
X220302Y-192366D01*
X220943Y-193201D01*
X221757Y-193826D01*
Y-194351D01*
X220828D01*
Y-201851D01*
X221757D01*
Y-203469D01*
X221912Y-204249D01*
X222354Y-204910D01*
X224120Y-206676D01*
X224781Y-207118D01*
X225562Y-207274D01*
X225562Y-207274D01*
X243418D01*
X245914Y-209770D01*
Y-218517D01*
X246070Y-219298D01*
X246512Y-219959D01*
X252134Y-225582D01*
X252796Y-226024D01*
X253576Y-226179D01*
X269082D01*
Y-235140D01*
X271835D01*
Y-246951D01*
X269609D01*
Y-249705D01*
X267314D01*
Y-241642D01*
X261377D01*
Y-249142D01*
Y-256228D01*
X261572D01*
Y-261149D01*
X261666Y-261867D01*
X261943Y-262536D01*
X262384Y-263110D01*
X269179Y-269905D01*
X269004Y-270482D01*
X268889Y-271643D01*
X269004Y-272804D01*
X269342Y-273920D01*
X269892Y-274949D01*
X270632Y-275851D01*
X271534Y-276590D01*
X272563Y-277140D01*
X273679Y-277479D01*
X274839Y-277593D01*
X276000Y-277479D01*
X277116Y-277140D01*
X278145Y-276590D01*
X279047Y-275851D01*
X279787Y-274949D01*
X280336Y-273920D01*
X280675Y-272804D01*
X280789Y-271643D01*
X280675Y-270482D01*
X280336Y-269366D01*
X279787Y-268338D01*
X279047Y-267436D01*
X278145Y-266696D01*
X277116Y-266146D01*
X276000Y-265808D01*
X274839Y-265693D01*
X273679Y-265808D01*
X273102Y-265983D01*
X267119Y-260000D01*
Y-256228D01*
X267314D01*
Y-255252D01*
X269609D01*
Y-258006D01*
X278570D01*
Y-263672D01*
X278725Y-264453D01*
X279167Y-265114D01*
X285690Y-271637D01*
X286351Y-272079D01*
X287132Y-272234D01*
X288365D01*
X288989Y-272859D01*
X288798Y-273320D01*
X287304D01*
Y-282407D01*
X296391D01*
Y-273320D01*
X293886D01*
Y-272833D01*
X293844Y-272621D01*
X294162Y-272234D01*
X298365D01*
X299506Y-273375D01*
X299522Y-273544D01*
X299422Y-273998D01*
X298607Y-274623D01*
X297879Y-275572D01*
X297421Y-276678D01*
X297265Y-277864D01*
X297421Y-279050D01*
X297879Y-280155D01*
X298607Y-281104D01*
X299556Y-281832D01*
X300661Y-282290D01*
X301847Y-282446D01*
X303033Y-282290D01*
X304139Y-281832D01*
X305088Y-281104D01*
X305816Y-280155D01*
X306274Y-279050D01*
X306430Y-277864D01*
X306274Y-276678D01*
X305816Y-275572D01*
X305088Y-274623D01*
X304139Y-273895D01*
X303887Y-273791D01*
Y-272833D01*
X303844Y-272621D01*
X304162Y-272234D01*
X308365D01*
X309506Y-273375D01*
X309522Y-273544D01*
X309422Y-273998D01*
X308607Y-274623D01*
X307879Y-275572D01*
X307421Y-276678D01*
X307265Y-277864D01*
X307421Y-279050D01*
X307879Y-280155D01*
X308607Y-281104D01*
X309556Y-281832D01*
X310661Y-282290D01*
X311847Y-282446D01*
X313033Y-282290D01*
X314139Y-281832D01*
X315088Y-281104D01*
X315816Y-280155D01*
X316274Y-279050D01*
X316430Y-277864D01*
X316274Y-276678D01*
X315816Y-275572D01*
X315088Y-274623D01*
X314139Y-273895D01*
X313886Y-273791D01*
Y-272833D01*
X313731Y-272052D01*
X313289Y-271391D01*
X310651Y-268753D01*
X309990Y-268311D01*
X309209Y-268156D01*
X304297D01*
X301894Y-265753D01*
X301233Y-265311D01*
X300452Y-265156D01*
X295539D01*
X293950Y-263567D01*
X294184Y-263093D01*
X294436Y-263126D01*
X300341D01*
X301059Y-263032D01*
X301728Y-262755D01*
X302303Y-262314D01*
X304271Y-260345D01*
X304712Y-259771D01*
X304989Y-259102D01*
X305084Y-258384D01*
Y-257011D01*
X305129Y-256530D01*
X309491D01*
Y-248972D01*
X309629Y-248880D01*
X310129Y-249147D01*
Y-256530D01*
X310271D01*
Y-263295D01*
X310426Y-264076D01*
X310868Y-264737D01*
X319506Y-273375D01*
X319522Y-273544D01*
X319422Y-273998D01*
X318607Y-274623D01*
X317879Y-275572D01*
X317421Y-276678D01*
X317265Y-277864D01*
X317421Y-279050D01*
X317879Y-280155D01*
X318607Y-281104D01*
X319556Y-281832D01*
X320661Y-282290D01*
X321847Y-282446D01*
X323033Y-282290D01*
X324139Y-281832D01*
X325088Y-281104D01*
X325816Y-280155D01*
X326274Y-279050D01*
X326430Y-277864D01*
X326274Y-276678D01*
X325816Y-275572D01*
X325088Y-274623D01*
X324139Y-273895D01*
X323886Y-273791D01*
Y-272833D01*
X323886Y-272833D01*
X323731Y-272052D01*
X323289Y-271391D01*
X314349Y-262451D01*
Y-256530D01*
X314491D01*
X314491Y-248770D01*
X314934Y-248478D01*
X315129Y-248583D01*
Y-256530D01*
X319491D01*
Y-248972D01*
X319629Y-248880D01*
X320129Y-249147D01*
Y-256530D01*
X320271D01*
Y-263295D01*
X320426Y-264076D01*
X320868Y-264737D01*
X329506Y-273375D01*
X329522Y-273544D01*
X329422Y-273998D01*
X328607Y-274623D01*
X327879Y-275572D01*
X327421Y-276678D01*
X327265Y-277864D01*
X327421Y-279050D01*
X327879Y-280155D01*
X328607Y-281104D01*
X329556Y-281832D01*
X330661Y-282290D01*
X331847Y-282446D01*
X333033Y-282290D01*
X334139Y-281832D01*
X335088Y-281104D01*
X335816Y-280155D01*
X336274Y-279050D01*
X336430Y-277864D01*
X336274Y-276678D01*
X335816Y-275572D01*
X335088Y-274623D01*
X334139Y-273895D01*
X333887Y-273791D01*
Y-272833D01*
X333887Y-272833D01*
X333731Y-272052D01*
X333289Y-271391D01*
X324349Y-262451D01*
Y-256530D01*
X324491D01*
Y-248427D01*
X320518Y-248427D01*
X320514D01*
X320514D01*
X320396Y-248427D01*
X320315Y-248231D01*
X320189Y-247927D01*
X323048Y-245069D01*
X326627D01*
X326818Y-245531D01*
X325868Y-246481D01*
X325426Y-247143D01*
X325271Y-247923D01*
Y-248427D01*
X325129D01*
Y-256530D01*
X329491D01*
Y-248972D01*
X329629Y-248880D01*
X330129Y-249147D01*
Y-256530D01*
X330271D01*
Y-263296D01*
X330426Y-264076D01*
X330868Y-264738D01*
X338990Y-272859D01*
X338798Y-273321D01*
X337304D01*
Y-282408D01*
X346391D01*
Y-273321D01*
X343887D01*
Y-272833D01*
X343732Y-272053D01*
X343290Y-271392D01*
X334349Y-262451D01*
Y-256530D01*
X334491D01*
Y-248569D01*
X334491Y-248427D01*
X334833Y-248069D01*
X337777D01*
X338557Y-247914D01*
X339218Y-247471D01*
X344669Y-242021D01*
X345111Y-241360D01*
X345266Y-240579D01*
X345266Y-240579D01*
Y-223833D01*
X345111Y-223052D01*
X344669Y-222391D01*
X337465Y-215187D01*
Y-209577D01*
X339769Y-207274D01*
X357818D01*
X358598Y-207118D01*
X359260Y-206676D01*
X361026Y-204910D01*
X361468Y-204249D01*
X361623Y-203469D01*
X361623Y-203468D01*
Y-201851D01*
X362552D01*
Y-194351D01*
X361623D01*
Y-193826D01*
X362436Y-193201D01*
X363077Y-192366D01*
X363481Y-191393D01*
X363618Y-190348D01*
Y-187348D01*
X363481Y-186304D01*
X363077Y-185331D01*
X362436Y-184496D01*
X361601Y-183854D01*
X360628Y-183451D01*
X359583Y-183314D01*
X358539Y-183451D01*
X357566Y-183854D01*
X356731Y-184496D01*
X356089Y-185331D01*
X355686Y-186304D01*
X355549Y-187348D01*
Y-190348D01*
X355686Y-191393D01*
X356089Y-192366D01*
X356731Y-193201D01*
X357544Y-193826D01*
Y-194351D01*
X356615D01*
Y-201851D01*
X357544D01*
Y-202624D01*
X356973Y-203195D01*
X338924D01*
X338144Y-203350D01*
X337482Y-203792D01*
X334927Y-206347D01*
X334465Y-206156D01*
Y-201851D01*
X335395D01*
Y-194351D01*
X334465D01*
Y-193826D01*
X335279Y-193201D01*
X335920Y-192366D01*
X336323Y-191393D01*
X336461Y-190348D01*
Y-187348D01*
X336323Y-186304D01*
X335920Y-185331D01*
X335279Y-184496D01*
X334443Y-183854D01*
X333470Y-183451D01*
X332426Y-183314D01*
X331382Y-183451D01*
X330409Y-183854D01*
X329573Y-184496D01*
X328932Y-185331D01*
X328529Y-186304D01*
X328392Y-187348D01*
Y-190348D01*
X328529Y-191393D01*
X328932Y-192366D01*
X329573Y-193201D01*
X330387Y-193826D01*
Y-194351D01*
X329458D01*
Y-201851D01*
X330387D01*
Y-206349D01*
X329925Y-206540D01*
X327177Y-203792D01*
X326516Y-203350D01*
X325735Y-203195D01*
X307879D01*
X307308Y-202624D01*
Y-201851D01*
X308237D01*
Y-194351D01*
X307308D01*
Y-193826D01*
X308121Y-193201D01*
X308763Y-192366D01*
X309166Y-191393D01*
X309303Y-190348D01*
Y-187348D01*
X309166Y-186304D01*
X308763Y-185331D01*
X308121Y-184496D01*
X307286Y-183854D01*
X306313Y-183451D01*
X305269Y-183314D01*
X304224Y-183451D01*
X303251Y-183854D01*
X302416Y-184496D01*
X301775Y-185331D01*
X301372Y-186304D01*
X301234Y-187348D01*
Y-190348D01*
X301372Y-191393D01*
X301775Y-192366D01*
X302416Y-193201D01*
X303229Y-193826D01*
Y-194351D01*
X302300D01*
Y-201851D01*
X303229D01*
Y-203469D01*
X303385Y-204249D01*
X303827Y-204910D01*
X305592Y-206676D01*
X306254Y-207118D01*
X307034Y-207274D01*
X307034Y-207274D01*
X324890D01*
X327387Y-209770D01*
Y-218517D01*
X327542Y-219298D01*
X327984Y-219959D01*
X334835Y-226810D01*
X334658Y-226990D01*
X334451Y-227167D01*
X333993Y-227167D01*
X333310D01*
Y-230219D01*
X334491D01*
Y-227667D01*
X334491Y-227239D01*
X334887Y-226923D01*
X335188Y-227191D01*
Y-237249D01*
X334447Y-237990D01*
X327891D01*
X327700Y-237528D01*
X328752Y-236476D01*
X328752Y-236476D01*
X329194Y-235815D01*
X329302Y-235270D01*
X329491D01*
Y-227167D01*
X325129D01*
Y-234005D01*
X324991Y-234121D01*
X324491Y-233889D01*
Y-227167D01*
X324349D01*
Y-225987D01*
X324194Y-225206D01*
X323752Y-224545D01*
X323752Y-224545D01*
X321905Y-222698D01*
X321243Y-222256D01*
X320463Y-222100D01*
X315550D01*
X313148Y-219698D01*
X312486Y-219256D01*
X311706Y-219100D01*
X306793D01*
X304390Y-216698D01*
X303729Y-216256D01*
X302948Y-216100D01*
X280137D01*
Y-214179D01*
X282806D01*
X283587Y-214024D01*
X284248Y-213581D01*
X288553Y-209277D01*
X288995Y-208615D01*
X289150Y-207835D01*
Y-201851D01*
X290080D01*
Y-194351D01*
X289150D01*
Y-182470D01*
X312229D01*
Y-194351D01*
X311300D01*
Y-201851D01*
X317237D01*
Y-194351D01*
X316308D01*
Y-182470D01*
X339387D01*
Y-194351D01*
X338458D01*
Y-201851D01*
X344395D01*
Y-194351D01*
X343465D01*
Y-182470D01*
X363276D01*
X366544Y-185738D01*
Y-194351D01*
X365615D01*
Y-201851D01*
X371552D01*
Y-194351D01*
X370623D01*
Y-184894D01*
X370623Y-184894D01*
X370467Y-184113D01*
X370025Y-183452D01*
X370025Y-183452D01*
X365563Y-178989D01*
X365000Y-178613D01*
X365087Y-178113D01*
X366800D01*
X367583Y-178010D01*
X368313Y-177708D01*
X368939Y-177227D01*
X378550Y-167616D01*
X388342D01*
X388347Y-167621D01*
Y-175185D01*
X400190D01*
Y-163342D01*
X392627D01*
X391735Y-162451D01*
X391108Y-161970D01*
X390379Y-161667D01*
X389595Y-161564D01*
X377297D01*
X377297Y-161564D01*
X376514Y-161667D01*
X375784Y-161970D01*
X375672Y-162056D01*
X375341Y-161679D01*
X378404Y-158616D01*
X387942D01*
X388725Y-158513D01*
X389455Y-158211D01*
X390081Y-157730D01*
X392804Y-155007D01*
X393108Y-155099D01*
X394269Y-155213D01*
X395429Y-155099D01*
X396546Y-154760D01*
X397574Y-154210D01*
X398476Y-153471D01*
X399216Y-152569D01*
X399766Y-151540D01*
X400104Y-150424D01*
X400218Y-149263D01*
X400104Y-148102D01*
X399766Y-146986D01*
X399216Y-145958D01*
X398476Y-145056D01*
X397574Y-144316D01*
X396546Y-143766D01*
X395429Y-143428D01*
X394269Y-143313D01*
X393108Y-143428D01*
X391992Y-143766D01*
X390963Y-144316D01*
X390061Y-145056D01*
X389321Y-145958D01*
X388772Y-146986D01*
X388433Y-148102D01*
X388319Y-149263D01*
X388433Y-150424D01*
X388525Y-150728D01*
X386688Y-152564D01*
X380779D01*
Y-145727D01*
X385097Y-141409D01*
X398837D01*
X404654Y-147226D01*
Y-238919D01*
X395218Y-248355D01*
X379997D01*
X379217Y-248510D01*
X378555Y-248952D01*
X369894Y-257613D01*
X369451Y-258275D01*
X369296Y-259055D01*
Y-280054D01*
X363200Y-286150D01*
X206750D01*
X198890Y-278289D01*
Y-272047D01*
X198734Y-271267D01*
X198292Y-270605D01*
X197631Y-270163D01*
X196850Y-270008D01*
X196070Y-270163D01*
X195408Y-270605D01*
X194966Y-271267D01*
X194811Y-272047D01*
Y-279134D01*
X194966Y-279914D01*
X195408Y-280576D01*
X204464Y-289631D01*
X205125Y-290073D01*
X205906Y-290228D01*
X364045D01*
X364825Y-290073D01*
X365487Y-289631D01*
X372777Y-282340D01*
X373219Y-281679D01*
X373375Y-280898D01*
X373375Y-280898D01*
Y-259900D01*
X380842Y-252433D01*
X396063D01*
X396843Y-252278D01*
X397505Y-251836D01*
X408135Y-241206D01*
X408577Y-240544D01*
X408732Y-239764D01*
Y-146381D01*
X408577Y-145601D01*
X408135Y-144939D01*
X401124Y-137928D01*
X400462Y-137486D01*
X399682Y-137331D01*
X384252D01*
X384252Y-137331D01*
D02*
G37*
G36*
X407723Y-276164D02*
X395951D01*
Y-287935D01*
X396961Y-287856D01*
X398922Y-287385D01*
X400785Y-286613D01*
X402505Y-285560D01*
X404038Y-284250D01*
X405348Y-282717D01*
X406401Y-280997D01*
X407173Y-279134D01*
X407644Y-277174D01*
X407723Y-276164D01*
D02*
G37*
G36*
X393951D02*
X382179D01*
X382259Y-277174D01*
X382730Y-279134D01*
X383501Y-280997D01*
X384555Y-282717D01*
X385864Y-284250D01*
X387398Y-285560D01*
X389117Y-286613D01*
X390980Y-287385D01*
X392941Y-287856D01*
X393951Y-287935D01*
Y-276164D01*
D02*
G37*
G36*
X14022D02*
X2251D01*
Y-287935D01*
X3261Y-287856D01*
X5221Y-287385D01*
X7085Y-286613D01*
X8804Y-285560D01*
X10337Y-284250D01*
X11647Y-282717D01*
X12700Y-280997D01*
X13472Y-279134D01*
X13943Y-277174D01*
X14022Y-276164D01*
D02*
G37*
G36*
X250D02*
X-11522D01*
X-11442Y-277174D01*
X-10971Y-279134D01*
X-10199Y-280997D01*
X-9146Y-282717D01*
X-7836Y-284250D01*
X-6303Y-285560D01*
X-4584Y-286613D01*
X-2721Y-287385D01*
X-760Y-287856D01*
X250Y-287935D01*
Y-276164D01*
D02*
G37*
G36*
X99906Y-286074D02*
X95906D01*
Y-290602D01*
X99906D01*
Y-286074D01*
D02*
G37*
G36*
X93906D02*
X89906D01*
Y-290602D01*
X93906D01*
Y-286074D01*
D02*
G37*
%LPD*%
G36*
X376879Y-33213D02*
X376672Y-33713D01*
X375909D01*
Y-37463D01*
Y-41213D01*
X376672D01*
X376879Y-41713D01*
X376475Y-42116D01*
X366552D01*
X366506Y-42014D01*
X366832Y-41514D01*
X366892Y-41514D01*
X370764D01*
Y-33411D01*
X366402D01*
Y-41014D01*
X366402Y-41153D01*
X366393Y-41211D01*
X366349Y-41269D01*
X365907Y-41484D01*
X365890Y-41478D01*
X365764Y-41396D01*
Y-33411D01*
X361402D01*
Y-41073D01*
X361083Y-41262D01*
X360764Y-41073D01*
Y-33411D01*
X356401D01*
Y-41073D01*
X356083Y-41262D01*
X355764Y-41073D01*
Y-33411D01*
X351401D01*
Y-41073D01*
X351083Y-41262D01*
X350764Y-41073D01*
Y-38463D01*
X348583D01*
X346402D01*
Y-41175D01*
X346402Y-41514D01*
X346614Y-41926D01*
Y-49087D01*
X347543D01*
Y-54043D01*
X346013Y-55574D01*
X345551Y-55382D01*
Y-48673D01*
X341039D01*
X340848Y-48211D01*
X345024Y-44034D01*
X345024Y-44034D01*
X345467Y-43373D01*
X345622Y-42593D01*
Y-41514D01*
X345764D01*
Y-33411D01*
X341402D01*
Y-41514D01*
X341402D01*
X341314Y-41978D01*
X336641Y-46651D01*
X336199Y-47312D01*
X336122Y-47699D01*
X335622Y-47649D01*
Y-41514D01*
X335764D01*
Y-33529D01*
X335901Y-33439D01*
X336349Y-33656D01*
X336402Y-33726D01*
X336402Y-33902D01*
Y-41514D01*
X340764D01*
Y-33411D01*
X336901D01*
X336676Y-33411D01*
X336328Y-33305D01*
X336087Y-33042D01*
X337895Y-31234D01*
X374900D01*
X376879Y-33213D01*
D02*
G37*
G36*
X278471Y-48147D02*
X278662Y-51107D01*
X278707Y-51187D01*
X276231D01*
X276276Y-51107D01*
X276317Y-50962D01*
X276352Y-50753D01*
X276383Y-50480D01*
X276448Y-49274D01*
X276469Y-47487D01*
X278469D01*
X278471Y-48147D01*
D02*
G37*
%LPC*%
G36*
X350764Y-33411D02*
X349583D01*
Y-36463D01*
X350764D01*
Y-33411D01*
D02*
G37*
G36*
X347583D02*
X346402D01*
Y-36463D01*
X347583D01*
Y-33411D01*
D02*
G37*
G36*
X373909Y-33713D02*
X371941D01*
Y-36463D01*
X373909D01*
Y-33713D01*
D02*
G37*
G36*
Y-38463D02*
X371941D01*
Y-41213D01*
X373909D01*
Y-38463D01*
D02*
G37*
%LPD*%
D10*
X71284Y-26833D02*
D03*
X46087D02*
D03*
X71284Y-50455D02*
D03*
X46087D02*
D03*
D11*
X6262Y-100000D02*
D03*
Y-113000D02*
D03*
D12*
X18109Y-12795D02*
D03*
X109D02*
D03*
X274609Y-252478D02*
D03*
X292609D02*
D03*
X94906Y-285074D02*
D03*
X112906D02*
D03*
X94906Y-264674D02*
D03*
X112906D02*
D03*
X-0Y0D02*
D03*
X18000D02*
D03*
D13*
X379900Y14999D02*
D03*
X388900D02*
D03*
X379900Y22086D02*
D03*
X388900D02*
D03*
X37685Y19233D02*
D03*
X28685D02*
D03*
X342583Y-52423D02*
D03*
X333583D02*
D03*
X374909Y-37463D02*
D03*
X383909D02*
D03*
X349583Y-45337D02*
D03*
X358583D02*
D03*
X255345Y-245392D02*
D03*
X264345D02*
D03*
Y-252478D02*
D03*
X255345D02*
D03*
X332426Y-146053D02*
D03*
X341426D02*
D03*
X305269D02*
D03*
X314269D02*
D03*
X278111D02*
D03*
X287111D02*
D03*
X250954D02*
D03*
X259954D02*
D03*
X359583D02*
D03*
X368583D02*
D03*
X223796D02*
D03*
X232796D02*
D03*
X332426Y-198100D02*
D03*
X341426D02*
D03*
X305269D02*
D03*
X314269D02*
D03*
X278111D02*
D03*
X287111D02*
D03*
X250954D02*
D03*
X259954D02*
D03*
X359583D02*
D03*
X368583D02*
D03*
X223796D02*
D03*
X232796D02*
D03*
X20491Y-175868D02*
D03*
X11491D02*
D03*
X20491Y-160120D02*
D03*
X11491D02*
D03*
X20491Y-144372D02*
D03*
X11491D02*
D03*
X269404Y28563D02*
D03*
X260404D02*
D03*
X260404Y35650D02*
D03*
X269404D02*
D03*
X277469Y-52423D02*
D03*
X286469D02*
D03*
X277469Y-45337D02*
D03*
X286469D02*
D03*
X312802Y-111519D02*
D03*
X303802D02*
D03*
X287211D02*
D03*
X278211D02*
D03*
X317271Y-45337D02*
D03*
X326271D02*
D03*
X317271Y-52423D02*
D03*
X326271D02*
D03*
D14*
X0Y-22333D02*
D03*
Y-31333D02*
D03*
X382660Y-226632D02*
D03*
Y-217632D02*
D03*
Y-164590D02*
D03*
Y-155590D02*
D03*
D15*
X274609Y-230140D02*
D03*
Y-212140D02*
D03*
D16*
X302310Y-231219D02*
D03*
X307310D02*
D03*
X312310D02*
D03*
X317310D02*
D03*
X322310D02*
D03*
X327310D02*
D03*
X332310D02*
D03*
X302310Y-252478D02*
D03*
X307310D02*
D03*
X312310D02*
D03*
X317310D02*
D03*
X322310D02*
D03*
X327310D02*
D03*
X332310D02*
D03*
X333583Y-37463D02*
D03*
X338583D02*
D03*
X368583Y-16203D02*
D03*
Y-37463D02*
D03*
X363583D02*
D03*
X358583D02*
D03*
X353583D02*
D03*
X348583D02*
D03*
X343583D02*
D03*
X363583Y-16203D02*
D03*
X358583D02*
D03*
X353583D02*
D03*
X348583D02*
D03*
X343583D02*
D03*
X338583D02*
D03*
X333583D02*
D03*
X311469Y-37463D02*
D03*
X306469D02*
D03*
X301469D02*
D03*
X296469D02*
D03*
X291469D02*
D03*
X286469D02*
D03*
X281469D02*
D03*
X311469Y-16203D02*
D03*
X306469D02*
D03*
X301469D02*
D03*
X296469D02*
D03*
X291469D02*
D03*
X286469D02*
D03*
X281469D02*
D03*
X368583Y-64703D02*
D03*
X363583D02*
D03*
X333583Y-85963D02*
D03*
Y-64703D02*
D03*
X338583D02*
D03*
X343583D02*
D03*
X348583D02*
D03*
X353583D02*
D03*
X358583D02*
D03*
X338583Y-85963D02*
D03*
X343583D02*
D03*
X348583D02*
D03*
X353583D02*
D03*
X358583D02*
D03*
X363583D02*
D03*
X368583D02*
D03*
D17*
X5164Y-144372D02*
D03*
X-2710D02*
D03*
X5164Y-160120D02*
D03*
X-2710D02*
D03*
X5164Y-175868D02*
D03*
X-2710D02*
D03*
D18*
X279668Y28563D02*
D03*
Y46516D02*
D03*
D19*
X305062Y37540D02*
D03*
D20*
X216875Y-87000D02*
X217064Y-87188D01*
X196217Y-87000D02*
X216875D01*
X190630D02*
X196217D01*
X181605Y-96025D02*
X190630Y-87000D01*
X65354Y-116142D02*
X170582D01*
X57836Y-108623D02*
X65354Y-116142D01*
X31644Y-108623D02*
X57836D01*
X170582Y-116142D02*
X181605Y-105119D01*
X126008Y-282000D02*
Y-274874D01*
X36282Y-26833D02*
X46087D01*
X32283Y-22835D02*
X36282Y-26833D01*
X32283Y-22835D02*
Y-16929D01*
X28150Y-12795D02*
X32283Y-16929D01*
X18109Y-12795D02*
X28150D01*
X0Y-22333D02*
X109Y-22224D01*
Y-12795D01*
X-0Y-12686D02*
X109Y-12795D01*
X-0Y-12686D02*
Y0D01*
X112945Y-285064D02*
X122944D01*
X126008Y-282000D01*
X125969Y-274874D02*
Y-267739D01*
X122905Y-264674D02*
X125969Y-267739D01*
X112906Y-264674D02*
X122905D01*
X270984Y-74377D02*
Y-52423D01*
Y-74377D02*
X275128Y-78521D01*
X270984Y-52423D02*
X277469D01*
X169315Y-39431D02*
X257992D01*
X158292Y-50455D02*
X169315Y-39431D01*
X71284Y-50455D02*
X158292D01*
X257992Y-39431D02*
X270984Y-52423D01*
X46087Y-63053D02*
Y-50455D01*
X233194Y53975D02*
X361565D01*
X209597Y30378D02*
X233194Y53975D01*
X209597Y-3087D02*
Y30378D01*
X185851Y-26833D02*
X209597Y-3087D01*
X71284Y-26833D02*
X185851D01*
X40637Y-68504D02*
X46087Y-63053D01*
X28685Y-68504D02*
X40637D01*
X12504Y9881D02*
X33967D01*
X9050Y6427D02*
X12504Y9881D01*
X9050Y-47091D02*
Y6427D01*
X33967Y9881D02*
X37685Y13599D01*
X2904Y17755D02*
X13534D01*
X-0Y14851D02*
X2904Y17755D01*
X-0Y0D02*
Y14851D01*
X13534Y17755D02*
X22195Y26417D01*
X28849D01*
X181605Y-105119D02*
Y-96025D01*
X28685Y-105664D02*
X31644Y-108623D01*
X28685Y-105664D02*
Y-100000D01*
X361565Y53975D02*
X365620Y49920D01*
Y42558D02*
Y49920D01*
X369833Y34291D02*
X371550Y32573D01*
X367077Y34291D02*
X369833D01*
X365620Y35747D02*
X367077Y34291D01*
X371550Y28149D02*
X377480D01*
X365620D02*
X371550D01*
Y32573D01*
X377480Y28149D02*
X379900Y25729D01*
Y22086D02*
Y25729D01*
X365620Y35747D02*
Y42558D01*
X379900Y14999D02*
Y22086D01*
X13634Y-51676D02*
X23477D01*
X9050Y-47091D02*
X13634Y-51676D01*
X28685Y-68504D02*
Y-56884D01*
X23477Y-51676D02*
X28685Y-56884D01*
X37685Y13599D02*
Y19233D01*
X41744D01*
X43988Y21477D01*
X48685D01*
X33298Y30865D02*
Y33091D01*
X28849Y26417D02*
X33298Y30865D01*
X28685Y-100000D02*
Y-84252D01*
Y-68504D01*
X360620Y23149D02*
X365620Y28149D01*
X360620Y14999D02*
Y23149D01*
X332786Y42558D02*
X355621D01*
X327767Y37540D02*
X332786Y42558D01*
X305062Y37540D02*
X327767D01*
X275128Y-78521D02*
X317328D01*
X326271Y-69577D01*
Y-52423D01*
X274609Y-252478D02*
Y-230140D01*
X264345Y-252478D02*
X274609D01*
X264345Y-261149D02*
X274839Y-271643D01*
X264345Y-261149D02*
Y-252478D01*
Y-245392D01*
X300341Y-260352D02*
X302310Y-258384D01*
X294436Y-260352D02*
X300341D01*
X292609Y-258526D02*
X294436Y-260352D01*
X292609Y-258526D02*
Y-252478D01*
X302310Y-258384D02*
Y-252478D01*
D21*
X148685Y0D02*
Y8273D01*
X143321Y13637D02*
X148685Y8273D01*
X143321Y13637D02*
Y39226D01*
X137321Y15487D02*
Y36741D01*
X128685Y6850D02*
X137321Y15487D01*
X128685Y0D02*
Y6850D01*
X140321Y13550D02*
Y37984D01*
X138685Y11913D02*
X140321Y13550D01*
X138685Y0D02*
Y11913D01*
X134793Y43512D02*
X140321Y37984D01*
X158111Y12931D02*
X172211D01*
X146321Y24721D02*
X158111Y12931D01*
X146321Y24721D02*
Y40469D01*
X159354Y15931D02*
X173454D01*
X149321Y25964D02*
X159354Y15931D01*
X149321Y25964D02*
Y41712D01*
X160597Y18931D02*
X174696D01*
X152321Y27206D02*
X160597Y18931D01*
X152321Y27206D02*
Y42954D01*
X236834Y-106125D02*
X250800D01*
X233564Y-102856D02*
X236834Y-106125D01*
X228745Y-102856D02*
X233564D01*
X236673Y-78521D02*
X241557D01*
X233674Y-81521D02*
X236673Y-78521D01*
X228745Y-81521D02*
X233674D01*
X227064Y-83202D02*
X228745Y-81521D01*
X134321Y17616D02*
Y35498D01*
X132308Y37512D02*
X134321Y35498D01*
X120313Y37512D02*
X132308D01*
X133551Y40512D02*
X137321Y36741D01*
X119070Y40512D02*
X133551D01*
X117828Y43512D02*
X134793D01*
X136036Y46512D02*
X143321Y39226D01*
X116585Y46512D02*
X136036D01*
X137278Y49512D02*
X146321Y40469D01*
X115342Y49512D02*
X137278D01*
X138521Y52512D02*
X149321Y41712D01*
X114100Y52512D02*
X138521D01*
X139764Y55512D02*
X152321Y42954D01*
X112857Y55512D02*
X139764D01*
X118685Y35883D02*
X120313Y37512D01*
X115905Y37347D02*
X119070Y40512D01*
X114663Y40347D02*
X117828Y43512D01*
X113420Y43347D02*
X116585Y46512D01*
X112178Y46347D02*
X115342Y49512D01*
X110935Y49347D02*
X114100Y52512D01*
X109692Y52347D02*
X112857Y55512D01*
X257055Y-95628D02*
Y-84816D01*
X249558Y-103125D02*
X257055Y-95628D01*
X239015Y-103125D02*
X249558D01*
X250800Y-106125D02*
X260055Y-96871D01*
X237064Y-101174D02*
X239015Y-103125D01*
X373583Y-141054D02*
Y-76282D01*
X368583Y-146053D02*
X373583Y-141054D01*
X338583Y-109496D02*
Y-85963D01*
X336560Y-111519D02*
X338583Y-109496D01*
X312802Y-111519D02*
X336560D01*
X343583Y-108738D02*
Y-85963D01*
X333552Y-118769D02*
X343583Y-108738D01*
X297960Y-118769D02*
X333552D01*
X332880Y-123683D02*
X348583Y-107981D01*
Y-85963D01*
X250142Y-123683D02*
X332880D01*
X332123Y-128683D02*
X353583Y-107223D01*
Y-85963D01*
X272299Y-128683D02*
X332123D01*
X358583Y-106466D02*
Y-85963D01*
X331366Y-133683D02*
X358583Y-106466D01*
X294457Y-133683D02*
X331366D01*
X363583Y-105709D02*
Y-85963D01*
X330608Y-138683D02*
X363583Y-105709D01*
X316614Y-138683D02*
X330608D01*
X368583Y-105040D02*
Y-85963D01*
X347362Y-126260D02*
X368583Y-105040D01*
X347362Y-144156D02*
Y-126260D01*
X345464Y-146053D02*
X347362Y-144156D01*
X63000Y-9171D02*
X173630D01*
X64243Y-12171D02*
X174873D01*
X65485Y-15171D02*
X176115D01*
X55685Y-16487D02*
X63000Y-9171D01*
X58685Y-17729D02*
X64243Y-12171D01*
X61685Y-18972D02*
X65485Y-15171D01*
X173630Y-9171D02*
X176991Y-5811D01*
X174873Y-12171D02*
X179991Y-7053D01*
X176115Y-15171D02*
X182991Y-8296D01*
X6262Y-119058D02*
Y-113000D01*
X7748Y-132589D02*
Y-120544D01*
X6262Y-119058D02*
X7748Y-120544D01*
X787Y-117826D02*
Y-106500D01*
X6262Y-100000D02*
X28685D01*
X787Y-117826D02*
X4748Y-121787D01*
Y-133919D02*
Y-121787D01*
X5164Y-144372D02*
X11491D01*
X5164Y-160120D02*
X11491D01*
X5164Y-175868D02*
X11491D01*
X20491D02*
X39891D01*
X20491Y-144372D02*
Y-139819D01*
X14347Y-133675D02*
X20491Y-139819D01*
X8835Y-133675D02*
X14347D01*
X16166Y-150589D02*
Y-139763D01*
X13078Y-136675D02*
X16166Y-139763D01*
X7504Y-136675D02*
X13078D01*
X7748Y-132589D02*
X8835Y-133675D01*
X4748Y-133919D02*
X7504Y-136675D01*
X16166Y-150589D02*
X20491Y-154914D01*
Y-160120D02*
Y-154914D01*
X164430Y-76345D02*
X179634Y-61140D01*
X133852Y-76345D02*
X164430D01*
X165469Y-79548D02*
X180877Y-64140D01*
X140649Y-79548D02*
X165469D01*
X166712Y-82548D02*
X182120Y-67140D01*
X162907Y-82548D02*
X166712D01*
X158685Y-86770D02*
X162907Y-82548D01*
X158685Y-100000D02*
Y-86770D01*
X168685Y-84817D02*
X183362Y-70140D01*
X168685Y-100000D02*
Y-84817D01*
X159385Y-64166D02*
X174590Y-48961D01*
X118685Y31477D02*
Y35883D01*
X350621Y7243D02*
Y14999D01*
X346072Y2695D02*
X350621Y7243D01*
X325165Y2695D02*
X346072D01*
X319260Y-3211D02*
X325165Y2695D01*
X78685Y-91512D02*
X106030Y-64166D01*
X88685Y-91512D02*
X113030Y-67166D01*
X88685Y-100000D02*
Y-91512D01*
X78685Y-100000D02*
Y-91512D01*
X98685D02*
X120030Y-70166D01*
X98685Y-100000D02*
Y-91512D01*
X120030Y-70166D02*
X161871D01*
X108685Y-91512D02*
X126852Y-73345D01*
X108685Y-100000D02*
Y-91512D01*
X126852Y-73345D02*
X163187D01*
X118685Y-91512D02*
X133852Y-76345D01*
X118685Y-100000D02*
Y-91512D01*
X128685D02*
X140649Y-79548D01*
X128685Y-100000D02*
Y-91512D01*
X161871Y-70166D02*
X177075Y-54962D01*
X113030Y-67166D02*
X160628D01*
X106030Y-64166D02*
X159385D01*
X182120Y-67140D02*
X242933Y-67140D01*
X183362Y-70140D02*
X241690Y-70140D01*
X160628Y-67166D02*
X175833Y-51961D01*
X163187Y-73345D02*
X178392Y-58140D01*
X180877Y-64140D02*
X244176Y-64140D01*
X175833Y-51961D02*
X249220Y-51961D01*
X174590Y-48961D02*
X250463Y-48961D01*
X179634Y-61140D02*
X245419Y-61140D01*
X178392Y-58140D02*
X246661Y-58140D01*
X177075Y-54962D02*
X247978Y-54962D01*
X108685Y-100000D02*
X108779Y-99905D01*
X249220Y-51961D02*
X262483Y-65225D01*
X250463Y-48961D02*
X265483Y-63982D01*
X334614Y-77470D02*
X344491D01*
X322559Y-89526D02*
X334614Y-77470D01*
X333371Y-74471D02*
X343248D01*
X321316Y-86526D02*
X333371Y-74471D01*
X332129Y-71470D02*
X341248D01*
X320074Y-83526D02*
X332129Y-71470D01*
X247978Y-54962D02*
X259483Y-66467D01*
Y-78759D02*
Y-66467D01*
X246661Y-58140D02*
X256483Y-67962D01*
Y-80002D02*
Y-67962D01*
X245419Y-61140D02*
X253483Y-69205D01*
Y-81244D02*
Y-69205D01*
X241690Y-70140D02*
X244188Y-72637D01*
Y-75890D02*
Y-72637D01*
X242933Y-67140D02*
X247188Y-71395D01*
Y-77132D02*
Y-71395D01*
X244176Y-64140D02*
X250188Y-70152D01*
Y-82192D02*
Y-70152D01*
Y-82192D02*
X254055Y-86059D01*
X242800Y-81521D02*
X247188Y-77132D01*
X238745Y-81521D02*
X242800D01*
X241557Y-78521D02*
X244188Y-75890D01*
X262483Y-77517D02*
Y-65225D01*
X265483Y-76274D02*
Y-63982D01*
X256483Y-80002D02*
X260055Y-83574D01*
X259483Y-78759D02*
X270250Y-89526D01*
X322559D01*
X260055Y-96871D02*
Y-83574D01*
X253483Y-81244D02*
X257055Y-84816D01*
X254055Y-94385D02*
Y-86059D01*
X251252Y-97188D02*
X254055Y-94385D01*
X262483Y-77517D02*
X271493Y-86526D01*
X265483Y-76274D02*
X272735Y-83526D01*
X247064Y-97188D02*
X251252D01*
X271493Y-86526D02*
X321316D01*
X272735Y-83526D02*
X320074D01*
X237064Y-101174D02*
Y-97188D01*
X227064Y-101174D02*
X228745Y-102856D01*
X227064Y-101174D02*
Y-97188D01*
X237064Y-87188D02*
Y-83202D01*
X227064Y-87188D02*
Y-83202D01*
X237064D02*
X238745Y-81521D01*
X277469Y-52423D02*
Y-45337D01*
Y-39246D02*
X279252Y-37463D01*
X277469Y-45337D02*
Y-39246D01*
X279252Y-37463D02*
X281469D01*
X319260Y-24116D02*
Y-3211D01*
X312755Y-30620D02*
X319260Y-24116D01*
X303450Y-30620D02*
X312755D01*
X301469Y-32601D02*
X303450Y-30620D01*
X301469Y-37463D02*
Y-32601D01*
X316260Y-22873D02*
Y-3211D01*
X311513Y-27620D02*
X316260Y-22873D01*
X294606Y-27620D02*
X311513D01*
X291469Y-30757D02*
X294606Y-27620D01*
X291469Y-37463D02*
Y-30757D01*
X310354Y2695D02*
X316260Y-3211D01*
X265079Y2695D02*
X310354D01*
X260404Y7369D02*
X265079Y2695D01*
X260404Y7369D02*
Y28563D01*
X260404Y28564D01*
Y35650D01*
X269404Y28563D02*
X279668D01*
X232796Y-141029D02*
X250142Y-123683D01*
X301974Y-59904D02*
X303802Y-61732D01*
X288399Y-59904D02*
X301974D01*
X286469Y-57974D02*
X288399Y-59904D01*
X303802Y-68723D02*
Y-61732D01*
X286469Y-57974D02*
Y-52423D01*
X281969Y-57974D02*
Y-47305D01*
X278211Y-61732D02*
X281969Y-57974D01*
X278211Y-68723D02*
Y-61732D01*
X281969Y-47305D02*
X283937Y-45337D01*
X286469D01*
X296469Y-37463D02*
X296469Y-37463D01*
X296469Y-50061D02*
Y-37463D01*
X294107Y-52423D02*
X296469Y-50061D01*
X286469Y-52423D02*
X294107D01*
X286469Y-45337D02*
Y-37463D01*
X391949Y1065D02*
X404806Y-11792D01*
Y-18504D02*
Y-11792D01*
Y-18504D02*
X407918Y-21616D01*
Y-45986D02*
Y-21616D01*
X404918Y-48986D02*
X407918Y-45986D01*
X404918Y-54744D02*
Y-48986D01*
X401806Y-19746D02*
X404918Y-22859D01*
Y-44744D02*
Y-22859D01*
X397812Y-56500D02*
X403162D01*
X404918Y-54744D01*
X397812Y-46500D02*
X403162D01*
X404918Y-44744D01*
X390706Y-1935D02*
X401806Y-13035D01*
Y-19746D02*
Y-13035D01*
X390706Y-22859D02*
X393819Y-19746D01*
X390706Y-34744D02*
Y-22859D01*
Y-34744D02*
X392462Y-36500D01*
X393819Y-19746D02*
Y-14090D01*
X388058Y-8329D02*
X393819Y-14090D01*
X389300Y-5329D02*
X397812Y-13841D01*
Y-26500D02*
Y-13841D01*
X392462Y-36500D02*
X397812D01*
X360260Y1065D02*
X391949D01*
X348583Y-10612D02*
X360260Y1065D01*
X348583Y-16203D02*
Y-10612D01*
X362260Y-1935D02*
X390706D01*
X353583Y-10612D02*
X362260Y-1935D01*
X353583Y-16203D02*
Y-10612D01*
X363866Y-5329D02*
X389300D01*
X358583Y-10612D02*
X363866Y-5329D01*
X358583Y-16203D02*
Y-10612D01*
X365866Y-8329D02*
X388058D01*
X363583Y-10612D02*
X365866Y-8329D01*
X363583Y-16203D02*
Y-10612D01*
X371772Y-74471D02*
X373583Y-76282D01*
X369016Y-74471D02*
X371772D01*
X363583Y-69037D02*
X369016Y-74471D01*
X363583Y-69037D02*
Y-64703D01*
X341426Y-146053D02*
X345464D01*
X287111Y-141029D02*
X294457Y-133683D01*
X287111Y-146053D02*
Y-141029D01*
X232796Y-146053D02*
Y-141029D01*
X259954D02*
X272299Y-128683D01*
X259954Y-146053D02*
Y-141029D01*
X314269D02*
X316614Y-138683D01*
X314269Y-146053D02*
Y-141029D01*
X290709Y-111519D02*
X297960Y-118769D01*
X287211Y-111519D02*
X290709D01*
X278211D02*
Y-98723D01*
X303802Y-111519D02*
Y-98723D01*
X359583Y-158849D02*
Y-146053D01*
X332426Y-158849D02*
Y-146053D01*
X305269Y-158849D02*
Y-146053D01*
X278111Y-158849D02*
Y-146053D01*
X250954Y-158849D02*
Y-146053D01*
X223796Y-158849D02*
Y-146053D01*
X365475Y-44156D02*
X371398D01*
Y-46459D02*
Y-44156D01*
X363583Y-42263D02*
X365475Y-44156D01*
X377320D02*
X379212Y-42263D01*
X371398Y-44156D02*
X377320D01*
X368583Y-49274D02*
X371398Y-46459D01*
X368583Y-64703D02*
Y-49274D01*
X344491Y-77470D02*
X347491Y-74471D01*
X353248D01*
X358583Y-69136D02*
Y-64703D01*
X353248Y-74471D02*
X358583Y-69136D01*
X343248Y-74471D02*
X348583Y-69136D01*
Y-64703D01*
X343583Y-69136D02*
Y-64703D01*
X341248Y-71470D02*
X343583Y-69136D01*
X326271Y-52423D02*
X333583D01*
X326271D02*
Y-45337D01*
X333583Y-52423D02*
Y-37463D01*
X342583Y-56770D02*
Y-52423D01*
X338583Y-60770D02*
X342583Y-56770D01*
X338583Y-64703D02*
Y-60770D01*
X333583Y-60860D02*
X338083Y-56360D01*
X333583Y-64703D02*
Y-60860D01*
X343583Y-42593D02*
Y-37463D01*
X338083Y-48093D02*
X343583Y-42593D01*
X338083Y-56360D02*
Y-48093D01*
X379212Y-42263D02*
Y-32662D01*
X353583Y-56006D02*
Y-37463D01*
X348583Y-61006D02*
X353583Y-56006D01*
X348583Y-64703D02*
Y-61006D01*
X349583Y-54888D02*
Y-45337D01*
X343583Y-60888D02*
X349583Y-54888D01*
X343583Y-64703D02*
Y-60888D01*
X375745Y-29195D02*
X379212Y-32662D01*
X337050Y-29195D02*
X375745D01*
X333583Y-32662D02*
X337050Y-29195D01*
X363583Y-42263D02*
Y-37463D01*
X333583D02*
Y-32662D01*
X358583Y-45337D02*
Y-37463D01*
X307034Y-205234D02*
X325735D01*
X305269Y-203469D02*
X307034Y-205234D01*
X325735D02*
X329426Y-208925D01*
X259954Y-180431D02*
X287111D01*
X237517D02*
X259954D01*
Y-198100D02*
Y-180431D01*
X287111Y-198100D02*
Y-180431D01*
X314269D01*
Y-198100D02*
Y-180431D01*
X341426D01*
Y-198100D02*
Y-180431D01*
X364121D01*
X368583Y-184894D01*
X232796Y-185152D02*
X237517Y-180431D01*
X357818Y-205234D02*
X359583Y-203469D01*
X338924Y-205234D02*
X357818D01*
X335426Y-208732D02*
X338924Y-205234D01*
X244263D02*
X247954Y-208925D01*
X225562Y-205234D02*
X244263D01*
X223796Y-203469D02*
X225562Y-205234D01*
X276345D02*
X278111Y-203469D01*
X257452Y-205234D02*
X276345D01*
X253954Y-208732D02*
X257452Y-205234D01*
X287111Y-207835D02*
Y-198100D01*
X282806Y-212140D02*
X287111Y-207835D01*
X274609Y-212140D02*
X282806D01*
X305269Y-203469D02*
Y-198100D01*
X253954Y-216032D02*
X256061Y-218140D01*
X253954Y-216032D02*
Y-208732D01*
X250954Y-217275D02*
Y-198100D01*
Y-217275D02*
X254819Y-221140D01*
X247954Y-218517D02*
X253576Y-224140D01*
X247954Y-218517D02*
Y-208925D01*
X256061Y-218140D02*
X302948D01*
X254819Y-221140D02*
X301706D01*
X253576Y-224140D02*
X300463D01*
X368583Y-198100D02*
Y-184894D01*
X232796Y-198100D02*
Y-185152D01*
X223796Y-203469D02*
Y-198100D01*
X278111Y-203469D02*
Y-198100D01*
X329426Y-218517D02*
Y-208925D01*
X335426Y-216032D02*
Y-208732D01*
X359583Y-203469D02*
Y-198100D01*
X332426Y-217275D02*
Y-198100D01*
X332310Y-263296D02*
X341848Y-272833D01*
X332310Y-263296D02*
Y-252478D01*
X322310Y-263295D02*
X331847Y-272833D01*
X322310Y-263295D02*
Y-252478D01*
X312310Y-263295D02*
X321847Y-272833D01*
X312310Y-263295D02*
Y-252478D01*
X341848Y-277864D02*
Y-272833D01*
X331847Y-277864D02*
Y-272833D01*
X321847Y-277864D02*
Y-272833D01*
X287132Y-270195D02*
X289210D01*
X280609Y-263672D02*
X287132Y-270195D01*
X280609Y-263672D02*
Y-242377D01*
X288374Y-267195D02*
X290452D01*
X283609Y-262430D02*
X288374Y-267195D01*
X283609Y-262430D02*
Y-243620D01*
X289617Y-264195D02*
X291695D01*
X286609Y-261187D02*
X289617Y-264195D01*
X286609Y-261187D02*
Y-244863D01*
X291695Y-264195D02*
X294695Y-267195D01*
X300452D01*
X303452Y-270195D01*
X309209D01*
X290452Y-267195D02*
X293452Y-270195D01*
X311847Y-277864D02*
Y-272833D01*
X309209Y-270195D02*
X311847Y-272833D01*
X301847Y-277864D02*
Y-272833D01*
X293452Y-270195D02*
X299209D01*
X301847Y-272833D01*
X289210Y-270195D02*
X291847Y-272833D01*
Y-277864D02*
Y-272833D01*
X286609Y-244863D02*
X288442Y-243030D01*
X280609Y-242377D02*
X285957Y-237030D01*
X283609Y-243620D02*
X287200Y-240030D01*
X285957Y-237030D02*
X305975D01*
X287200Y-240030D02*
X312315D01*
X322203Y-243030D02*
X336534D01*
X317310Y-247923D02*
X322203Y-243030D01*
X320961Y-240030D02*
X335291D01*
X314961Y-246030D02*
X320961Y-240030D01*
X325764Y-236581D02*
X327310Y-235035D01*
X320167Y-236581D02*
X325764D01*
X313718Y-243030D02*
X320167Y-236581D01*
X312315Y-240030D02*
X317310Y-235035D01*
Y-231219D01*
X305975Y-237030D02*
X307310Y-235695D01*
Y-231219D01*
X327310Y-235035D02*
Y-231219D01*
X309203Y-246030D02*
X314961D01*
X317310Y-252478D02*
Y-247923D01*
X329203Y-246030D02*
X337777D01*
X327310Y-247923D02*
X329203Y-246030D01*
X327310Y-252478D02*
Y-247923D01*
X288442Y-243030D02*
X313718D01*
X307310Y-247923D02*
X309203Y-246030D01*
X307310Y-252478D02*
Y-247923D01*
X335291Y-240030D02*
X337227Y-238094D01*
X336534Y-243030D02*
X340227Y-239337D01*
X337777Y-246030D02*
X343227Y-240579D01*
X335426Y-216032D02*
X343227Y-223833D01*
X329426Y-218517D02*
X337227Y-226318D01*
X332426Y-217275D02*
X340227Y-225075D01*
X343227Y-240579D02*
Y-223833D01*
X337227Y-238094D02*
Y-226318D01*
X340227Y-239337D02*
Y-225075D01*
X302948Y-218140D02*
X305948Y-221140D01*
X311706D01*
X314706Y-224140D01*
X320463D01*
X301706Y-221140D02*
X304706Y-224140D01*
X310463D01*
X320463D02*
X322310Y-225987D01*
Y-231219D02*
Y-225987D01*
X312310Y-231219D02*
Y-225987D01*
X310463Y-224140D02*
X312310Y-225987D01*
X300463Y-224140D02*
X302310Y-225987D01*
Y-231219D02*
Y-225987D01*
X359583Y-198100D02*
Y-188848D01*
X332426Y-198100D02*
Y-188848D01*
X305269Y-198100D02*
Y-188848D01*
X278111Y-198100D02*
Y-188848D01*
X250954Y-198100D02*
Y-188848D01*
X223796Y-198100D02*
Y-188848D01*
X172211Y12931D02*
X176991Y8151D01*
X173454Y15931D02*
X179991Y9394D01*
X174696Y18931D02*
X182991Y10637D01*
Y-8296D02*
Y10637D01*
X179991Y-7053D02*
Y9394D01*
X176991Y-5811D02*
Y8151D01*
X48685Y0D02*
Y6533D01*
X58685Y16533D01*
Y21477D01*
Y0D02*
Y6533D01*
X68685Y16533D01*
Y21477D01*
Y0D02*
Y6533D01*
X78685Y16533D01*
Y21477D01*
Y0D02*
Y6533D01*
X88685Y16533D01*
Y21477D01*
Y0D02*
Y6533D01*
X98685Y16533D01*
Y21477D01*
Y0D02*
Y6533D01*
X108685Y16533D01*
Y21477D01*
X118685Y16533D02*
Y21477D01*
X108685Y6533D02*
X118685Y16533D01*
X108685Y0D02*
Y6533D01*
X103935Y52347D02*
X109692D01*
X100935Y49347D02*
X103935Y52347D01*
X95178Y49347D02*
X100935D01*
X92177Y46347D02*
X95178Y49347D01*
X86420Y46347D02*
X92177D01*
X83420Y43347D02*
X86420Y46347D01*
X77663Y43347D02*
X83420D01*
X74663Y40347D02*
X77663Y43347D01*
X68906Y40347D02*
X74663D01*
X65905Y37347D02*
X68906Y40347D01*
X60148Y37347D02*
X65905D01*
X105177Y49347D02*
X110935D01*
X102178Y46347D02*
X105177Y49347D01*
X96420Y46347D02*
X102178D01*
X93420Y43347D02*
X96420Y46347D01*
X87663Y43347D02*
X93420D01*
X84663Y40347D02*
X87663Y43347D01*
X78905Y40347D02*
X84663D01*
X75906Y37347D02*
X78905Y40347D01*
X70148Y37347D02*
X75906D01*
X106420Y46347D02*
X112178D01*
X103420Y43347D02*
X106420Y46347D01*
X97663Y43347D02*
X103420D01*
X94663Y40347D02*
X97663Y43347D01*
X88906Y40347D02*
X94663D01*
X85905Y37347D02*
X88906Y40347D01*
X80148Y37347D02*
X85905D01*
X107663Y43347D02*
X113420D01*
X104663Y40347D02*
X107663Y43347D01*
X98905Y40347D02*
X104663D01*
X95906Y37347D02*
X98905Y40347D01*
X90148Y37347D02*
X95906D01*
X108905Y40347D02*
X114663D01*
X105905Y37347D02*
X108905Y40347D01*
X100148Y37347D02*
X105905D01*
X58685Y31477D02*
Y35883D01*
X60148Y37347D01*
X68685Y31477D02*
Y35883D01*
X70148Y37347D01*
X78685Y31477D02*
Y35883D01*
X80148Y37347D01*
X88685Y31477D02*
Y35883D01*
X90148Y37347D01*
X98685Y31477D02*
Y35883D01*
X100148Y37347D01*
X110148D02*
X115905D01*
X108685Y31477D02*
Y35883D01*
X110148Y37347D01*
X61685Y-85108D02*
Y-18972D01*
X68685Y-100000D02*
Y-92108D01*
X61685Y-85108D02*
X68685Y-92108D01*
X55685Y-85108D02*
Y-16487D01*
X48685Y-92108D02*
X55685Y-85108D01*
X48685Y-100000D02*
Y-92108D01*
X58685Y-100000D02*
Y-17729D01*
X118685Y0D02*
Y7231D01*
X127762Y11057D02*
X134321Y17616D01*
X122510Y11057D02*
X127762D01*
X118685Y7231D02*
X122510Y11057D01*
D22*
X38583Y-275197D02*
X61621D01*
X28740Y-265354D02*
X38583Y-275197D01*
X28740Y-265354D02*
Y-253543D01*
X19336Y-244140D02*
X28740Y-253543D01*
X61621Y-275197D02*
X61943Y-274874D01*
X7433Y-244140D02*
X19336D01*
X221858Y-258661D02*
X234839Y-271643D01*
X166535Y-258661D02*
X221858D01*
X123783Y-219096D02*
X133071Y-228384D01*
Y-246943D02*
Y-228384D01*
Y-246943D02*
X145969Y-259841D01*
X147638Y-239764D02*
X166535Y-258661D01*
X147638Y-239764D02*
Y-222557D01*
X130199Y-205118D02*
X147638Y-222557D01*
X107874Y-205118D02*
X130199D01*
X101969Y-211024D02*
X107874Y-205118D01*
X101969Y-218595D02*
Y-211024D01*
X101468Y-219096D02*
X101969Y-218595D01*
X39891Y-175868D02*
Y-152920D01*
Y-219096D02*
Y-175868D01*
X27541Y-140570D02*
Y-126368D01*
Y-140570D02*
X39891Y-152920D01*
Y-219096D02*
X70679D01*
X101468D01*
X126008Y-274874D02*
X145969D01*
X125969D02*
X126008D01*
X101468Y-219096D02*
X123783D01*
X145969Y-274874D02*
Y-259841D01*
X61943Y-274874D02*
X81943D01*
X18000Y0D02*
X28685D01*
X13761Y-126368D02*
X27541D01*
D23*
X-10915Y-101290D02*
X-5705Y-106500D01*
X53336Y-116929D02*
X62775Y-126368D01*
X23376Y-116929D02*
X53336D01*
X12946Y-106500D02*
X23376Y-116929D01*
X787Y-106500D02*
X12946D01*
X-5705D02*
X787D01*
X377297Y-164590D02*
X382660D01*
X366800Y-175087D02*
X377297Y-164590D01*
X198231Y-180179D02*
X209790Y-168620D01*
X198231Y-221514D02*
Y-180179D01*
Y-221514D02*
X205853Y-229136D01*
X212772Y-175087D02*
X361442Y-175087D01*
X204672Y-183187D02*
X212772Y-175087D01*
X204672Y-215077D02*
Y-183187D01*
Y-215077D02*
X210412Y-220816D01*
X361442Y-175087D02*
X366800D01*
X364121Y-168620D02*
X377151Y-155590D01*
X382660D01*
X209790Y-168620D02*
X364121Y-168620D01*
X205853Y-236258D02*
Y-229136D01*
Y-236258D02*
X210412Y-240816D01*
X218461D01*
X210412Y-220816D02*
X218461D01*
X382660Y-164590D02*
X389595D01*
X394269Y-169263D01*
X382660Y-155590D02*
X387942D01*
X394269Y-149263D01*
D24*
X-10915Y-101290D02*
Y12637D01*
X62775Y-126368D02*
X183037D01*
X19966Y33091D02*
X23455D01*
X10535Y23661D02*
X19966Y33091D01*
X109Y23661D02*
X10535D01*
X-10915Y12637D02*
X109Y23661D01*
X183037Y-126368D02*
X196217D01*
X370769Y-217632D02*
X382660D01*
X367584Y-220816D02*
X370769Y-217632D01*
X354918Y-220816D02*
X367584D01*
X373176Y-230431D02*
X376976Y-226632D01*
X373176Y-236932D02*
Y-230431D01*
X369291Y-240816D02*
X373176Y-236932D01*
X376976Y-226632D02*
X382660D01*
X354918Y-240816D02*
X369291D01*
X389595Y-226632D02*
X394269Y-231305D01*
X382660Y-226632D02*
X389595D01*
X387942Y-217632D02*
X394269Y-211305D01*
X382660Y-217632D02*
X387942D01*
D25*
X274839Y-271643D02*
D03*
X354918Y-240816D02*
D03*
X218461D02*
D03*
X254839Y-271643D02*
D03*
X394269Y-211305D02*
D03*
Y-149263D02*
D03*
X7433Y-224140D02*
D03*
D26*
X301847Y-277864D02*
D03*
X311847D02*
D03*
X321847D02*
D03*
X331847D02*
D03*
X360620Y14999D02*
D03*
X370620D02*
D03*
D27*
X341848Y-277864D02*
D03*
X291847Y-277864D02*
D03*
X350621Y14999D02*
D03*
D28*
X354918Y-220816D02*
D03*
X218461D02*
D03*
X394269Y-231305D02*
D03*
Y-169263D02*
D03*
X7433Y-244140D02*
D03*
D29*
X234839Y-271643D02*
D03*
D30*
X213855Y-130580D02*
D03*
X359524D02*
D03*
Y-276250D02*
D03*
X213855D02*
D03*
X46289Y-128620D02*
D03*
X164289Y-191620D02*
D03*
D31*
X33298Y33091D02*
D03*
X23455D02*
D03*
D32*
X332426Y-158849D02*
D03*
X305269D02*
D03*
X278111D02*
D03*
X250954D02*
D03*
X359583D02*
D03*
X223796D02*
D03*
X303802Y-98723D02*
D03*
X278211D02*
D03*
D33*
X322426Y-158849D02*
D03*
Y-188848D02*
D03*
X332426D02*
D03*
X295269Y-158849D02*
D03*
Y-188848D02*
D03*
X305269D02*
D03*
X268111Y-158849D02*
D03*
Y-188848D02*
D03*
X278111D02*
D03*
X240954Y-158849D02*
D03*
Y-188848D02*
D03*
X250954D02*
D03*
X349584Y-158849D02*
D03*
Y-188848D02*
D03*
X359583D02*
D03*
X213796Y-158849D02*
D03*
Y-188848D02*
D03*
X223796D02*
D03*
X303802Y-68723D02*
D03*
X313802D02*
D03*
Y-98723D02*
D03*
X278211Y-68723D02*
D03*
X288211D02*
D03*
Y-98723D02*
D03*
D34*
X128685Y31477D02*
D03*
Y21477D02*
D03*
X118685Y31477D02*
D03*
Y21477D02*
D03*
X108685Y31477D02*
D03*
Y21477D02*
D03*
X98685Y31477D02*
D03*
Y21477D02*
D03*
X88685Y31477D02*
D03*
Y21477D02*
D03*
X78685Y31477D02*
D03*
Y21477D02*
D03*
X68685Y31477D02*
D03*
Y21477D02*
D03*
X58685Y31477D02*
D03*
Y21477D02*
D03*
X48685Y31477D02*
D03*
D35*
Y21477D02*
D03*
D36*
X196217Y-126368D02*
D03*
Y-141368D02*
D03*
X13761Y-126368D02*
D03*
X-1238D02*
D03*
X196217Y-102000D02*
D03*
Y-87000D02*
D03*
X28685Y-68504D02*
D03*
X13685D02*
D03*
D37*
X101468Y-219096D02*
D03*
X39891D02*
D03*
X70679D02*
D03*
D38*
X101468Y-234096D02*
D03*
X39891D02*
D03*
X70679D02*
D03*
D39*
X168685Y0D02*
D03*
D40*
X158685D02*
D03*
X148685D02*
D03*
X138685D02*
D03*
X128685D02*
D03*
X118685D02*
D03*
X108685D02*
D03*
X98685D02*
D03*
X88685D02*
D03*
X78685D02*
D03*
X68685D02*
D03*
X58685D02*
D03*
X48685D02*
D03*
X38685D02*
D03*
X28685D02*
D03*
X168685Y-100000D02*
D03*
X158685D02*
D03*
X148685D02*
D03*
X138685D02*
D03*
X128685D02*
D03*
X118685D02*
D03*
X108685D02*
D03*
X98685D02*
D03*
X88685D02*
D03*
X78685D02*
D03*
X68685D02*
D03*
X58685D02*
D03*
X48685D02*
D03*
X38685D02*
D03*
X28685D02*
D03*
D41*
X18685Y-84252D02*
D03*
D42*
X28685D02*
D03*
D43*
X217064Y-97188D02*
D03*
D44*
Y-87188D02*
D03*
X247064Y-97188D02*
D03*
Y-87188D02*
D03*
D45*
X227064Y-97188D02*
D03*
Y-87188D02*
D03*
X237064Y-97188D02*
D03*
Y-87188D02*
D03*
D46*
X397812Y-36500D02*
D03*
Y-56500D02*
D03*
Y-86500D02*
D03*
Y-76500D02*
D03*
Y-66500D02*
D03*
Y-46500D02*
D03*
Y-26500D02*
D03*
D47*
Y-96500D02*
D03*
D48*
X27541Y-126368D02*
D03*
X365620Y42558D02*
D03*
D49*
X27541Y-193872D02*
D03*
X183037D02*
D03*
Y-126368D02*
D03*
X355621Y42558D02*
D03*
D50*
X125969Y-274874D02*
D03*
X145969D02*
D03*
X81943D02*
D03*
X61943D02*
D03*
D51*
X1251Y39797D02*
D03*
X394951D02*
D03*
Y-275164D02*
D03*
X1251D02*
D03*
M02*
