G04*
G04 #@! TF.GenerationSoftware,Altium Limited,Altium Designer,18.0.7 (293)*
G04*
G04 Layer_Color=16711935*
%FSLAX25Y25*%
%MOIN*%
G70*
G01*
G75*
%ADD10R,0.07887X0.13792*%
%ADD11R,0.07300X0.05800*%
%ADD12R,0.08800X0.09855*%
%ADD13R,0.04737X0.06300*%
%ADD14R,0.06300X0.04737*%
%ADD15R,0.04331X0.05894*%
%ADD16R,0.09855X0.08800*%
%ADD17R,0.03162X0.06902*%
%ADD18R,0.04331X0.04331*%
%ADD19R,0.12020X0.04737*%
%ADD20R,0.26391X0.22650*%
%ADD21C,0.10642*%
%ADD22C,0.07887*%
%ADD23R,0.07887X0.07887*%
%ADD24R,0.10642X0.10642*%
%ADD25R,0.10642X0.10642*%
%ADD26C,0.14580*%
%ADD27O,0.05524X0.07887*%
%ADD28R,0.06800X0.09800*%
%ADD29O,0.06800X0.09800*%
%ADD30O,0.07099X0.08674*%
%ADD31R,0.07099X0.08674*%
%ADD32C,0.07800*%
%ADD33R,0.10800X0.07800*%
%ADD34O,0.10800X0.07800*%
%ADD35R,0.06942X0.10642*%
%ADD36O,0.06942X0.10642*%
%ADD37O,0.07800X0.10800*%
%ADD38R,0.07800X0.10800*%
%ADD39R,0.07139X0.08674*%
%ADD40O,0.07139X0.08674*%
%ADD41O,0.07887X0.09461*%
%ADD42O,0.09800X0.08300*%
%ADD43R,0.09800X0.08300*%
%ADD44R,0.08300X0.09800*%
%ADD45O,0.08300X0.09800*%
%ADD46O,0.09461X0.12611*%
%ADD47C,0.24422*%
D10*
X71284Y-26833D02*
D03*
X46087D02*
D03*
X71284Y-50455D02*
D03*
X46087D02*
D03*
D11*
X6262Y-100000D02*
D03*
Y-113000D02*
D03*
D12*
X18109Y-12795D02*
D03*
X109D02*
D03*
X274609Y-252478D02*
D03*
X292609D02*
D03*
X94906Y-285074D02*
D03*
X112906D02*
D03*
X94906Y-264674D02*
D03*
X112906D02*
D03*
X-0Y0D02*
D03*
X18000D02*
D03*
D13*
X379900Y14999D02*
D03*
X388900D02*
D03*
X379900Y22086D02*
D03*
X388900D02*
D03*
X37685Y19233D02*
D03*
X28685D02*
D03*
X255345Y-245392D02*
D03*
X264345D02*
D03*
Y-252478D02*
D03*
X255345D02*
D03*
X317271Y-45337D02*
D03*
X326271D02*
D03*
X317271Y-52423D02*
D03*
X326271D02*
D03*
D14*
X0Y-22333D02*
D03*
Y-31333D02*
D03*
X382660Y-226632D02*
D03*
Y-217632D02*
D03*
Y-164590D02*
D03*
Y-155590D02*
D03*
D15*
X342583Y-52423D02*
D03*
X333583D02*
D03*
X374909Y-37463D02*
D03*
X383909D02*
D03*
X349583Y-45337D02*
D03*
X358583D02*
D03*
X332426Y-146053D02*
D03*
X341426D02*
D03*
X305269D02*
D03*
X314269D02*
D03*
X278111D02*
D03*
X287111D02*
D03*
X250954D02*
D03*
X259954D02*
D03*
X359583D02*
D03*
X368583D02*
D03*
X223796D02*
D03*
X232796D02*
D03*
X332426Y-198100D02*
D03*
X341426D02*
D03*
X305269D02*
D03*
X314269D02*
D03*
X278111D02*
D03*
X287111D02*
D03*
X250954D02*
D03*
X259954D02*
D03*
X359583D02*
D03*
X368583D02*
D03*
X223796D02*
D03*
X232796D02*
D03*
X20491Y-175868D02*
D03*
X11491D02*
D03*
X20491Y-160120D02*
D03*
X11491D02*
D03*
X20491Y-144372D02*
D03*
X11491D02*
D03*
X269404Y28563D02*
D03*
X260404D02*
D03*
X260404Y35650D02*
D03*
X269404D02*
D03*
X277469Y-52423D02*
D03*
X286469D02*
D03*
X277469Y-45337D02*
D03*
X286469D02*
D03*
X312802Y-111519D02*
D03*
X303802D02*
D03*
X287211D02*
D03*
X278211D02*
D03*
D16*
X274609Y-230140D02*
D03*
Y-212140D02*
D03*
D17*
X302310Y-231219D02*
D03*
X307310D02*
D03*
X312310D02*
D03*
X317310D02*
D03*
X322310D02*
D03*
X327310D02*
D03*
X332310D02*
D03*
X302310Y-252478D02*
D03*
X307310D02*
D03*
X312310D02*
D03*
X317310D02*
D03*
X322310D02*
D03*
X327310D02*
D03*
X332310D02*
D03*
X333583Y-37463D02*
D03*
X338583D02*
D03*
X368583Y-16203D02*
D03*
Y-37463D02*
D03*
X363583D02*
D03*
X358583D02*
D03*
X353583D02*
D03*
X348583D02*
D03*
X343583D02*
D03*
X363583Y-16203D02*
D03*
X358583D02*
D03*
X353583D02*
D03*
X348583D02*
D03*
X343583D02*
D03*
X338583D02*
D03*
X333583D02*
D03*
X311469Y-37463D02*
D03*
X306469D02*
D03*
X301469D02*
D03*
X296469D02*
D03*
X291469D02*
D03*
X286469D02*
D03*
X281469D02*
D03*
X311469Y-16203D02*
D03*
X306469D02*
D03*
X301469D02*
D03*
X296469D02*
D03*
X291469D02*
D03*
X286469D02*
D03*
X281469D02*
D03*
X368583Y-64703D02*
D03*
X363583D02*
D03*
X333583Y-85963D02*
D03*
Y-64703D02*
D03*
X338583D02*
D03*
X343583D02*
D03*
X348583D02*
D03*
X353583D02*
D03*
X358583D02*
D03*
X338583Y-85963D02*
D03*
X343583D02*
D03*
X348583D02*
D03*
X353583D02*
D03*
X358583D02*
D03*
X363583D02*
D03*
X368583D02*
D03*
D18*
X5164Y-144372D02*
D03*
X-2710D02*
D03*
X5164Y-160120D02*
D03*
X-2710D02*
D03*
X5164Y-175868D02*
D03*
X-2710D02*
D03*
D19*
X279668Y28563D02*
D03*
Y46516D02*
D03*
D20*
X305062Y37540D02*
D03*
D21*
X274839Y-271643D02*
D03*
X354918Y-240816D02*
D03*
X218461D02*
D03*
X254839Y-271643D02*
D03*
X394269Y-211305D02*
D03*
Y-149263D02*
D03*
X7433Y-224140D02*
D03*
D22*
X301847Y-277864D02*
D03*
X311847D02*
D03*
X321847D02*
D03*
X331847D02*
D03*
X360620Y14999D02*
D03*
X370620D02*
D03*
D23*
X341848Y-277864D02*
D03*
X291847Y-277864D02*
D03*
X350621Y14999D02*
D03*
D24*
X354918Y-220816D02*
D03*
X218461D02*
D03*
X394269Y-231305D02*
D03*
Y-169263D02*
D03*
X7433Y-244140D02*
D03*
D25*
X234839Y-271643D02*
D03*
D26*
X213855Y-130580D02*
D03*
X359524D02*
D03*
Y-276250D02*
D03*
X213855D02*
D03*
X46289Y-128620D02*
D03*
X164289Y-191620D02*
D03*
D27*
X33298Y33091D02*
D03*
X23455D02*
D03*
D28*
X332426Y-158849D02*
D03*
X305269D02*
D03*
X278111D02*
D03*
X250954D02*
D03*
X359583D02*
D03*
X223796D02*
D03*
X303802Y-98723D02*
D03*
X278211D02*
D03*
D29*
X322426Y-158849D02*
D03*
Y-188848D02*
D03*
X332426D02*
D03*
X295269Y-158849D02*
D03*
Y-188848D02*
D03*
X305269D02*
D03*
X268111Y-158849D02*
D03*
Y-188848D02*
D03*
X278111D02*
D03*
X240954Y-158849D02*
D03*
Y-188848D02*
D03*
X250954D02*
D03*
X349584Y-158849D02*
D03*
Y-188848D02*
D03*
X359583D02*
D03*
X213796Y-158849D02*
D03*
Y-188848D02*
D03*
X223796D02*
D03*
X303802Y-68723D02*
D03*
X313802D02*
D03*
Y-98723D02*
D03*
X278211Y-68723D02*
D03*
X288211D02*
D03*
Y-98723D02*
D03*
D30*
X128685Y31477D02*
D03*
Y21477D02*
D03*
X118685Y31477D02*
D03*
Y21477D02*
D03*
X108685Y31477D02*
D03*
Y21477D02*
D03*
X98685Y31477D02*
D03*
Y21477D02*
D03*
X88685Y31477D02*
D03*
Y21477D02*
D03*
X78685Y31477D02*
D03*
Y21477D02*
D03*
X68685Y31477D02*
D03*
Y21477D02*
D03*
X58685Y31477D02*
D03*
Y21477D02*
D03*
X48685Y31477D02*
D03*
D31*
Y21477D02*
D03*
D32*
X196217Y-126368D02*
D03*
Y-141368D02*
D03*
X13761Y-126368D02*
D03*
X-1238D02*
D03*
X196217Y-102000D02*
D03*
Y-87000D02*
D03*
X28685Y-68504D02*
D03*
X13685D02*
D03*
D33*
X101468Y-219096D02*
D03*
X39891D02*
D03*
X70679D02*
D03*
D34*
X101468Y-234096D02*
D03*
X39891D02*
D03*
X70679D02*
D03*
D35*
X168685Y0D02*
D03*
D36*
X158685D02*
D03*
X148685D02*
D03*
X138685D02*
D03*
X128685D02*
D03*
X118685D02*
D03*
X108685D02*
D03*
X98685D02*
D03*
X88685D02*
D03*
X78685D02*
D03*
X68685D02*
D03*
X58685D02*
D03*
X48685D02*
D03*
X38685D02*
D03*
X28685D02*
D03*
X168685Y-100000D02*
D03*
X158685D02*
D03*
X148685D02*
D03*
X138685D02*
D03*
X128685D02*
D03*
X118685D02*
D03*
X108685D02*
D03*
X98685D02*
D03*
X88685D02*
D03*
X78685D02*
D03*
X68685D02*
D03*
X58685D02*
D03*
X48685D02*
D03*
X38685D02*
D03*
X28685D02*
D03*
D37*
X18685Y-84252D02*
D03*
D38*
X28685D02*
D03*
D39*
X217064Y-97188D02*
D03*
D40*
Y-87188D02*
D03*
X247064Y-97188D02*
D03*
Y-87188D02*
D03*
D41*
X227064Y-97188D02*
D03*
Y-87188D02*
D03*
X237064Y-97188D02*
D03*
Y-87188D02*
D03*
D42*
X397812Y-36500D02*
D03*
Y-56500D02*
D03*
Y-86500D02*
D03*
Y-76500D02*
D03*
Y-66500D02*
D03*
Y-46500D02*
D03*
Y-26500D02*
D03*
D43*
Y-96500D02*
D03*
D44*
X27541Y-126368D02*
D03*
X365620Y42558D02*
D03*
D45*
X27541Y-193872D02*
D03*
X183037D02*
D03*
Y-126368D02*
D03*
X355621Y42558D02*
D03*
D46*
X125969Y-274874D02*
D03*
X145969D02*
D03*
X81943D02*
D03*
X61943D02*
D03*
D47*
X1251Y39797D02*
D03*
X394951D02*
D03*
Y-275164D02*
D03*
X1251D02*
D03*
M02*
