M48
;Layer_Color=9474304
;FILE_FORMAT=2:5
INCH,LZ
;TYPE=PLATED
T1F00S00C0.03100
T2F00S00C0.03150
T3F00S00C0.03200
T4F00S00C0.03400
T5F00S00C0.03937
T6F00S00C0.04094
T7F00S00C0.04331
T8F00S00C0.04724
T9F00S00C0.11811
%
T01
X0359583Y-0188848
Y-0158849
X0349584
X0332426
X0322426
X0305269
X0295269
X0278111
X0268111
X0250954
X0240954
X0223796
X0213796
Y-0188848
X0223796
X0240954
X0250954
X0268111
X0278111
X0295269
X0305269
X0322426
X0332426
X0349584
X0313802Y-0098723
X0303802
X0288211
X0278211
X0196217Y-0102
Y-0087
Y-0126368
Y-0141368
X0013761Y-0126368
X-0001238
X0013685Y-0068504
X0028685
X0278211Y-0068723
X0288211
X0303802
X0313802
T02
X0023455Y0033091
X0033298
T03
X0039891Y-0234096
Y-0219096
X0070679
Y-0234096
X0101468
Y-0219096
X0028685Y-0084252
X0018685
T04
X0397812Y-00965
Y-00865
X0183037Y-0126368
Y-0193872
X0027541
Y-0126368
X0397812Y-00765
Y-00665
Y-00565
Y-00465
Y-00365
Y-00265
X036562Y0042558
X0355621
T05
X0291847Y-0277864
X0301847
X0311847
X0321847
X0331847
X0341848Y-0277864
X0128685Y0021477
Y0031477
X0118685
Y0021477
X0108685
Y0031477
X0098685
Y0021477
X0088685
Y0031477
X0078685
Y0021477
X0068685
Y0031477
X0058685
Y0021477
X0048685
Y0031477
X0350621Y0014999
X036062
X037062
T06
X0038685Y-01
X0048685
X0058685
X0068685
X0078685
X0088685
X0098685
X0108685
X0118685
X0128685
X0138685
X0148685
X0158685
X0168685
X0028685
Y0
X0038685
X0048685
X0058685
X0068685
X0078685
X0088685
X0098685
X0108685
X0118685
X0128685
X0138685
X0148685
X0158685
X0168685
T07
X0217064Y-0097188
Y-0087188
X0227064
Y-0097188
X0237064
Y-0087188
X0247064
Y-0097188
T08
X0007433Y-024414
X0061943Y-0274874
X0081943
X0125969
X0145969
X0234839Y-0271643
X0254839
X0274839
X0218461Y-0240816
X0354918
Y-0220816
X0394269Y-0211305
Y-0231305
Y-0169263
Y-0149263
X0218461Y-0220816
X0007433Y-022414
T09
X0001251Y-0275164
X0213855Y-027625
X0359524
X0394951Y-0275164
X0359524Y-013058
X0213855
X0164289Y-019162
X0046289Y-012862
X0001251Y0039797
X0394951
M30
